<svg width="177" height="73" viewBox="0 0 177 73" fill="none" xmlns="http://www.w3.org/2000/svg">
    <path d="M77.21 38.48C76.39 38.48 75.51 38.35 74.57 38.09C73.65 37.83 72.8 37.47 72.02 37.01H71.99L72.08 38.27H69.77V31.25H71.75C72.01 32.89 72.64 34.15 73.64 35.03C74.64 35.89 75.86 36.32 77.3 36.32C78.34 36.32 79.2 36.05 79.88 35.51C80.56 34.95 80.9 34.28 80.9 33.5C80.9 32.86 80.67 32.31 80.21 31.85C79.77 31.39 79.27 31.03 78.71 30.77C78.17 30.51 77.3 30.14 76.1 29.66C73.9 28.78 72.21 27.78 71.03 26.66C69.87 25.54 69.29 24.07 69.29 22.25C69.29 21.33 69.52 20.44 69.98 19.58C70.44 18.7 71.19 17.97 72.23 17.39C73.29 16.81 74.65 16.52 76.31 16.52C77.17 16.52 78.07 16.65 79.01 16.91C79.95 17.15 80.73 17.5 81.35 17.96H81.38L81.26 16.73H83.6V23.72H81.62C81.36 22.08 80.78 20.83 79.88 19.97C79 19.11 77.87 18.68 76.49 18.68C75.59 18.68 74.81 18.93 74.15 19.43C73.51 19.91 73.19 20.52 73.19 21.26C73.19 22.14 73.56 22.88 74.3 23.48C75.04 24.08 76.29 24.74 78.05 25.46C80.07 26.26 81.71 27.19 82.97 28.25C84.25 29.29 84.89 30.68 84.89 32.42C84.89 33.6 84.57 34.65 83.93 35.57C83.29 36.49 82.39 37.21 81.23 37.73C80.07 38.23 78.73 38.48 77.21 38.48ZM87.4297 36.02C87.9697 36 88.3797 35.94 88.6597 35.84C88.9397 35.72 89.1597 35.48 89.3197 35.12C89.4797 34.76 89.5597 34.19 89.5597 33.41V21.92C89.5597 20.8 89.5997 19.9 89.6797 19.22L87.4297 19.31V17H96.0397V18.98C95.4997 19 95.0897 19.07 94.8097 19.19C94.5297 19.29 94.3097 19.52 94.1497 19.88C93.9897 20.24 93.9097 20.81 93.9097 21.59V26.15H96.0697L98.3797 22.22C99.3397 20.54 100.02 19.54 100.42 19.22V19.19C99.9797 19.23 99.5997 19.26 99.2797 19.28C98.9597 19.28 98.7097 19.29 98.5297 19.31V17H105.88V18.98C105.02 19.02 104.21 19.24 103.45 19.64C102.71 20.04 101.97 20.84 101.23 22.04L98.3497 26.66V26.69C99.1097 27.15 99.7397 27.73 100.24 28.43L103.33 32.78C104.81 34.88 106.12 35.96 107.26 36.02V38H102.64C102.42 37.98 101.98 37.63 101.32 36.95C100.68 36.25 100.14 35.58 99.6997 34.94L96.7297 30.62C96.4497 30.22 96.1497 29.82 95.8297 29.42C95.5097 29.02 95.2297 28.73 94.9897 28.55H93.9097V33.08C93.9097 34.2 93.8697 35.1 93.7897 35.78C94.4297 35.72 95.1797 35.69 96.0397 35.69V38H87.4297V36.02ZM117.547 38.48C115.147 38.48 113.167 37.95 111.607 36.89C110.047 35.83 108.907 34.47 108.187 32.81C107.467 31.15 107.107 29.38 107.107 27.5C107.107 25.72 107.507 23.99 108.307 22.31C109.107 20.63 110.297 19.25 111.877 18.17C113.477 17.07 115.397 16.52 117.637 16.52C119.937 16.52 121.867 17.07 123.427 18.17C125.007 19.25 126.177 20.63 126.937 22.31C127.697 23.99 128.077 25.72 128.077 27.5C128.077 29.24 127.677 30.96 126.877 32.66C126.077 34.34 124.877 35.73 123.277 36.83C121.697 37.93 119.787 38.48 117.547 38.48ZM117.847 36.29C119.147 36.29 120.207 35.88 121.027 35.06C121.847 34.24 122.437 33.2 122.797 31.94C123.157 30.68 123.337 29.37 123.337 28.01C123.337 25.17 122.837 22.91 121.837 21.23C120.837 19.55 119.357 18.71 117.397 18.71C116.077 18.71 114.997 19.13 114.157 19.97C113.317 20.81 112.717 21.87 112.357 23.15C111.997 24.43 111.817 25.76 111.817 27.14C111.817 28.54 112.017 29.94 112.417 31.34C112.817 32.74 113.467 33.92 114.367 34.88C115.287 35.82 116.447 36.29 117.847 36.29ZM130.262 36.02C130.802 36 131.212 35.94 131.492 35.84C131.772 35.72 131.992 35.48 132.152 35.12C132.312 34.76 132.392 34.19 132.392 33.41V21.92C132.392 20.8 132.432 19.9 132.512 19.22L130.262 19.31V17H138.872V18.98C138.332 19 137.922 19.07 137.642 19.19C137.362 19.29 137.142 19.52 136.982 19.88C136.822 20.24 136.742 20.81 136.742 21.59V33.08C136.742 34.16 136.702 35.04 136.622 35.72H140.642C141.842 35.7 142.772 35.28 143.432 34.46C144.092 33.62 144.422 32.4 144.422 30.8H146.432L146.252 38H130.262V36.02ZM147.368 35.93C147.888 35.93 148.318 35.78 148.658 35.48C149.018 35.18 149.298 34.82 149.498 34.4C149.698 33.96 149.948 33.33 150.248 32.51L156.098 16.46H158.198L164.588 32.81C164.748 33.21 164.918 33.71 165.098 34.31C165.278 34.89 165.388 35.38 165.428 35.78C166.088 35.72 166.668 35.69 167.168 35.69V38H159.098V36.02C160.058 36.02 160.538 35.62 160.538 34.82C160.538 34.42 160.428 33.94 160.208 33.38L159.608 31.73L153.098 31.85L152.618 33.26C152.558 33.42 152.418 33.78 152.198 34.34C151.998 34.9 151.818 35.35 151.658 35.69C152.298 35.63 153.008 35.6 153.788 35.6V38H147.368V35.93ZM158.858 29.6L157.478 25.85C156.898 24.21 156.518 22.84 156.338 21.74H156.308C155.988 23.18 155.618 24.5 155.198 25.7L153.848 29.6H158.858Z" fill="white"/>
    <path d="M103.344 48.426V56H100.852V54.768C100.339 55.6453 99.5313 56.0933 98.43 56.112C97.6087 56.112 96.9507 55.8507 96.456 55.328C95.9707 54.796 95.728 54.0913 95.728 53.214V48.426H98.22V52.5C98.22 52.9293 98.3273 53.2653 98.542 53.508C98.766 53.7507 99.0647 53.872 99.438 53.872C99.8767 53.8627 100.222 53.704 100.474 53.396C100.726 53.0787 100.852 52.668 100.852 52.164V48.426H103.344ZM110.247 48.328C111.078 48.328 111.74 48.5893 112.235 49.112C112.739 49.6347 112.991 50.3393 112.991 51.226V56H110.513V51.94C110.513 51.5107 110.396 51.1747 110.163 50.932C109.93 50.68 109.617 50.554 109.225 50.554C108.814 50.5633 108.474 50.6987 108.203 50.96C107.942 51.2213 107.788 51.5667 107.741 51.996V56H105.249V48.426H107.741V49.658C108.012 49.2193 108.357 48.888 108.777 48.664C109.206 48.44 109.696 48.328 110.247 48.328ZM114.682 48.426H117.16V56H114.682V48.426ZM115.9 44.94C116.283 44.94 116.596 45.066 116.838 45.318C117.09 45.5607 117.216 45.878 117.216 46.27C117.216 46.6527 117.09 46.97 116.838 47.222C116.596 47.474 116.283 47.6 115.9 47.6C115.518 47.6 115.2 47.474 114.948 47.222C114.706 46.97 114.584 46.6527 114.584 46.27C114.584 45.878 114.706 45.5607 114.948 45.318C115.2 45.066 115.518 44.94 115.9 44.94ZM118.049 48.426H120.611L122.193 53.69L123.789 48.426H126.281L123.439 56H120.877L118.049 48.426ZM130.223 48.342C131.455 48.342 132.403 48.706 133.065 49.434C133.728 50.162 134.059 51.1607 134.059 52.43C134.059 52.626 134.055 52.7753 134.045 52.878H128.781C128.903 53.3073 129.113 53.6387 129.411 53.872C129.71 54.096 130.074 54.208 130.503 54.208C130.83 54.208 131.143 54.1427 131.441 54.012C131.749 53.8813 132.029 53.69 132.281 53.438L133.583 54.74C133.191 55.1787 132.715 55.5147 132.155 55.748C131.605 55.972 130.979 56.084 130.279 56.084C129.467 56.084 128.758 55.9253 128.151 55.608C127.545 55.2907 127.078 54.8427 126.751 54.264C126.434 53.6853 126.275 53.0133 126.275 52.248C126.275 51.4733 126.439 50.792 126.765 50.204C127.092 49.6067 127.554 49.1493 128.151 48.832C128.749 48.5053 129.439 48.342 130.223 48.342ZM131.637 51.548C131.637 51.1093 131.507 50.7593 131.245 50.498C130.993 50.2273 130.657 50.092 130.237 50.092C129.845 50.092 129.514 50.2227 129.243 50.484C128.982 50.7453 128.809 51.1 128.725 51.548H131.637ZM137.819 49.686C138.08 49.2473 138.416 48.9113 138.827 48.678C139.247 48.4447 139.723 48.328 140.255 48.328V50.61C140.171 50.6007 140.045 50.596 139.877 50.596C139.289 50.596 138.813 50.736 138.449 51.016C138.085 51.2867 137.875 51.66 137.819 52.136V56H135.327V48.426H137.819V49.686ZM146.397 50.82C145.417 50.3067 144.614 50.05 143.989 50.05C143.774 50.05 143.601 50.092 143.471 50.176C143.34 50.2507 143.275 50.3673 143.275 50.526C143.275 50.694 143.377 50.8293 143.583 50.932C143.788 51.0347 144.115 51.1467 144.563 51.268C145.104 51.4267 145.552 51.5853 145.907 51.744C146.271 51.8933 146.583 52.1267 146.845 52.444C147.106 52.752 147.237 53.158 147.237 53.662C147.237 54.4273 146.938 55.0293 146.341 55.468C145.753 55.8973 144.983 56.112 144.031 56.112C143.387 56.112 142.771 56.0233 142.183 55.846C141.595 55.6593 141.072 55.3887 140.615 55.034L141.399 53.424C141.828 53.7227 142.276 53.956 142.743 54.124C143.219 54.2827 143.667 54.362 144.087 54.362C144.329 54.362 144.521 54.3247 144.661 54.25C144.81 54.166 144.885 54.0493 144.885 53.9C144.885 53.7133 144.777 53.5687 144.563 53.466C144.357 53.3633 144.031 53.2513 143.583 53.13C143.051 52.9713 142.612 52.8173 142.267 52.668C141.921 52.5093 141.618 52.276 141.357 51.968C141.105 51.66 140.979 51.2587 140.979 50.764C140.979 49.9987 141.268 49.4013 141.847 48.972C142.425 48.5333 143.172 48.314 144.087 48.314C144.637 48.314 145.179 48.3887 145.711 48.538C146.252 48.6873 146.761 48.9067 147.237 49.196L146.397 50.82ZM148.575 48.426H151.053V56H148.575V48.426ZM149.793 44.94C150.176 44.94 150.488 45.066 150.731 45.318C150.983 45.5607 151.109 45.878 151.109 46.27C151.109 46.6527 150.983 46.97 150.731 47.222C150.488 47.474 150.176 47.6 149.793 47.6C149.41 47.6 149.093 47.474 148.841 47.222C148.598 46.97 148.477 46.6527 148.477 46.27C148.477 45.878 148.598 45.5607 148.841 45.318C149.093 45.066 149.41 44.94 149.793 44.94ZM157.892 55.608C157.612 55.7667 157.29 55.8927 156.926 55.986C156.562 56.07 156.193 56.112 155.82 56.112C155.073 56.112 154.466 55.8973 154 55.468C153.542 55.0387 153.314 54.446 153.314 53.69V50.442H152.264V48.79H153.314V46.69H155.792V48.79H157.752V50.442H155.792V53.298C155.792 53.83 156.011 54.096 156.45 54.096C156.72 54.096 157.042 54.012 157.416 53.844L157.892 55.608ZM163.163 56.742C162.874 57.4513 162.486 57.974 162.001 58.31C161.516 58.6553 160.914 58.828 160.195 58.828C159.775 58.828 159.383 58.7627 159.019 58.632C158.655 58.5107 158.3 58.3147 157.955 58.044L158.991 56.322C159.168 56.4713 159.336 56.5787 159.495 56.644C159.654 56.7093 159.822 56.742 159.999 56.742C160.41 56.742 160.713 56.5507 160.909 56.168L161.091 55.818L157.955 48.426H160.517L162.323 53.354L163.933 48.426H166.411L163.163 56.742Z" fill="white"/>
    <path fill-rule="evenodd" clip-rule="evenodd" d="M29.8193 68.6289L27.563 72.7419L25.3118 68.639C26.0435 68.7198 26.7753 68.7754 27.502 68.7754C28.2643 68.7754 29.0469 68.7198 29.8193 68.6289ZM36.1309 57.1436L30.8763 66.7087C30.6883 66.7441 30.4901 66.7744 30.3021 66.7997C29.367 66.9361 28.4167 67.022 27.4969 67.022C26.5771 67.022 25.6218 66.9361 24.6867 66.7997C24.5444 66.7795 24.4021 66.7492 24.2548 66.729L19.0053 57.1688C19.295 57.2042 19.5897 57.2244 19.92 57.2244C22.1763 57.2244 23.3756 56.2947 24.5647 55.3599C25.3727 54.7384 26.1807 54.1067 27.4868 54.1067C28.7928 54.1067 29.5957 54.7384 30.4088 55.3599C31.5979 56.2947 32.7972 57.2244 35.0535 57.2244C35.4448 57.2244 35.7955 57.1991 36.1309 57.1436Z" fill="#BDA588"/>
    <path fill-rule="evenodd" clip-rule="evenodd" d="M27.5032 22.4603H27.4879C21.3695 22.4653 15.81 24.9564 11.7802 28.9634C7.7656 32.9602 5.27045 38.473 5.26029 44.5466V44.582V44.5971C5.26537 50.6758 7.77069 56.2088 11.8005 60.2157C14.316 62.7119 17.4311 64.6168 20.9071 65.6982L17.7462 59.7963C16.6333 59.0889 15.6017 58.2704 14.6717 57.3457C11.3838 54.0815 9.34095 49.5642 9.33587 44.5971V44.582V44.5466C9.34095 39.5846 11.3889 35.0774 14.6666 31.8132C17.9495 28.544 22.4875 26.5127 27.4879 26.5127H27.5032H27.5388C32.5189 26.5178 37.0468 28.549 40.3296 31.8132H40.3397C43.6276 35.0774 45.6654 39.5947 45.6705 44.5668V44.582V44.6173C45.6604 49.5743 43.6276 54.0764 40.3397 57.3457C39.4911 58.1895 38.556 58.9424 37.5549 59.6094L34.3433 65.6173C37.7226 64.5259 40.7666 62.6462 43.2262 60.2006C47.2459 56.2037 49.741 50.6859 49.7461 44.6224V44.587V44.5719C49.741 38.4881 47.2408 32.9602 43.2109 28.9533L43.216 28.9482C39.1963 24.9514 33.642 22.4754 27.5388 22.4653" fill="#BDA588"/>
    <path fill-rule="evenodd" clip-rule="evenodd" d="M37.9608 23.0919C30.9836 19.4992 24.0215 19.7115 17.0341 23.0919C17.0341 19.7266 17.0341 16.5332 17.0341 13.1578C22.0701 7.22063 33.3466 7.49854 37.9608 13.1578C37.9608 15.9622 37.9608 20.2824 37.9608 23.0919ZM44.3384 15.8409V14.3604V7.10947V6.01298C44.3384 5.67444 44.0844 5.38642 43.7439 5.346L38.6418 4.70428L27.5025 0L0 11.6116L15.2097 15.5327V12.9001L15.4181 12.3342C15.9212 11.738 16.5005 11.1821 17.1205 10.6819C20.012 8.35754 23.8945 7.2459 27.716 7.28127C31.5425 7.32169 35.3437 8.51924 38.0574 10.7931C38.6164 11.263 39.1347 11.7885 39.6022 12.3544L39.8004 12.9001V15.5327L42.9918 14.7091V15.8409C42.6818 16.0582 42.4734 16.4119 42.4734 16.8212C42.4734 17.2608 42.7174 17.6398 43.068 17.8469C42.8851 17.9379 42.7072 18.0642 42.5497 18.236L42.138 22.1015C42.5497 22.435 43.0832 22.6371 43.6626 22.6371C44.2419 22.6371 44.7704 22.435 45.1973 22.1015L44.7856 18.236C44.6281 18.0642 44.4502 17.9328 44.2673 17.8469C44.623 17.6398 44.8568 17.2608 44.8568 16.8212C44.8619 16.4119 44.6535 16.0532 44.3384 15.8409ZM55 11.6116L45.6953 7.68045V14.0067L55 11.6116Z" fill="#BDA588"/>
    <path fill-rule="evenodd" clip-rule="evenodd" d="M18.2993 51.8784V24.5977H24.4432V50.8729C24.0315 51.1104 23.6555 51.3782 23.2794 51.651C22.5477 52.1765 21.8159 52.7071 20.6318 52.7071C19.6155 52.7071 18.9396 52.318 18.2993 51.8784ZM30.5515 52.2321V25.9569H36.6953V53.2377C36.0601 53.6773 35.3791 54.0714 34.3577 54.0714C33.1787 54.0714 32.447 53.5408 31.7152 53.0103C31.3391 52.7425 30.9682 52.4696 30.5515 52.2321Z" fill="#BDA588"/>
</svg>
