<svg width="177" height="73" viewBox="0 0 177 73" fill="none" xmlns="http://www.w3.org/2000/svg">
    <path d="M77.21 38.48C76.39 38.48 75.51 38.35 74.57 38.09C73.65 37.83 72.8 37.47 72.02 37.01H71.99L72.08 38.27H69.77V31.25H71.75C72.01 32.89 72.64 34.15 73.64 35.03C74.64 35.89 75.86 36.32 77.3 36.32C78.34 36.32 79.2 36.05 79.88 35.51C80.56 34.95 80.9 34.28 80.9 33.5C80.9 32.86 80.67 32.31 80.21 31.85C79.77 31.39 79.27 31.03 78.71 30.77C78.17 30.51 77.3 30.14 76.1 29.66C73.9 28.78 72.21 27.78 71.03 26.66C69.87 25.54 69.29 24.07 69.29 22.25C69.29 21.33 69.52 20.44 69.98 19.58C70.44 18.7 71.19 17.97 72.23 17.39C73.29 16.81 74.65 16.52 76.31 16.52C77.17 16.52 78.07 16.65 79.01 16.91C79.95 17.15 80.73 17.5 81.35 17.96H81.38L81.26 16.73H83.6V23.72H81.62C81.36 22.08 80.78 20.83 79.88 19.97C79 19.11 77.87 18.68 76.49 18.68C75.59 18.68 74.81 18.93 74.15 19.43C73.51 19.91 73.19 20.52 73.19 21.26C73.19 22.14 73.56 22.88 74.3 23.48C75.04 24.08 76.29 24.74 78.05 25.46C80.07 26.26 81.71 27.19 82.97 28.25C84.25 29.29 84.89 30.68 84.89 32.42C84.89 33.6 84.57 34.65 83.93 35.57C83.29 36.49 82.39 37.21 81.23 37.73C80.07 38.23 78.73 38.48 77.21 38.48ZM87.4297 36.02C87.9697 36 88.3797 35.94 88.6597 35.84C88.9397 35.72 89.1597 35.48 89.3197 35.12C89.4797 34.76 89.5597 34.19 89.5597 33.41V21.92C89.5597 20.8 89.5997 19.9 89.6797 19.22L87.4297 19.31V17H96.0397V18.98C95.4997 19 95.0897 19.07 94.8097 19.19C94.5297 19.29 94.3097 19.52 94.1497 19.88C93.9897 20.24 93.9097 20.81 93.9097 21.59V26.15H96.0697L98.3797 22.22C99.3397 20.54 100.02 19.54 100.42 19.22V19.19C99.9797 19.23 99.5997 19.26 99.2797 19.28C98.9597 19.28 98.7097 19.29 98.5297 19.31V17H105.88V18.98C105.02 19.02 104.21 19.24 103.45 19.64C102.71 20.04 101.97 20.84 101.23 22.04L98.3497 26.66V26.69C99.1097 27.15 99.7397 27.73 100.24 28.43L103.33 32.78C104.81 34.88 106.12 35.96 107.26 36.02V38H102.64C102.42 37.98 101.98 37.63 101.32 36.95C100.68 36.25 100.14 35.58 99.6997 34.94L96.7297 30.62C96.4497 30.22 96.1497 29.82 95.8297 29.42C95.5097 29.02 95.2297 28.73 94.9897 28.55H93.9097V33.08C93.9097 34.2 93.8697 35.1 93.7897 35.78C94.4297 35.72 95.1797 35.69 96.0397 35.69V38H87.4297V36.02ZM117.547 38.48C115.147 38.48 113.167 37.95 111.607 36.89C110.047 35.83 108.907 34.47 108.187 32.81C107.467 31.15 107.107 29.38 107.107 27.5C107.107 25.72 107.507 23.99 108.307 22.31C109.107 20.63 110.297 19.25 111.877 18.17C113.477 17.07 115.397 16.52 117.637 16.52C119.937 16.52 121.867 17.07 123.427 18.17C125.007 19.25 126.177 20.63 126.937 22.31C127.697 23.99 128.077 25.72 128.077 27.5C128.077 29.24 127.677 30.96 126.877 32.66C126.077 34.34 124.877 35.73 123.277 36.83C121.697 37.93 119.787 38.48 117.547 38.48ZM117.847 36.29C119.147 36.29 120.207 35.88 121.027 35.06C121.847 34.24 122.437 33.2 122.797 31.94C123.157 30.68 123.337 29.37 123.337 28.01C123.337 25.17 122.837 22.91 121.837 21.23C120.837 19.55 119.357 18.71 117.397 18.71C116.077 18.71 114.997 19.13 114.157 19.97C113.317 20.81 112.717 21.87 112.357 23.15C111.997 24.43 111.817 25.76 111.817 27.14C111.817 28.54 112.017 29.94 112.417 31.34C112.817 32.74 113.467 33.92 114.367 34.88C115.287 35.82 116.447 36.29 117.847 36.29ZM130.262 36.02C130.802 36 131.212 35.94 131.492 35.84C131.772 35.72 131.992 35.48 132.152 35.12C132.312 34.76 132.392 34.19 132.392 33.41V21.92C132.392 20.8 132.432 19.9 132.512 19.22L130.262 19.31V17H138.872V18.98C138.332 19 137.922 19.07 137.642 19.19C137.362 19.29 137.142 19.52 136.982 19.88C136.822 20.24 136.742 20.81 136.742 21.59V33.08C136.742 34.16 136.702 35.04 136.622 35.72H140.642C141.842 35.7 142.772 35.28 143.432 34.46C144.092 33.62 144.422 32.4 144.422 30.8H146.432L146.252 38H130.262V36.02ZM147.368 35.93C147.888 35.93 148.318 35.78 148.658 35.48C149.018 35.18 149.298 34.82 149.498 34.4C149.698 33.96 149.948 33.33 150.248 32.51L156.098 16.46H158.198L164.588 32.81C164.748 33.21 164.918 33.71 165.098 34.31C165.278 34.89 165.388 35.38 165.428 35.78C166.088 35.72 166.668 35.69 167.168 35.69V38H159.098V36.02C160.058 36.02 160.538 35.62 160.538 34.82C160.538 34.42 160.428 33.94 160.208 33.38L159.608 31.73L153.098 31.85L152.618 33.26C152.558 33.42 152.418 33.78 152.198 34.34C151.998 34.9 151.818 35.35 151.658 35.69C152.298 35.63 153.008 35.6 153.788 35.6V38H147.368V35.93ZM158.858 29.6L157.478 25.85C156.898 24.21 156.518 22.84 156.338 21.74H156.308C155.988 23.18 155.618 24.5 155.198 25.7L153.848 29.6H158.858Z" fill="#263053"/>
    <path opacity="0.3" d="M89.7203 46.2V56H87.4523V51.982H83.0003V56H80.7323V46.2H83.0003V50.064H87.4523V46.2H89.7203ZM91.885 48.468H94.069V56H91.885V48.468ZM92.977 47.418C92.5756 47.418 92.249 47.3013 91.997 47.068C91.745 46.8347 91.619 46.5453 91.619 46.2C91.619 45.8547 91.745 45.5653 91.997 45.332C92.249 45.0987 92.5756 44.982 92.977 44.982C93.3783 44.982 93.705 45.094 93.957 45.318C94.209 45.542 94.335 45.822 94.335 46.158C94.335 46.522 94.209 46.8253 93.957 47.068C93.705 47.3013 93.3783 47.418 92.977 47.418ZM103.866 48.468V54.74C103.866 56.1213 103.507 57.148 102.788 57.82C102.069 58.492 101.019 58.828 99.6379 58.828C98.9099 58.828 98.2192 58.7393 97.5659 58.562C96.9126 58.3847 96.3712 58.128 95.9419 57.792L96.8099 56.224C97.1272 56.4853 97.5286 56.6907 98.0139 56.84C98.4992 56.9987 98.9846 57.078 99.4699 57.078C100.226 57.078 100.781 56.9053 101.136 56.56C101.5 56.224 101.682 55.7107 101.682 55.02V54.698C101.113 55.3233 100.319 55.636 99.3019 55.636C98.6112 55.636 97.9766 55.4867 97.3979 55.188C96.8286 54.88 96.3759 54.4507 96.0399 53.9C95.7039 53.3493 95.5359 52.7147 95.5359 51.996C95.5359 51.2773 95.7039 50.6427 96.0399 50.092C96.3759 49.5413 96.8286 49.1167 97.3979 48.818C97.9766 48.51 98.6112 48.356 99.3019 48.356C100.394 48.356 101.225 48.7153 101.794 49.434V48.468H103.866ZM99.7359 53.844C100.315 53.844 100.786 53.676 101.15 53.34C101.523 52.9947 101.71 52.5467 101.71 51.996C101.71 51.4453 101.523 51.002 101.15 50.666C100.786 50.3207 100.315 50.148 99.7359 50.148C99.1572 50.148 98.6812 50.3207 98.3079 50.666C97.9346 51.002 97.7479 51.4453 97.7479 51.996C97.7479 52.5467 97.9346 52.9947 98.3079 53.34C98.6812 53.676 99.1572 53.844 99.7359 53.844ZM110.477 48.356C111.41 48.356 112.161 48.636 112.731 49.196C113.309 49.756 113.599 50.5867 113.599 51.688V56H111.415V52.024C111.415 51.4267 111.284 50.9833 111.023 50.694C110.761 50.3953 110.383 50.246 109.889 50.246C109.338 50.246 108.899 50.4187 108.573 50.764C108.246 51.1 108.083 51.604 108.083 52.276V56H105.899V45.612H108.083V49.252C108.372 48.9627 108.722 48.7433 109.133 48.594C109.543 48.4353 109.991 48.356 110.477 48.356ZM122.917 56.168C122.142 56.168 121.391 56.0653 120.663 55.86C119.944 55.6453 119.366 55.37 118.927 55.034L119.697 53.326C120.117 53.634 120.616 53.8813 121.195 54.068C121.774 54.2547 122.352 54.348 122.931 54.348C123.575 54.348 124.051 54.2547 124.359 54.068C124.667 53.872 124.821 53.6153 124.821 53.298C124.821 53.0647 124.728 52.8733 124.541 52.724C124.364 52.5653 124.13 52.4393 123.841 52.346C123.561 52.2527 123.178 52.15 122.693 52.038C121.946 51.8607 121.335 51.6833 120.859 51.506C120.383 51.3287 119.972 51.044 119.627 50.652C119.291 50.26 119.123 49.7373 119.123 49.084C119.123 48.5147 119.277 48.0013 119.585 47.544C119.893 47.0773 120.355 46.7087 120.971 46.438C121.596 46.1673 122.357 46.032 123.253 46.032C123.878 46.032 124.49 46.1067 125.087 46.256C125.684 46.4053 126.207 46.62 126.655 46.9L125.955 48.622C125.05 48.1087 124.144 47.852 123.239 47.852C122.604 47.852 122.133 47.9547 121.825 48.16C121.526 48.3653 121.377 48.636 121.377 48.972C121.377 49.308 121.55 49.56 121.895 49.728C122.25 49.8867 122.786 50.0453 123.505 50.204C124.252 50.3813 124.863 50.5587 125.339 50.736C125.815 50.9133 126.221 51.1933 126.557 51.576C126.902 51.9587 127.075 52.4767 127.075 53.13C127.075 53.69 126.916 54.2033 126.599 54.67C126.291 55.1273 125.824 55.4913 125.199 55.762C124.574 56.0327 123.813 56.168 122.917 56.168ZM132.111 56.112C131.308 56.112 130.585 55.9487 129.941 55.622C129.306 55.286 128.807 54.824 128.443 54.236C128.088 53.648 127.911 52.9807 127.911 52.234C127.911 51.4873 128.088 50.82 128.443 50.232C128.807 49.644 129.306 49.1867 129.941 48.86C130.585 48.524 131.308 48.356 132.111 48.356C132.904 48.356 133.595 48.524 134.183 48.86C134.78 49.1867 135.214 49.658 135.485 50.274L133.791 51.184C133.399 50.4933 132.834 50.148 132.097 50.148C131.528 50.148 131.056 50.3347 130.683 50.708C130.31 51.0813 130.123 51.59 130.123 52.234C130.123 52.878 130.31 53.3867 130.683 53.76C131.056 54.1333 131.528 54.32 132.097 54.32C132.844 54.32 133.408 53.9747 133.791 53.284L135.485 54.208C135.214 54.8053 134.78 55.272 134.183 55.608C133.595 55.944 132.904 56.112 132.111 56.112ZM141.266 48.356C142.199 48.356 142.95 48.636 143.52 49.196C144.098 49.756 144.388 50.5867 144.388 51.688V56H142.204V52.024C142.204 51.4267 142.073 50.9833 141.812 50.694C141.55 50.3953 141.172 50.246 140.678 50.246C140.127 50.246 139.688 50.4187 139.362 50.764C139.035 51.1 138.872 51.604 138.872 52.276V56H136.688V45.612H138.872V49.252C139.161 48.9627 139.511 48.7433 139.922 48.594C140.332 48.4353 140.78 48.356 141.266 48.356ZM150.033 56.112C149.24 56.112 148.526 55.9487 147.891 55.622C147.266 55.286 146.776 54.824 146.421 54.236C146.067 53.648 145.889 52.9807 145.889 52.234C145.889 51.4873 146.067 50.82 146.421 50.232C146.776 49.644 147.266 49.1867 147.891 48.86C148.526 48.524 149.24 48.356 150.033 48.356C150.827 48.356 151.536 48.524 152.161 48.86C152.787 49.1867 153.277 49.644 153.631 50.232C153.986 50.82 154.163 51.4873 154.163 52.234C154.163 52.9807 153.986 53.648 153.631 54.236C153.277 54.824 152.787 55.286 152.161 55.622C151.536 55.9487 150.827 56.112 150.033 56.112ZM150.033 54.32C150.593 54.32 151.051 54.1333 151.405 53.76C151.769 53.3773 151.951 52.8687 151.951 52.234C151.951 51.5993 151.769 51.0953 151.405 50.722C151.051 50.3393 150.593 50.148 150.033 50.148C149.473 50.148 149.011 50.3393 148.647 50.722C148.283 51.0953 148.101 51.5993 148.101 52.234C148.101 52.8687 148.283 53.3773 148.647 53.76C149.011 54.1333 149.473 54.32 150.033 54.32ZM159.207 56.112C158.414 56.112 157.7 55.9487 157.065 55.622C156.44 55.286 155.95 54.824 155.595 54.236C155.241 53.648 155.063 52.9807 155.063 52.234C155.063 51.4873 155.241 50.82 155.595 50.232C155.95 49.644 156.44 49.1867 157.065 48.86C157.7 48.524 158.414 48.356 159.207 48.356C160.001 48.356 160.71 48.524 161.335 48.86C161.961 49.1867 162.451 49.644 162.805 50.232C163.16 50.82 163.337 51.4873 163.337 52.234C163.337 52.9807 163.16 53.648 162.805 54.236C162.451 54.824 161.961 55.286 161.335 55.622C160.71 55.9487 160.001 56.112 159.207 56.112ZM159.207 54.32C159.767 54.32 160.225 54.1333 160.579 53.76C160.943 53.3773 161.125 52.8687 161.125 52.234C161.125 51.5993 160.943 51.0953 160.579 50.722C160.225 50.3393 159.767 50.148 159.207 50.148C158.647 50.148 158.185 50.3393 157.821 50.722C157.457 51.0953 157.275 51.5993 157.275 52.234C157.275 52.8687 157.457 53.3773 157.821 53.76C158.185 54.1333 158.647 54.32 159.207 54.32ZM164.797 45.612H166.981V56H164.797V45.612Z" fill="#263053"/>
    <path fill-rule="evenodd" clip-rule="evenodd" d="M29.8193 68.6289L27.563 72.7419L25.3118 68.639C26.0435 68.7198 26.7753 68.7754 27.502 68.7754C28.2643 68.7754 29.0469 68.7198 29.8193 68.6289ZM36.1309 57.1436L30.8763 66.7087C30.6883 66.7441 30.4901 66.7744 30.3021 66.7997C29.367 66.9361 28.4167 67.022 27.4969 67.022C26.5771 67.022 25.6218 66.9361 24.6867 66.7997C24.5444 66.7795 24.4021 66.7492 24.2548 66.729L19.0053 57.1688C19.295 57.2042 19.5897 57.2244 19.92 57.2244C22.1763 57.2244 23.3756 56.2947 24.5647 55.3599C25.3727 54.7384 26.1807 54.1067 27.4868 54.1067C28.7928 54.1067 29.5957 54.7384 30.4088 55.3599C31.5979 56.2947 32.7972 57.2244 35.0535 57.2244C35.4448 57.2244 35.7955 57.1991 36.1309 57.1436Z" fill="#EB1C24"/>
    <path fill-rule="evenodd" clip-rule="evenodd" d="M27.5032 22.4603H27.4879C21.3695 22.4653 15.81 24.9564 11.7802 28.9634C7.7656 32.9602 5.27045 38.473 5.26029 44.5466V44.582V44.5971C5.26537 50.6758 7.77069 56.2088 11.8005 60.2157C14.316 62.7119 17.4311 64.6168 20.9071 65.6982L17.7462 59.7963C16.6333 59.0889 15.6017 58.2704 14.6717 57.3457C11.3838 54.0815 9.34095 49.5642 9.33587 44.5971V44.582V44.5466C9.34095 39.5846 11.3889 35.0774 14.6666 31.8132C17.9495 28.544 22.4875 26.5127 27.4879 26.5127H27.5032H27.5388C32.5189 26.5178 37.0468 28.549 40.3296 31.8132H40.3397C43.6276 35.0774 45.6654 39.5947 45.6705 44.5668V44.582V44.6173C45.6604 49.5743 43.6276 54.0764 40.3397 57.3457C39.4911 58.1895 38.556 58.9424 37.5549 59.6094L34.3433 65.6173C37.7226 64.5259 40.7666 62.6462 43.2262 60.2006C47.2459 56.2037 49.741 50.6859 49.7461 44.6224V44.587V44.5719C49.741 38.4881 47.2408 32.9602 43.2109 28.9533L43.216 28.9482C39.1963 24.9514 33.642 22.4754 27.5388 22.4653" fill="#EB1C24"/>
    <path fill-rule="evenodd" clip-rule="evenodd" d="M37.9608 23.0919C30.9836 19.4992 24.0215 19.7115 17.0341 23.0919C17.0341 19.7266 17.0341 16.5332 17.0341 13.1578C22.0701 7.22063 33.3466 7.49854 37.9608 13.1578C37.9608 15.9622 37.9608 20.2824 37.9608 23.0919ZM44.3384 15.8409V14.3604V7.10947V6.01298C44.3384 5.67444 44.0844 5.38642 43.7439 5.346L38.6418 4.70428L27.5025 0L0 11.6116L15.2097 15.5327V12.9001L15.4181 12.3342C15.9212 11.738 16.5005 11.1821 17.1205 10.6819C20.012 8.35754 23.8945 7.2459 27.716 7.28127C31.5425 7.32169 35.3437 8.51924 38.0574 10.7931C38.6164 11.263 39.1347 11.7885 39.6022 12.3544L39.8004 12.9001V15.5327L42.9918 14.7091V15.8409C42.6818 16.0582 42.4734 16.4119 42.4734 16.8212C42.4734 17.2608 42.7174 17.6398 43.068 17.8469C42.8851 17.9379 42.7072 18.0642 42.5497 18.236L42.138 22.1015C42.5497 22.435 43.0832 22.6371 43.6626 22.6371C44.2419 22.6371 44.7704 22.435 45.1973 22.1015L44.7856 18.236C44.6281 18.0642 44.4502 17.9328 44.2673 17.8469C44.623 17.6398 44.8568 17.2608 44.8568 16.8212C44.8619 16.4119 44.6535 16.0532 44.3384 15.8409ZM55 11.6116L45.6953 7.68045V14.0067L55 11.6116Z" fill="#EB1C24"/>
    <path fill-rule="evenodd" clip-rule="evenodd" d="M18.2993 51.8784V24.5977H24.4432V50.8729C24.0315 51.1104 23.6555 51.3782 23.2794 51.651C22.5477 52.1765 21.8159 52.7071 20.6318 52.7071C19.6155 52.7071 18.9396 52.318 18.2993 51.8784ZM30.5515 52.2321V25.9569H36.6953V53.2377C36.0601 53.6773 35.3791 54.0714 34.3577 54.0714C33.1787 54.0714 32.447 53.5408 31.7152 53.0103C31.3391 52.7425 30.9682 52.4696 30.5515 52.2321Z" fill="#EB1C24"/>
</svg>
