<svg width="177" height="73" viewBox="0 0 177 73" fill="none" xmlns="http://www.w3.org/2000/svg">
    <path d="M69.53 34.91C69.01 34.27 68.75 33.7 68.75 33.2C68.75 32.68 69.18 32 70.04 31.16C70.54 30.68 71.07 30.44 71.63 30.44C72.19 30.44 72.97 30.94 73.97 31.94C74.25 32.28 74.65 32.61 75.17 32.93C75.69 33.23 76.17 33.38 76.61 33.38C78.47 33.38 79.4 32.62 79.4 31.1C79.4 30.64 79.14 30.26 78.62 29.96C78.12 29.64 77.49 29.41 76.73 29.27C75.97 29.13 75.15 28.91 74.27 28.61C73.39 28.29 72.57 27.92 71.81 27.5C71.05 27.08 70.41 26.42 69.89 25.52C69.39 24.6 69.14 23.5 69.14 22.22C69.14 20.46 69.79 18.93 71.09 17.63C72.41 16.31 74.2 15.65 76.46 15.65C77.66 15.65 78.75 15.81 79.73 16.13C80.73 16.43 81.42 16.74 81.8 17.06L82.55 17.63C83.17 18.21 83.48 18.7 83.48 19.1C83.48 19.5 83.24 20.05 82.76 20.75C82.08 21.75 81.38 22.25 80.66 22.25C80.24 22.25 79.72 22.05 79.1 21.65C79.04 21.61 78.92 21.51 78.74 21.35C78.58 21.19 78.43 21.06 78.29 20.96C77.87 20.7 77.33 20.57 76.67 20.57C76.03 20.57 75.49 20.73 75.05 21.05C74.63 21.35 74.42 21.78 74.42 22.34C74.42 22.88 74.67 23.32 75.17 23.66C75.69 24 76.33 24.23 77.09 24.35C77.85 24.47 78.68 24.66 79.58 24.92C80.48 25.16 81.31 25.46 82.07 25.82C82.83 26.18 83.46 26.81 83.96 27.71C84.48 28.59 84.74 29.68 84.74 30.98C84.74 32.28 84.48 33.43 83.96 34.43C83.44 35.41 82.76 36.17 81.92 36.71C80.3 37.77 78.57 38.3 76.73 38.3C75.79 38.3 74.9 38.19 74.06 37.97C73.22 37.73 72.54 37.44 72.02 37.1C70.96 36.46 70.22 35.84 69.8 35.24L69.53 34.91ZM96.1102 26.96C99.1702 29.9 101.34 32.11 102.62 33.59C103.28 34.33 103.61 34.96 103.61 35.48C103.61 35.98 103.21 36.58 102.41 37.28C101.61 37.96 100.95 38.3 100.43 38.3C99.9302 38.3 99.3202 37.88 98.6002 37.04L92.0002 29.51V35.36C92.0002 35.84 91.9802 36.19 91.9402 36.41C91.9202 36.63 91.8302 36.89 91.6702 37.19C91.3902 37.73 90.6102 38 89.3302 38C87.9302 38 87.1102 37.62 86.8702 36.86C86.7502 36.54 86.6902 36.03 86.6902 35.33V18.65C86.6902 18.19 86.7002 17.85 86.7202 17.63C86.7602 17.39 86.8602 17.12 87.0202 16.82C87.3002 16.28 88.0802 16.01 89.3602 16.01C90.7602 16.01 91.5902 16.38 91.8502 17.12C91.9502 17.46 92.0002 17.98 92.0002 18.68V24.41C94.7202 21.35 96.9202 18.84 98.6002 16.88C99.3002 16.06 99.9102 15.65 100.43 15.65C100.95 15.65 101.61 16 102.41 16.7C103.21 17.38 103.61 17.98 103.61 18.5C103.61 19 103.31 19.6 102.71 20.3C101.55 21.64 99.7502 23.48 97.3102 25.82L96.1102 26.96ZM114.061 15.74C117.021 15.74 119.591 16.81 121.771 18.95C123.951 21.09 125.041 23.75 125.041 26.93C125.041 30.09 124.001 32.79 121.921 35.03C119.841 37.25 117.281 38.36 114.241 38.36C111.201 38.36 108.611 37.26 106.471 35.06C104.351 32.86 103.291 30.24 103.291 27.2C103.291 25.54 103.591 23.99 104.191 22.55C104.791 21.09 105.591 19.87 106.591 18.89C107.591 17.91 108.741 17.14 110.041 16.58C111.341 16.02 112.681 15.74 114.061 15.74ZM108.601 27.05C108.601 28.83 109.171 30.28 110.311 31.4C111.471 32.5 112.761 33.05 114.181 33.05C115.601 33.05 116.881 32.51 118.021 31.43C119.161 30.35 119.731 28.9 119.731 27.08C119.731 25.26 119.151 23.8 117.991 22.7C116.851 21.6 115.571 21.05 114.151 21.05C112.731 21.05 111.451 21.61 110.311 22.73C109.171 23.83 108.601 25.27 108.601 27.05ZM132.313 33.56H140.473C141.133 33.56 141.613 33.64 141.913 33.8C142.213 33.94 142.413 34.17 142.513 34.49C142.613 34.81 142.663 35.24 142.663 35.78C142.663 36.3 142.613 36.72 142.513 37.04C142.413 37.36 142.243 37.58 142.003 37.7C141.623 37.9 141.103 38 140.443 38H129.643C128.243 38 127.423 37.62 127.183 36.86C127.063 36.54 127.003 36.03 127.003 35.33V18.65C127.003 18.19 127.013 17.85 127.033 17.63C127.073 17.39 127.173 17.12 127.333 16.82C127.613 16.28 128.393 16.01 129.673 16.01C131.073 16.01 131.903 16.38 132.163 17.12C132.263 17.46 132.313 17.98 132.313 18.68V33.56ZM157.3 17.57L165.4 34.31C165.74 34.99 165.91 35.5 165.91 35.84C165.91 36.56 165.33 37.21 164.17 37.79C163.49 38.13 162.95 38.3 162.55 38.3C162.17 38.3 161.85 38.21 161.59 38.03C161.35 37.85 161.17 37.66 161.05 37.46C160.95 37.26 160.8 36.96 160.6 36.56L159.04 33.32H150.73L149.17 36.56C148.97 36.96 148.81 37.25 148.69 37.43C148.59 37.61 148.41 37.8 148.15 38C147.91 38.18 147.59 38.27 147.19 38.27C146.81 38.27 146.28 38.1 145.6 37.76C144.44 37.2 143.86 36.56 143.86 35.84C143.86 35.5 144.03 34.99 144.37 34.31L152.47 17.54C152.69 17.08 153.02 16.71 153.46 16.43C153.92 16.15 154.4 16.01 154.9 16.01C155.98 16.01 156.78 16.53 157.3 17.57ZM154.87 24.77L152.89 28.88H156.88L154.87 24.77Z" fill="white"/>
    <path opacity="0.6" d="M90.847 57.642C91.0337 57.8193 91.127 58.02 91.127 58.244C91.127 58.4587 91.043 58.65 90.875 58.818C90.7163 58.9767 90.525 59.056 90.301 59.056C90.0677 59.056 89.853 58.958 89.657 58.762L84.995 54.394V58.174C84.995 58.4447 84.911 58.664 84.743 58.832C84.5843 59 84.365 59.084 84.085 59.084C83.8143 59.084 83.595 59 83.427 58.832C83.2683 58.664 83.189 58.4447 83.189 58.174V49.956C83.189 49.6853 83.2683 49.4707 83.427 49.312C83.595 49.144 83.8143 49.06 84.085 49.06C84.365 49.06 84.5843 49.144 84.743 49.312C84.911 49.4707 84.995 49.6853 84.995 49.956V53.554L89.503 49.326C89.671 49.158 89.8623 49.074 90.077 49.074C90.2917 49.074 90.4783 49.158 90.637 49.326C90.805 49.4847 90.889 49.6713 90.889 49.886C90.889 50.1007 90.7957 50.2967 90.609 50.474L86.843 53.918L90.847 57.642ZM93.1452 59.084C92.8932 59.084 92.6832 59.014 92.5152 58.874C92.3565 58.7247 92.2772 58.5147 92.2772 58.244V52.84C92.2772 52.5693 92.3565 52.364 92.5152 52.224C92.6832 52.084 92.8932 52.014 93.1452 52.014C93.3972 52.014 93.6072 52.084 93.7752 52.224C93.9432 52.364 94.0272 52.5693 94.0272 52.84V58.244C94.0272 58.5147 93.9432 58.7247 93.7752 58.874C93.6072 59.014 93.3972 59.084 93.1452 59.084ZM93.1452 50.768C92.8279 50.768 92.5759 50.684 92.3892 50.516C92.2025 50.3387 92.1092 50.11 92.1092 49.83C92.1092 49.55 92.2025 49.326 92.3892 49.158C92.5759 48.99 92.8279 48.906 93.1452 48.906C93.4532 48.906 93.7005 48.99 93.8872 49.158C94.0832 49.326 94.1812 49.55 94.1812 49.83C94.1812 50.11 94.0879 50.3387 93.9012 50.516C93.7145 50.684 93.4625 50.768 93.1452 50.768ZM99.8079 51.986C100.629 51.986 101.241 52.2193 101.642 52.686C102.043 53.1527 102.244 53.8573 102.244 54.8V58.244C102.244 58.5053 102.165 58.7107 102.006 58.86C101.857 59.0093 101.647 59.084 101.376 59.084C101.105 59.084 100.891 59.0093 100.732 58.86C100.573 58.7107 100.494 58.5053 100.494 58.244V54.898C100.494 54.366 100.391 53.9787 100.186 53.736C99.9899 53.4933 99.6772 53.372 99.2479 53.372C98.7439 53.372 98.3379 53.5307 98.0299 53.848C97.7312 54.1653 97.5819 54.59 97.5819 55.122V58.244C97.5819 58.5053 97.5025 58.7107 97.3439 58.86C97.1852 59.0093 96.9705 59.084 96.6999 59.084C96.4292 59.084 96.2145 59.0093 96.0559 58.86C95.9065 58.7107 95.8319 58.5053 95.8319 58.244V52.826C95.8319 52.5833 95.9112 52.3873 96.0699 52.238C96.2285 52.0887 96.4432 52.014 96.7139 52.014C96.9565 52.014 97.1525 52.0887 97.3019 52.238C97.4605 52.378 97.5399 52.5647 97.5399 52.798V53.176C97.7732 52.7933 98.0859 52.4993 98.4779 52.294C98.8699 52.0887 99.3132 51.986 99.8079 51.986ZM109.733 49.06C109.995 49.06 110.209 49.1347 110.377 49.284C110.545 49.4333 110.629 49.6293 110.629 49.872V58.244C110.629 58.496 110.55 58.6967 110.391 58.846C110.233 58.9953 110.023 59.07 109.761 59.07C109.5 59.07 109.29 58.9953 109.131 58.846C108.973 58.6967 108.893 58.496 108.893 58.244V57.894C108.688 58.2767 108.389 58.5753 107.997 58.79C107.615 59.0047 107.176 59.112 106.681 59.112C106.093 59.112 105.566 58.9627 105.099 58.664C104.642 58.3653 104.283 57.9453 104.021 57.404C103.769 56.8533 103.643 56.2233 103.643 55.514C103.643 54.8047 103.769 54.184 104.021 53.652C104.283 53.12 104.642 52.7093 105.099 52.42C105.557 52.1307 106.084 51.986 106.681 51.986C107.176 51.986 107.615 52.0887 107.997 52.294C108.38 52.4993 108.674 52.7887 108.879 53.162V49.844C108.879 49.6107 108.954 49.424 109.103 49.284C109.262 49.1347 109.472 49.06 109.733 49.06ZM107.143 57.754C107.703 57.754 108.133 57.5627 108.431 57.18C108.739 56.7973 108.893 56.2513 108.893 55.542C108.893 54.8327 108.739 54.2913 108.431 53.918C108.133 53.5353 107.708 53.344 107.157 53.344C106.597 53.344 106.163 53.5307 105.855 53.904C105.547 54.2773 105.393 54.814 105.393 55.514C105.393 56.2233 105.547 56.774 105.855 57.166C106.163 57.558 106.593 57.754 107.143 57.754ZM117.848 57.124C118.006 57.124 118.132 57.1847 118.226 57.306C118.328 57.4273 118.38 57.5907 118.38 57.796C118.38 58.0853 118.207 58.328 117.862 58.524C117.544 58.7013 117.185 58.846 116.784 58.958C116.382 59.0607 116 59.112 115.636 59.112C114.534 59.112 113.662 58.7947 113.018 58.16C112.374 57.5253 112.052 56.6573 112.052 55.556C112.052 54.856 112.192 54.2353 112.472 53.694C112.752 53.1527 113.144 52.7327 113.648 52.434C114.161 52.1353 114.74 51.986 115.384 51.986C116 51.986 116.536 52.1213 116.994 52.392C117.451 52.6627 117.806 53.0453 118.058 53.54C118.31 54.0347 118.436 54.618 118.436 55.29C118.436 55.6913 118.258 55.892 117.904 55.892H113.774C113.83 56.536 114.012 57.012 114.32 57.32C114.628 57.6187 115.076 57.768 115.664 57.768C115.962 57.768 116.224 57.7307 116.448 57.656C116.681 57.5813 116.942 57.4787 117.232 57.348C117.512 57.1987 117.717 57.124 117.848 57.124ZM115.426 53.218C114.95 53.218 114.567 53.3673 114.278 53.666C113.998 53.9647 113.83 54.394 113.774 54.954H116.938C116.919 54.3847 116.779 53.9553 116.518 53.666C116.256 53.3673 115.892 53.218 115.426 53.218ZM123.689 52.014C123.932 51.9953 124.123 52.0467 124.263 52.168C124.403 52.2893 124.473 52.4713 124.473 52.714C124.473 52.966 124.412 53.1527 124.291 53.274C124.17 53.3953 123.95 53.4747 123.633 53.512L123.213 53.554C122.662 53.61 122.256 53.7967 121.995 54.114C121.743 54.4313 121.617 54.828 121.617 55.304V58.244C121.617 58.5147 121.533 58.7247 121.365 58.874C121.197 59.014 120.987 59.084 120.735 59.084C120.483 59.084 120.273 59.014 120.105 58.874C119.946 58.7247 119.867 58.5147 119.867 58.244V52.826C119.867 52.5647 119.946 52.364 120.105 52.224C120.273 52.084 120.478 52.014 120.721 52.014C120.964 52.014 121.16 52.084 121.309 52.224C121.458 52.3547 121.533 52.546 121.533 52.798V53.358C121.71 52.9473 121.972 52.63 122.317 52.406C122.672 52.182 123.064 52.056 123.493 52.028L123.689 52.014ZM130.886 52.014C131.147 52.014 131.357 52.0887 131.516 52.238C131.674 52.3873 131.754 52.588 131.754 52.84V58.37C131.754 59.4433 131.455 60.2553 130.858 60.806C130.26 61.3567 129.378 61.632 128.212 61.632C127.194 61.632 126.345 61.4407 125.664 61.058C125.318 60.8527 125.146 60.6053 125.146 60.316C125.146 60.1107 125.192 59.9473 125.286 59.826C125.388 59.7047 125.519 59.644 125.678 59.644C125.762 59.644 125.864 59.6627 125.986 59.7C126.107 59.7467 126.233 59.798 126.364 59.854C126.7 59.994 126.998 60.1013 127.26 60.176C127.53 60.2507 127.838 60.288 128.184 60.288C129.406 60.288 130.018 59.6907 130.018 58.496V57.6C129.812 57.9827 129.514 58.2813 129.122 58.496C128.73 58.7013 128.282 58.804 127.778 58.804C127.18 58.804 126.648 58.664 126.182 58.384C125.724 58.0947 125.365 57.6933 125.104 57.18C124.842 56.6667 124.712 56.074 124.712 55.402C124.712 54.73 124.838 54.1373 125.09 53.624C125.351 53.1013 125.715 52.7 126.182 52.42C126.648 52.1307 127.18 51.986 127.778 51.986C128.282 51.986 128.73 52.0933 129.122 52.308C129.514 52.5133 129.812 52.8073 130.018 53.19V52.826C130.018 52.5833 130.097 52.3873 130.256 52.238C130.414 52.0887 130.624 52.014 130.886 52.014ZM128.24 57.446C128.8 57.446 129.234 57.264 129.542 56.9C129.859 56.536 130.018 56.0367 130.018 55.402C130.018 54.758 129.859 54.254 129.542 53.89C129.234 53.526 128.8 53.344 128.24 53.344C127.689 53.344 127.255 53.526 126.938 53.89C126.62 54.254 126.462 54.758 126.462 55.402C126.462 56.0367 126.62 56.536 126.938 56.9C127.255 57.264 127.689 57.446 128.24 57.446ZM136.534 51.986C137.486 51.986 138.191 52.224 138.648 52.7C139.115 53.1667 139.348 53.8807 139.348 54.842V58.258C139.348 58.51 139.274 58.7107 139.124 58.86C138.975 59 138.77 59.07 138.508 59.07C138.266 59.07 138.065 58.9953 137.906 58.846C137.757 58.6967 137.682 58.5007 137.682 58.258V57.95C137.524 58.314 137.272 58.5987 136.926 58.804C136.59 59.0093 136.198 59.112 135.75 59.112C135.293 59.112 134.878 59.0187 134.504 58.832C134.131 58.6453 133.837 58.3887 133.622 58.062C133.408 57.7353 133.3 57.3713 133.3 56.97C133.3 56.466 133.426 56.0693 133.678 55.78C133.94 55.4907 134.36 55.2807 134.938 55.15C135.517 55.0193 136.315 54.954 137.332 54.954H137.682V54.632C137.682 54.1747 137.584 53.8433 137.388 53.638C137.192 53.4233 136.875 53.316 136.436 53.316C136.166 53.316 135.89 53.358 135.61 53.442C135.33 53.5167 134.999 53.6287 134.616 53.778C134.374 53.8993 134.196 53.96 134.084 53.96C133.916 53.96 133.776 53.8993 133.664 53.778C133.562 53.6567 133.51 53.498 133.51 53.302C133.51 53.1433 133.548 53.008 133.622 52.896C133.706 52.7747 133.842 52.6627 134.028 52.56C134.355 52.3827 134.742 52.2427 135.19 52.14C135.648 52.0373 136.096 51.986 136.534 51.986ZM136.1 57.852C136.567 57.852 136.945 57.698 137.234 57.39C137.533 57.0727 137.682 56.6667 137.682 56.172V55.878H137.43C136.805 55.878 136.32 55.906 135.974 55.962C135.629 56.018 135.382 56.116 135.232 56.256C135.083 56.396 135.008 56.5873 135.008 56.83C135.008 57.1287 135.111 57.376 135.316 57.572C135.531 57.7587 135.792 57.852 136.1 57.852ZM144.949 52.014C145.191 51.9953 145.383 52.0467 145.523 52.168C145.663 52.2893 145.733 52.4713 145.733 52.714C145.733 52.966 145.672 53.1527 145.551 53.274C145.429 53.3953 145.21 53.4747 144.893 53.512L144.473 53.554C143.922 53.61 143.516 53.7967 143.255 54.114C143.003 54.4313 142.877 54.828 142.877 55.304V58.244C142.877 58.5147 142.793 58.7247 142.625 58.874C142.457 59.014 142.247 59.084 141.995 59.084C141.743 59.084 141.533 59.014 141.365 58.874C141.206 58.7247 141.127 58.5147 141.127 58.244V52.826C141.127 52.5647 141.206 52.364 141.365 52.224C141.533 52.084 141.738 52.014 141.981 52.014C142.223 52.014 142.419 52.084 142.569 52.224C142.718 52.3547 142.793 52.546 142.793 52.798V53.358C142.97 52.9473 143.231 52.63 143.577 52.406C143.931 52.182 144.323 52.056 144.753 52.028L144.949 52.014ZM150.671 57.782C151.138 57.81 151.371 58.02 151.371 58.412C151.371 58.636 151.278 58.8087 151.091 58.93C150.914 59.042 150.657 59.0887 150.321 59.07L149.943 59.042C148.375 58.93 147.591 58.09 147.591 56.522V53.47H146.891C146.639 53.47 146.443 53.414 146.303 53.302C146.172 53.19 146.107 53.0267 146.107 52.812C146.107 52.5973 146.172 52.434 146.303 52.322C146.443 52.21 146.639 52.154 146.891 52.154H147.591V50.866C147.591 50.614 147.67 50.4133 147.829 50.264C147.988 50.1147 148.202 50.04 148.473 50.04C148.734 50.04 148.944 50.1147 149.103 50.264C149.262 50.4133 149.341 50.614 149.341 50.866V52.154H150.531C150.783 52.154 150.974 52.21 151.105 52.322C151.245 52.434 151.315 52.5973 151.315 52.812C151.315 53.0267 151.245 53.19 151.105 53.302C150.974 53.414 150.783 53.47 150.531 53.47H149.341V56.648C149.341 57.3387 149.658 57.7073 150.293 57.754L150.671 57.782ZM157.701 57.124C157.86 57.124 157.986 57.1847 158.079 57.306C158.182 57.4273 158.233 57.5907 158.233 57.796C158.233 58.0853 158.06 58.328 157.715 58.524C157.398 58.7013 157.038 58.846 156.637 58.958C156.236 59.0607 155.853 59.112 155.489 59.112C154.388 59.112 153.515 58.7947 152.871 58.16C152.227 57.5253 151.905 56.6573 151.905 55.556C151.905 54.856 152.045 54.2353 152.325 53.694C152.605 53.1527 152.997 52.7327 153.501 52.434C154.014 52.1353 154.593 51.986 155.237 51.986C155.853 51.986 156.39 52.1213 156.847 52.392C157.304 52.6627 157.659 53.0453 157.911 53.54C158.163 54.0347 158.289 54.618 158.289 55.29C158.289 55.6913 158.112 55.892 157.757 55.892H153.627C153.683 56.536 153.865 57.012 154.173 57.32C154.481 57.6187 154.929 57.768 155.517 57.768C155.816 57.768 156.077 57.7307 156.301 57.656C156.534 57.5813 156.796 57.4787 157.085 57.348C157.365 57.1987 157.57 57.124 157.701 57.124ZM155.279 53.218C154.803 53.218 154.42 53.3673 154.131 53.666C153.851 53.9647 153.683 54.394 153.627 54.954H156.791C156.772 54.3847 156.632 53.9553 156.371 53.666C156.11 53.3673 155.746 53.218 155.279 53.218ZM163.697 51.986C164.518 51.986 165.129 52.2193 165.531 52.686C165.932 53.1527 166.133 53.8573 166.133 54.8V58.244C166.133 58.5053 166.053 58.7107 165.895 58.86C165.745 59.0093 165.535 59.084 165.265 59.084C164.994 59.084 164.779 59.0093 164.621 58.86C164.462 58.7107 164.383 58.5053 164.383 58.244V54.898C164.383 54.366 164.28 53.9787 164.075 53.736C163.879 53.4933 163.566 53.372 163.137 53.372C162.633 53.372 162.227 53.5307 161.919 53.848C161.62 54.1653 161.471 54.59 161.471 55.122V58.244C161.471 58.5053 161.391 58.7107 161.233 58.86C161.074 59.0093 160.859 59.084 160.589 59.084C160.318 59.084 160.103 59.0093 159.945 58.86C159.795 58.7107 159.721 58.5053 159.721 58.244V52.826C159.721 52.5833 159.8 52.3873 159.959 52.238C160.117 52.0887 160.332 52.014 160.603 52.014C160.845 52.014 161.041 52.0887 161.191 52.238C161.349 52.378 161.429 52.5647 161.429 52.798V53.176C161.662 52.7933 161.975 52.4993 162.367 52.294C162.759 52.0887 163.202 51.986 163.697 51.986Z" fill="white"/>
    <path fill-rule="evenodd" clip-rule="evenodd" d="M29.8203 68.629L27.564 72.7421L25.3127 68.6392C26.0445 68.72 26.7763 68.7756 27.503 68.7756C28.2653 68.7756 29.0478 68.72 29.8203 68.629ZM36.1318 57.1437L30.8773 66.7089C30.6893 66.7443 30.4911 66.7746 30.303 66.7999C29.368 66.9363 28.4177 67.0222 27.4979 67.0222C26.5781 67.0222 25.6227 66.9363 24.6877 66.7999C24.5454 66.7797 24.4031 66.7494 24.2557 66.7291L19.0063 57.169C19.2959 57.2044 19.5907 57.2246 19.921 57.2246C22.1773 57.2246 23.3766 56.2948 24.5657 55.3601C25.3737 54.7385 26.1817 54.1069 27.4877 54.1069C28.7938 54.1069 29.5967 54.7385 30.4098 55.3601C31.5989 56.2948 32.7982 57.2246 35.0545 57.2246C35.4458 57.2246 35.7964 57.1993 36.1318 57.1437Z" fill="white"/>
    <path fill-rule="evenodd" clip-rule="evenodd" d="M27.5022 22.4604H27.487C21.3685 22.4655 15.8091 24.9566 11.7792 28.9636C7.76463 32.9604 5.26948 38.4732 5.25932 44.5468V44.5822V44.5973C5.2644 50.676 7.76971 56.2089 11.7996 60.2159C14.315 62.7121 17.4301 64.617 20.9061 65.6983L17.7452 59.7965C16.6323 59.0891 15.6007 58.2705 14.6708 57.3459C11.3828 54.0817 9.33998 49.5643 9.3349 44.5973V44.5822V44.5468C9.33998 39.5848 11.3879 35.0776 14.6657 31.8134C17.9485 28.5442 22.4865 26.5129 27.487 26.5129H27.5022H27.5378C32.5179 26.518 37.0458 28.5492 40.3286 31.8134H40.3388C43.6267 35.0776 45.6645 39.5949 45.6695 44.567V44.5822V44.6175C45.6594 49.5745 43.6267 54.0766 40.3388 57.3459C39.4901 58.1897 38.5551 58.9426 37.554 59.6096L34.3423 65.6175C37.7217 64.5261 40.7656 62.6464 43.2252 60.2008C47.2449 56.2039 49.74 50.6861 49.7451 44.6226V44.5872V44.5721C49.74 38.4883 47.2398 32.9604 43.21 28.9535L43.215 28.9484C39.1954 24.9515 33.641 22.4756 27.5378 22.4655" fill="white"/>
    <path fill-rule="evenodd" clip-rule="evenodd" d="M37.9608 23.0919C30.9836 19.4992 24.0215 19.7115 17.0341 23.0919C17.0341 19.7266 17.0341 16.5332 17.0341 13.1578C22.0701 7.22063 33.3466 7.49854 37.9608 13.1578C37.9608 15.9622 37.9608 20.2824 37.9608 23.0919ZM44.3384 15.8409V14.3604V7.10947V6.01298C44.3384 5.67444 44.0844 5.38642 43.7439 5.346L38.6418 4.70428L27.5025 0L0 11.6116L15.2097 15.5327V12.9001L15.4181 12.3342C15.9212 11.738 16.5005 11.1821 17.1205 10.6819C20.012 8.35754 23.8945 7.2459 27.716 7.28127C31.5425 7.32169 35.3437 8.51924 38.0574 10.7931C38.6164 11.263 39.1347 11.7885 39.6022 12.3544L39.8004 12.9001V15.5327L42.9918 14.7091V15.8409C42.6818 16.0582 42.4734 16.4119 42.4734 16.8212C42.4734 17.2608 42.7174 17.6398 43.068 17.8469C42.8851 17.9379 42.7072 18.0642 42.5497 18.236L42.138 22.1015C42.5497 22.435 43.0832 22.6371 43.6626 22.6371C44.2419 22.6371 44.7704 22.435 45.1973 22.1015L44.7856 18.236C44.6281 18.0642 44.4502 17.9328 44.2673 17.8469C44.623 17.6398 44.8568 17.2608 44.8568 16.8212C44.8619 16.4119 44.6535 16.0532 44.3384 15.8409ZM55 11.6116L45.6953 7.68045V14.0067L55 11.6116Z" fill="white"/>
    <path fill-rule="evenodd" clip-rule="evenodd" d="M18.2993 51.8784V24.5977H24.4432V50.8729C24.0315 51.1104 23.6555 51.3782 23.2794 51.651C22.5477 52.1765 21.8159 52.7071 20.6318 52.7071C19.6155 52.7071 18.9396 52.318 18.2993 51.8784ZM30.5515 52.2321V25.9569H36.6953V53.2377C36.0601 53.6773 35.3791 54.0714 34.3577 54.0714C33.1787 54.0714 32.447 53.5408 31.7152 53.0103C31.3391 52.7425 30.9682 52.4696 30.5515 52.2321Z" fill="white"/>
</svg>
