<?xml version="1.0" standalone="no"?>
<!DOCTYPE svg PUBLIC "-//W3C//DTD SVG 20010904//EN"
 "http://www.w3.org/TR/2001/REC-SVG-20010904/DTD/svg10.dtd">
<svg version="1.0" xmlns="http://www.w3.org/2000/svg"
 width="667.000000pt" height="486.000000pt" viewBox="0 0 667.000000 486.000000"
 preserveAspectRatio="xMidYMid meet">

<g transform="translate(0.000000,486.000000) scale(0.100000,-0.100000)"
fill="#000000" stroke="none">
<path d="M3100 4554 c-179 -127 -707 -417 -915 -502 -282 -114 -406 -143 -651
-152 -22 0 62 -297 138 -485 46 -112 144 -303 202 -395 34 -52 145 -200 151
-200 2 0 -11 33 -29 73 -18 39 -39 90 -46 112 -7 22 -16 45 -20 50 -11 15 -66
188 -94 295 -22 85 -34 143 -65 303 -5 26 -5 49 -1 52 4 2 48 13 98 25 283 63
702 255 1148 526 67 41 125 74 129 74 4 0 62 -33 129 -73 467 -283 880 -470
1169 -532 89 -19 86 -11 62 -147 -32 -185 -96 -405 -172 -593 -60 -146 -63
-155 -59 -155 7 0 117 151 157 217 136 221 243 478 312 754 l24 97 -51 6 c-28
3 -79 6 -112 6 -94 0 -284 55 -499 143 -214 87 -619 308 -887 483 -37 24 -71
44 -75 44 -4 -1 -24 -12 -43 -26z"/>
<path d="M2970 3661 c-110 -36 -345 -124 -354 -132 -16 -15 -3 -18 105 -29 57
-6 124 -13 148 -16 l43 -6 -6 -111 c-3 -62 -8 -133 -12 -159 -13 -104 62 -234
158 -273 53 -22 141 -23 189 -2 92 39 163 144 162 242 0 28 -4 107 -8 177 -9
145 6 127 -124 147 -35 6 -66 13 -69 16 -7 7 10 6 110 -5 84 -10 89 -9 168 20
45 16 83 30 86 30 2 0 4 -31 4 -69 0 -46 -4 -71 -12 -75 -9 -4 -10 -8 -2 -11
7 -4 10 -22 7 -49 -6 -50 12 -95 30 -77 13 13 18 141 5 141 -4 0 -8 34 -8 75
0 63 3 77 18 82 62 22 85 34 76 42 -5 5 -63 14 -129 21 -66 6 -140 13 -165 15
-281 30 -343 31 -420 6z"/>
<path d="M2145 3539 c5 -128 33 -244 86 -358 66 -141 124 -218 342 -455 183
-200 269 -315 351 -475 58 -113 121 -298 150 -441 l24 -115 7 86 c9 108 -10
432 -34 569 -10 58 -28 137 -40 175 l-22 70 -37 -3 c-66 -6 -87 44 -57 135 6
18 -7 36 -81 111 -49 49 -161 144 -249 213 -88 68 -196 160 -240 204 -116 114
-151 179 -195 350 -8 32 -9 19 -5 -66z"/>
<path d="M4140 3583 c-1 -41 -31 -123 -71 -188 -50 -83 -156 -186 -336 -326
-173 -136 -305 -257 -359 -330 -18 -26 -34 -49 -34 -51 0 -3 11 -3 24 -1 25 5
44 -11 26 -22 -5 -3 -10 -1 -10 4 0 19 -29 12 -41 -10 -15 -29 6 -52 25 -26
18 23 21 22 22 -14 1 -21 -2 -27 -9 -20 -6 6 -21 11 -34 11 -15 0 -23 6 -23
17 0 32 -19 -1 -45 -76 -32 -96 -62 -255 -75 -406 -10 -117 -14 -463 -6 -454
3 2 14 52 26 109 44 217 130 432 240 599 74 113 133 185 289 355 208 227 273
317 335 464 50 118 97 392 67 392 -6 0 -11 -12 -11 -27z"/>
<path d="M1743 3020 c128 -329 278 -609 470 -875 109 -150 145 -194 297 -358
154 -168 448 -409 602 -495 l36 -21 58 36 c106 65 282 203 405 315 338 310
608 679 809 1102 58 121 120 272 120 291 0 5 -29 -34 -64 -87 -252 -379 -662
-856 -951 -1106 -55 -48 -109 -95 -120 -105 -22 -21 -208 -157 -241 -177 -18
-11 -28 -7 -90 35 -397 275 -870 781 -1239 1325 -80 118 -103 147 -92 120z"/>
<path d="M2924 2685 c-7 -41 16 -85 45 -85 30 0 31 11 6 61 -32 62 -43 67 -51
24z"/>
<path d="M2430 890 l0 -230 200 0 200 0 0 55 0 55 -130 0 -130 0 0 35 0 35
110 0 110 0 0 55 0 55 -110 0 -110 0 0 30 0 30 125 0 125 0 0 55 0 55 -195 0
-195 0 0 -230z"/>
<path d="M2900 890 l0 -230 123 0 c80 0 141 5 173 15 90 27 134 97 134 215 0
118 -44 188 -134 215 -32 10 -93 15 -173 15 l-123 0 0 -230z m255 95 c22 -21
25 -33 25 -95 0 -62 -3 -74 -25 -95 -18 -19 -35 -25 -70 -25 l-45 0 0 120 0
120 45 0 c35 0 52 -6 70 -25z"/>
<path d="M3420 957 c0 -149 2 -167 23 -207 35 -70 88 -95 202 -95 114 0 167
25 203 95 20 40 22 58 22 207 l0 163 -70 0 -70 0 0 -132 c0 -188 -15 -228 -85
-228 -70 0 -85 40 -85 228 l0 132 -70 0 -70 0 0 -163z"/>
</g>
</svg>
