<svg width="13" height="11" viewBox="0 0 13 11" fill="none" xmlns="http://www.w3.org/2000/svg">
<path d="M12.7922 4.99473L8.09744 0.299861C7.96343 0.165846 7.78481 0.0922852 7.59436 0.0922852C7.4037 0.0922852 7.22518 0.165951 7.09117 0.299861L6.66492 0.726215C6.53101 0.860019 6.45724 1.03874 6.45724 1.2293C6.45724 1.41975 6.53101 1.6045 6.66492 1.7383L9.40377 4.48318L0.70231 4.48318C0.309989 4.48318 0 4.79032 0 5.18275L0 5.7855C0 6.17793 0.309989 6.51603 0.70231 6.51603L9.43485 6.51603L6.66503 9.27624C6.53112 9.41025 6.45735 9.58411 6.45735 9.77467C6.45735 9.96502 6.53112 10.1414 6.66503 10.2753L7.09127 10.7003C7.22529 10.8343 7.4038 10.9074 7.59447 10.9074C7.78492 10.9074 7.96353 10.8334 8.09755 10.6994L12.7923 6.00459C12.9266 5.87016 13.0005 5.6907 13 5.49993C13.0004 5.30852 12.9266 5.12895 12.7922 4.99473Z" fill="#77838F"/>
</svg>
