<svg width="13" height="11" viewBox="0 0 13 11" fill="none" xmlns="http://www.w3.org/2000/svg">
    <path d="M0.207803 6.00527L4.90256 10.7001C5.03657 10.8342 5.21519 10.9077 5.40564 10.9077C5.5963 10.9077 5.77482 10.834 5.90883 10.7001L6.33508 10.2738C6.46899 10.14 6.54276 9.96126 6.54276 9.7707C6.54276 9.58025 6.46899 9.3955 6.33508 9.26169L3.59623 6.51681L12.2977 6.51682C12.69 6.51682 13 6.20968 13 5.81725L13 5.2145C13 4.82207 12.69 4.48397 12.2977 4.48397L3.56515 4.48397L6.33497 1.72376C6.46888 1.58975 6.54265 1.41589 6.54265 1.22533C6.54265 1.03498 6.46888 0.858583 6.33497 0.724674L5.90873 0.299693C5.77471 0.165678 5.5962 0.0926469 5.40554 0.0926469C5.21508 0.0926469 5.03647 0.166629 4.90245 0.300644L0.207697 4.9954C0.0733657 5.12984 -0.000511634 5.3093 1.76389e-05 5.50007C-0.000405809 5.69148 0.0733657 5.87105 0.207803 6.00527Z" fill="#77838F"/>
</svg>
