<svg width="1920" height="900" viewBox="0 0 1920 900" fill="none" xmlns="http://www.w3.org/2000/svg">
    <g opacity="0.3">
        <path opacity="0.3" d="M1020.16 562.202C1019.71 562.202 1019.41 561.916 1019.41 561.487V558.626C1019.41 558.197 1019.71 557.911 1020.16 557.911C1020.6 557.911 1020.9 558.197 1020.9 558.626V561.487C1020.9 561.916 1020.6 562.202 1020.16 562.202ZM1020.16 552.191C1019.71 552.191 1019.41 551.905 1019.41 551.476V548.616C1019.41 548.187 1019.71 547.901 1020.16 547.901C1020.6 547.901 1020.9 548.187 1020.9 548.616V551.476C1020.9 551.905 1020.6 552.191 1020.16 552.191ZM1020.16 542.18C1019.71 542.18 1019.41 541.894 1019.41 541.465V538.605C1019.41 538.176 1019.71 537.89 1020.16 537.89C1020.6 537.89 1020.9 538.176 1020.9 538.605V541.465C1020.9 541.894 1020.6 542.18 1020.16 542.18ZM1020.16 532.169C1019.71 532.169 1019.41 531.883 1019.41 531.454V528.594C1019.41 528.165 1019.71 527.879 1020.16 527.879C1020.6 527.879 1020.9 528.165 1020.9 528.594V531.454C1020.9 531.883 1020.6 532.169 1020.16 532.169ZM1020.16 522.158C1019.71 522.158 1019.41 521.872 1019.41 521.443V518.583C1019.41 518.154 1019.71 517.868 1020.16 517.868C1020.6 517.868 1020.9 518.154 1020.9 518.583V521.443C1020.9 521.872 1020.6 522.158 1020.16 522.158ZM1020.16 512.148C1019.71 512.148 1019.41 511.862 1019.41 511.433V508.572C1019.41 508.143 1019.71 507.857 1020.16 507.857C1020.6 507.857 1020.9 508.143 1020.9 508.572V511.433C1020.9 511.862 1020.6 512.148 1020.16 512.148ZM1020.16 502.137C1019.71 502.137 1019.41 501.851 1019.41 501.422V498.561C1019.41 498.132 1019.71 497.846 1020.16 497.846C1020.6 497.846 1020.9 498.132 1020.9 498.561V501.422C1020.9 501.851 1020.6 502.137 1020.16 502.137Z" fill="white"/>
    </g>
    <g opacity="0.3">
        <path opacity="0.3" d="M1205.68 466.813H1202.71C1202.26 466.813 1201.96 466.527 1201.96 466.098C1201.96 465.669 1202.26 465.383 1202.71 465.383H1205.68C1206.13 465.383 1206.43 465.669 1206.43 466.098C1206.43 466.384 1206.13 466.813 1205.68 466.813ZM1195.26 466.813H1192.28C1191.84 466.813 1191.54 466.527 1191.54 466.098C1191.54 465.669 1191.84 465.383 1192.28 465.383H1195.26C1195.71 465.383 1196.01 465.669 1196.01 466.098C1196.01 466.384 1195.71 466.813 1195.26 466.813ZM1184.84 466.813H1181.86C1181.41 466.813 1181.12 466.527 1181.12 466.098C1181.12 465.669 1181.41 465.383 1181.86 465.383H1184.84C1185.28 465.383 1185.58 465.669 1185.58 466.098C1185.58 466.384 1185.28 466.813 1184.84 466.813ZM1174.41 466.813H1171.44C1170.99 466.813 1170.69 466.527 1170.69 466.098C1170.69 465.669 1170.99 465.383 1171.44 465.383H1174.41C1174.86 465.383 1175.16 465.669 1175.16 466.098C1175.16 466.384 1174.86 466.813 1174.41 466.813ZM1163.99 466.813H1161.01C1160.57 466.813 1160.27 466.527 1160.27 466.098C1160.27 465.669 1160.57 465.383 1161.01 465.383H1163.99C1164.44 465.383 1164.74 465.669 1164.74 466.098C1164.74 466.384 1164.44 466.813 1163.99 466.813ZM1153.57 466.813H1150.59C1150.14 466.813 1149.85 466.527 1149.85 466.098C1149.85 465.669 1150.14 465.383 1150.59 465.383H1153.57C1154.02 465.383 1154.31 465.669 1154.31 466.098C1154.31 466.384 1154.02 466.813 1153.57 466.813ZM1143.15 466.813H1140.17C1139.72 466.813 1139.42 466.527 1139.42 466.098C1139.42 465.669 1139.72 465.383 1140.17 465.383H1143.15C1143.59 465.383 1143.89 465.669 1143.89 466.098C1143.89 466.384 1143.59 466.813 1143.15 466.813ZM1132.72 466.813H1129.75C1129.3 466.813 1129 466.527 1129 466.098C1129 465.669 1129.3 465.383 1129.75 465.383H1132.72C1133.17 465.383 1133.47 465.669 1133.47 466.098C1133.47 466.384 1133.17 466.813 1132.72 466.813ZM1122.3 466.813H1119.32C1118.88 466.813 1118.58 466.527 1118.58 466.098C1118.58 465.669 1118.88 465.383 1119.32 465.383H1122.3C1122.75 465.383 1123.04 465.669 1123.04 466.098C1123.04 466.384 1122.75 466.813 1122.3 466.813Z" fill="white"/>
    </g>
</svg>
