<svg width="1920" height="800" viewBox="0 0 1920 800" fill="none" xmlns="http://www.w3.org/2000/svg">
    <g opacity="0.3">
        <path d="M1605 636C1611.78 636 1611.78 640.047 1618.45 640.047C1625.23 640.047 1625.23 636 1631.91 636C1638.68 636 1638.68 640.047 1645.36 640.047C1652.14 640.047 1652.14 636 1658.81 636C1665.59 636 1665.59 640.047 1672.27 640.047C1679.04 640.047 1679.04 636 1685.72 636C1692.5 636 1692.5 640.047 1699.17 640.047C1705.95 640.047 1705.95 636 1712.63 636C1719.41 636 1719.41 640.047 1726.08 640.047C1732.86 640.047 1732.86 636 1739.54 636C1746.31 636 1746.31 640.047 1752.99 640.047C1759.77 640.047 1759.77 636 1766.44 636C1773.22 636 1773.22 640.047 1779.9 640.047C1786.67 640.047 1786.67 636 1793.35 636C1800.13 636 1800.13 640.047 1806.8 640.047C1813.58 640.047 1813.58 636 1820.26 636C1827.03 636 1827.03 640.047 1833.71 640.047C1840.49 640.047 1840.49 636 1847.16 636" stroke="#3C4973" stroke-width="2" stroke-miterlimit="10"/>
        <path d="M1605 653.504C1611.78 653.504 1611.78 657.552 1618.45 657.552C1625.23 657.552 1625.23 653.504 1631.91 653.504C1638.68 653.504 1638.68 657.552 1645.36 657.552C1652.14 657.552 1652.14 653.504 1658.81 653.504C1665.59 653.504 1665.59 657.552 1672.27 657.552C1679.04 657.552 1679.04 653.504 1685.72 653.504C1692.5 653.504 1692.5 657.552 1699.17 657.552C1705.95 657.552 1705.95 653.504 1712.63 653.504C1719.41 653.504 1719.41 657.552 1726.08 657.552C1732.86 657.552 1732.86 653.504 1739.54 653.504C1746.31 653.504 1746.31 657.552 1752.99 657.552C1759.77 657.552 1759.77 653.504 1766.44 653.504C1773.22 653.504 1773.22 657.552 1779.9 657.552C1786.67 657.552 1786.67 653.504 1793.35 653.504C1800.13 653.504 1800.13 657.552 1806.8 657.552C1813.58 657.552 1813.58 653.504 1820.26 653.504C1827.03 653.504 1827.03 657.552 1833.71 657.552C1840.49 657.552 1840.49 653.504 1847.16 653.504" stroke="#3C4973" stroke-width="2" stroke-miterlimit="10"/>
        <path d="M1605 670.908C1611.78 670.908 1611.78 674.955 1618.45 674.955C1625.23 674.955 1625.23 670.908 1631.91 670.908C1638.68 670.908 1638.68 674.955 1645.36 674.955C1652.14 674.955 1652.14 670.908 1658.81 670.908C1665.59 670.908 1665.59 674.955 1672.27 674.955C1679.04 674.955 1679.04 670.908 1685.72 670.908C1692.5 670.908 1692.5 674.955 1699.17 674.955C1705.95 674.955 1705.95 670.908 1712.63 670.908C1719.41 670.908 1719.41 674.955 1726.08 674.955C1732.86 674.955 1732.86 670.908 1739.54 670.908C1746.31 670.908 1746.31 674.955 1752.99 674.955C1759.77 674.955 1759.77 670.908 1766.44 670.908C1773.22 670.908 1773.22 674.955 1779.9 674.955C1786.67 674.955 1786.67 670.908 1793.35 670.908C1800.13 670.908 1800.13 674.955 1806.8 674.955C1813.58 674.955 1813.58 670.908 1820.26 670.908C1827.03 670.908 1827.03 674.955 1833.71 674.955C1840.49 674.955 1840.49 670.908 1847.16 670.908" stroke="#3C4973" stroke-width="2" stroke-miterlimit="10"/>
        <path d="M1605 688.311C1611.78 688.311 1611.78 692.358 1618.45 692.358C1625.23 692.358 1625.23 688.311 1631.91 688.311C1638.68 688.311 1638.68 692.358 1645.36 692.358C1652.14 692.358 1652.14 688.311 1658.81 688.311C1665.59 688.311 1665.59 692.358 1672.27 692.358C1679.04 692.358 1679.04 688.311 1685.72 688.311C1692.5 688.311 1692.5 692.358 1699.17 692.358C1705.95 692.358 1705.95 688.311 1712.63 688.311C1719.41 688.311 1719.41 692.358 1726.08 692.358C1732.86 692.358 1732.86 688.311 1739.54 688.311C1746.31 688.311 1746.31 692.358 1752.99 692.358C1759.77 692.358 1759.77 688.311 1766.44 688.311C1773.22 688.311 1773.22 692.358 1779.9 692.358C1786.67 692.358 1786.67 688.311 1793.35 688.311C1800.13 688.311 1800.13 692.358 1806.8 692.358C1813.58 692.358 1813.58 688.311 1820.26 688.311C1827.03 688.311 1827.03 692.358 1833.71 692.358C1840.49 692.358 1840.49 688.311 1847.16 688.311" stroke="#3C4973" stroke-width="2" stroke-miterlimit="10"/>
    </g>
</svg>
