<svg width="1920" height="800" viewBox="0 0 1920 800" fill="none" xmlns="http://www.w3.org/2000/svg">
    <g opacity="0.3">
        <path d="M1808.98 357.888C1846.67 346.633 1868.1 306.95 1856.85 269.254C1845.59 231.558 1805.92 210.124 1768.24 221.379C1730.55 232.635 1709.12 272.317 1720.37 310.013C1731.63 347.709 1771.3 369.143 1808.98 357.888Z" stroke="#FFCE83" stroke-width="2" stroke-miterlimit="10"/>
        <path d="M1851.64 295.093C1854.67 260.244 1828.88 229.537 1794.04 226.506C1759.2 223.475 1728.5 249.268 1725.47 284.117C1722.44 318.965 1748.23 349.673 1783.07 352.704C1817.91 355.735 1848.61 329.941 1851.64 295.093Z" stroke="#FFCE83" stroke-width="2" stroke-miterlimit="10"/>
        <path d="M1843.58 297.392C1847.88 267.017 1826.75 238.901 1796.39 234.594C1766.02 230.287 1737.91 251.419 1733.61 281.794C1729.3 312.169 1750.43 340.284 1780.79 344.592C1811.16 348.899 1839.27 327.767 1843.58 297.392Z" stroke="#FFCE83" stroke-width="2" stroke-miterlimit="10"/>
        <path d="M1788.6 337.414C1814.97 337.414 1836.35 316.033 1836.35 289.657C1836.35 263.281 1814.97 241.899 1788.6 241.899C1762.23 241.899 1740.86 263.281 1740.86 289.657C1740.86 316.033 1762.23 337.414 1788.6 337.414Z" stroke="#FFCE83" stroke-width="2" stroke-miterlimit="10"/>
        <path d="M1792.96 329.279C1814.84 326.855 1830.61 307.15 1828.19 285.267C1825.76 263.384 1806.06 247.61 1784.19 250.034C1762.31 252.458 1746.54 272.163 1748.96 294.046C1751.39 315.929 1771.09 331.703 1792.96 329.279Z" stroke="#FFCE83" stroke-width="2" stroke-miterlimit="10"/>
        <path d="M1814.55 308.415C1824.93 294.06 1821.7 274.01 1807.35 263.633C1793 253.256 1772.95 256.481 1762.58 270.837C1752.2 285.192 1755.43 305.242 1769.78 315.619C1784.13 325.996 1804.18 322.771 1814.55 308.415Z" stroke="#FFCE83" stroke-width="2" stroke-miterlimit="10"/>
        <path d="M1809.59 301.544C1816.19 289.937 1812.14 275.172 1800.54 268.566C1788.93 261.961 1774.17 266.015 1767.57 277.623C1760.96 289.23 1765.02 303.995 1776.62 310.6C1788.22 317.206 1802.99 313.151 1809.59 301.544Z" stroke="#FFCE83" stroke-width="2" stroke-miterlimit="10"/>
        <path d="M1794.39 304.951C1802.86 301.749 1807.12 292.288 1803.92 283.821C1800.72 275.354 1791.26 271.087 1782.8 274.29C1774.33 277.492 1770.07 286.953 1773.27 295.42C1776.47 303.887 1785.93 308.154 1794.39 304.951Z" stroke="#FFCE83" stroke-width="2" stroke-miterlimit="10"/>
        <path d="M1780.91 293.603C1778.79 289.353 1780.41 284.193 1784.55 282.068C1788.8 279.943 1793.96 281.562 1796.09 285.711C1798.21 289.96 1796.59 295.121 1792.44 297.245C1788.3 299.37 1783.14 297.751 1780.91 293.603Z" stroke="#FFCE83" stroke-width="2" stroke-miterlimit="10"/>
    </g>
</svg>
