<svg width="1753" height="686" viewBox="0 0 1753 686" fill="none" xmlns="http://www.w3.org/2000/svg">
    <g opacity="0.2">
        <path d="M299.1 672C299.1 671.9 299 671.9 299 671.9C299.3 671.5 299.4 671.1 299.1 670.6C292.4 661.4 285.3 652.5 278.4 643.5C273.4 637 268 630.8 259.6 628.7C252.8 627 245.2 628.4 240.4 633.6C236 638.5 234.5 645.5 237.7 651.3C237.8 651.5 238 651.6 238.2 651.7C239.4 655.4 241.4 658.7 245.8 659.5C249.8 660.2 254.4 656.8 253.2 652.5C253.1 652.2 252.9 652 252.6 651.9C252 649.9 251.2 647.7 252 645.7C252.7 643.7 254.7 642.6 256.7 643.3C256.9 643.4 257.1 643.3 257.2 643.2C257.7 643.6 258.3 644.1 258.8 644.6C258.9 644.7 258.9 644.8 259 644.9C259.1 645.1 259.3 645.2 259.5 645.2C269.1 653.7 276.8 664.8 285.6 674.1C288.3 677 292.1 680.9 296.6 679.5C299.8 678.3 301.1 674.7 299.1 672ZM244.7 633.7C244.7 633.8 244.6 633.8 244.6 633.9C244 637.8 247.2 642 250.5 644C249.7 645.3 249.6 646.8 249.8 648.3C245.9 648.4 242.6 647.3 238.8 645.8C238.7 645.8 238.6 645.7 238.5 645.8C238.5 641 240.8 636.5 244.7 633.7ZM242.3 655.5C241.1 654.3 240.1 652.8 239.3 651.1C239.3 651 239.4 650.8 239.3 650.6C239 649.7 238.8 648.8 238.7 647.8C241.9 650.2 246.3 650.7 250.2 649.8C250.5 650.8 251 651.9 251.5 652.8C251.4 658.2 245.6 658.6 242.3 655.5ZM257.6 641.5C257.3 641.3 256.9 641.2 256.6 641C256.3 640.9 256 641 255.8 641.1C254.3 640.8 252.8 641.4 251.6 642.4C250.2 641.3 248.9 640 247.9 638.5C247 637 246.7 635.3 246 633.7C245.9 633.4 245.6 633.3 245.2 633.4C245.7 633.1 246.2 632.8 246.8 632.5C250.4 630.8 254.3 630.6 258.1 631.4C256.4 634.1 256.6 638.2 257.6 641.5ZM268.1 650.3C265.6 647.5 262.9 644.8 259.8 642.8C259.5 641 259 639.1 259 637.2C259 635.2 259.6 633.7 260.4 632C263.4 633 266.2 634.7 268.5 636.7C269 637.1 269.4 637.5 269.8 638C268 641.6 267.4 646.2 268.1 650.3ZM279.5 663.4C277.7 661.4 276 659.4 274.2 657.4C273.1 656.2 272 654.9 270.9 653.6V653.5C269.8 648.5 270.1 644.2 271.3 639.5C275 643.4 278.1 647.9 281.4 652.1C279.7 655.4 279.2 659.5 279.5 663.4ZM283 667.2C282.6 666.8 282.2 666.3 281.8 665.9C281.3 661.7 281.9 657.9 282.9 653.9C285.8 657.6 288.6 661.2 291.5 664.9C289.7 667.6 288.9 670.9 289.1 674.2C288.7 673.8 288.3 673.4 288 673C286.3 671.1 284.6 669.1 283 667.2ZM291.5 676.6C291.5 676.5 291.5 676.5 291.5 676.4C290.8 672.9 291.3 669.7 292.7 666.5C294.2 668.4 295.7 670.2 297.2 672C297.3 672.1 297.3 672.1 297.4 672.2C297.3 672.4 297.3 672.7 297.5 673C295.8 677.1 293.9 678.3 291.5 676.6Z" fill="white"/>

        <path d="M272.2 48.7999C275.6 44.0999 274.3 36.5999 269.7 32.8999C263.2 27.5999 254.2 34.1999 249.3 39.5999C247.7 34.1999 242.8 29.9999 236.7 32.2999C232.3 33.9999 230.5 39.1999 232.5 42.9999C228.5 41.1999 223.5 41.9999 221.5 46.6999C219.2 52.2999 224.2 54.6999 228.8 55.3999C224.9 60.2999 225.3 68.0999 231.8 70.8999C237.7 73.3999 243.8 69.2999 244.4 63.5999C245.9 67.6999 249.8 70.7999 254.2 71.1999C259.8 71.6999 264.6 67.9999 266.4 62.9999C271.9 64.8999 280.7 65.5999 281.2 57.6999C281.6 52.5999 276.9 49.2999 272.2 48.7999ZM274.3 61.7999C271.5 62.4999 269 61.4999 266.4 60.2999C265.7 59.9999 264.8 60.1999 264.5 61.0999C263.2 65.8999 258.7 69.6999 253.4 68.6999C248.8 67.7999 246.4 63.7999 245.4 59.6999C245.2 58.7999 243.9 58.9999 243.8 59.8999C243.3 59.6999 242.4 60.0999 242.6 60.8999C244 66.9999 238.2 72.5999 232.1 68.9999C226.8 65.8999 227.3 58.9999 232 55.5999C232.9 54.8999 232.6 53.4999 231.4 53.4999C228.8 53.2999 220 52.5999 225.2 46.1999C227.6 43.3999 232.3 44.6999 234.8 46.2999C235.3 46.5999 235.9 46.0999 235.8 45.5999C236.1 45.2999 236.2 44.7999 235.9 44.3999C233 40.7999 233.6 35.3999 238.8 34.2999C243.9 33.1999 247.2 37.5999 247.6 42.0999C247.7 42.9999 248.8 43.6999 249.5 42.8999C252.7 39.0999 257.1 35.0999 262.1 33.8999C271 31.8999 273.9 43.5999 268.9 48.9999C268.8 48.9999 268.7 48.9999 268.6 49.0999C267 49.4999 267.7 51.8999 269.3 51.5999C270.7 51.2999 272.1 51.1999 273.5 51.6999C276.3 52.4999 277.1 53.8999 277.7 56.6999C278.4 59.8999 277.6 60.9999 274.3 61.7999Z" fill="white"/>

        <path d="M127.5 303.6C125.3 302.4 122.6 303.5 120.9 305.1C118.8 307 117.8 309.7 117.2 312.4C115.8 311.6 114.3 310.8 113 310C111.2 308.9 109.4 307.6 107.6 306.5C111.8 302 115.2 296.7 117.5 290.6C117.7 290.1 117.4 289.3 116.9 289.1C105.9 284 95.6005 277.2 86.3005 269.5C96.6005 263 103.9 248.8 102.1 236.6C103.9 234.6 104.4 231.6 103 229.3C101.6 226.8 98.2004 225.8 95.5005 227C93.0005 228.1 91.9005 231.1 92.8005 233.7C93.9005 236.8 96.9004 237.1 99.7004 236.8C99.7004 236.8 99.7005 236.9 99.8005 236.9C99.2005 243.4 98.6004 249.1 95.6004 255C92.9005 260.2 89.0005 264.3 84.7004 268.2C82.3004 266.1 79.9005 264 77.6004 261.7C77.5005 261.6 77.4005 261.5 77.3005 261.5C81.6005 255.6 83.5005 247.9 82.2004 240.8C80.3004 230.8 72.3004 222.6 62.7004 219.4C69.2004 216 69.5005 207.9 71.3005 201.4C71.6005 200.2 70.2005 199.6 69.4005 200.3C66.1004 202.9 61.0004 201.1 57.1004 201.8C53.9004 202.4 50.8004 203.9 48.5004 206.3C45.1004 210 44.2004 215.7 47.0004 219.9C40.6004 221.9 34.5004 226.4 30.4004 231.7C27.3004 226.4 19.5004 224.9 14.1004 227.7C11.0004 229.2 9.00045 231.9 8.70045 235.5C8.50045 238.5 9.30045 241.4 8.40045 244.4C7.30045 248 4.80045 250.6 1.50045 252.3C0.600448 252.7 0.900448 254.1 1.80045 254.3C10.2004 256.6 19.9004 254.5 25.3004 247.7C25.7004 254.8 29.1004 261.8 34.9004 266.1C41.4004 270.9 51.1004 272.8 59.8004 271.4C60.0004 273.9 60.4004 276.4 60.7004 278.9C55.9004 280.6 51.3004 281.9 46.1004 281.7C41.0004 281.5 36.9004 279.8 32.3004 278C33.3004 275.3 32.7004 272.5 30.3004 270.8C28.0004 269.1 24.5004 269.4 22.4004 271.5C20.6004 273.4 20.5004 276.7 22.2004 278.7C24.2004 281.1 27.8004 280.9 30.4004 279.6C38.2004 286.2 52.2004 286.5 60.9004 281.3C61.5004 285.8 62.1004 290.2 62.4004 294.7C62.9004 302.7 62.9004 310.8 62.3004 318.8C62.3004 319.4 62.8004 320 63.3004 320.1C71.2004 321.8 79.1005 321.4 86.3005 319.3C86.8005 323 87.4004 326.7 88.2004 330.3C88.1004 330.2 87.9004 330.2 87.7004 330.2C84.9004 330.5 70.5005 333.4 74.4005 338.7C75.9005 340.7 79.2004 340.2 81.2004 339.7C84.5005 338.9 87.6004 336.9 89.5005 334C90.3005 334.3 91.6005 333.6 91.3005 332.4C90.3005 327.8 89.2005 323.2 87.8005 318.7C94.6005 316.5 100.8 312.7 106 307.7C107.6 309.3 109.6 310.7 111.5 312C113.7 313.4 115.9 315 118.4 315.8C118.9 316 119.2 315.8 119.5 315.6C119.7 315.7 120 315.7 120.2 315.5C123 314.2 133.2 306.8 127.5 303.6ZM95.3005 233C94.7005 231.6 95.2004 229.8 96.7004 229.2C98.2004 228.5 100.3 229.1 101 230.7C101.7 232.1 101.4 233.8 100.4 235C98.5005 235 96.1005 235.1 95.3005 233ZM30.7004 277.5C30.3004 277.5 30.0004 277.9 29.9004 278.2C28.2004 278.4 26.2004 279 24.8004 277.8C23.6004 276.8 23.4004 274.7 24.5004 273.5C25.5004 272.3 27.6004 272.1 28.9004 273C30.2004 273.9 30.9004 275.9 30.7004 277.5ZM88.7004 332C88.8004 332.3 88.8005 332.6 88.9005 332.9C88.8005 332.9 88.7004 333 88.6004 333C87.1004 334.2 85.5005 335.4 83.7004 336.2C82.2004 336.9 78.9005 338.2 77.3005 337.4C76.0005 336.7 77.8004 335.8 78.6004 335.3C79.5005 334.8 80.4005 334.3 81.3005 334C83.4005 333.1 85.6004 332.6 87.9005 332.4C88.3005 332.5 88.5005 332.3 88.7004 332ZM58.7004 204C62.1004 203.7 65.4005 204.4 68.4005 203.2C67.3005 208.9 66.6004 215.6 60.6004 217.8C60.2004 217.9 60.0004 218.2 59.9004 218.5C59.4004 218.4 59.0004 218.3 58.5004 218.2C59.0004 215.7 57.0004 212.9 54.4004 212.7C51.5004 212.4 48.6004 215.5 49.7004 218.4C49.8004 218.7 50.0004 218.8 50.2004 218.9C49.6004 219 49.1004 219.1 48.5004 219.3C45.5004 211.8 50.7004 204.8 58.7004 204ZM56.5004 218.1C56.0004 218 55.4004 218 54.9004 218C54.2004 218 53.8004 218.3 53.6004 218.7C52.7004 218.7 51.8004 218.8 50.9004 218.9C51.1004 218.8 51.2004 218.6 51.2004 218.3C51.2004 216.7 52.3004 214.6 54.3004 214.9C55.8004 215.1 56.6004 216.6 56.5004 218.1ZM5.00045 252.7C8.70045 250 11.0004 246 11.2004 241.2C11.3004 237.7 9.90045 234.5 12.7004 231.3C13.9004 229.9 15.9004 229 17.7004 228.6C22.3004 227.6 26.2004 229.7 29.4004 232.8C29.0004 233.3 28.7004 233.9 28.4004 234.4C28.3004 234.3 28.2004 234.3 28.1004 234.2C25.1004 233.1 21.5004 235.1 21.1004 238.4C20.8004 240.6 22.8004 243.7 25.1004 244.1C20.8004 251.2 12.9004 254.1 5.00045 252.7ZM26.8004 237.8C26.2004 239.3 25.8004 240.8 25.6004 242.4C25.1004 242.2 24.7004 242 24.2004 241.6C23.4004 240.8 22.8004 239.7 23.1004 238.5C23.5004 236.6 25.8004 235.6 27.5004 236.1C27.3004 236.7 27.0004 237.2 26.8004 237.8ZM27.8004 246C27.8004 242.5 28.7004 239.3 30.2004 236.5C29.8004 242.1 32.7004 248.2 37.9004 250.5C38.9004 251 39.7004 249.7 38.8004 249C33.3004 245.1 31.0004 239.6 32.4004 233.1C33.8004 231.4 35.4004 229.8 37.1004 228.3C39.9004 234.1 44.6004 240 50.0004 243C50.8004 243.5 51.7004 242.3 51.0004 241.7C48.6004 239.4 46.0004 237.4 43.8004 234.9C41.8004 232.6 40.1004 230 38.5004 227.4C40.2004 226.2 42.1004 225.1 44.0004 224.1C47.0004 224.5 49.6004 225.1 52.3004 226.7C54.8004 228.2 56.8004 230.2 59.1004 231.9C59.7004 232.3 60.6004 231.5 60.1004 230.9C57.2004 227.1 52.0004 223.4 46.8004 222.7C49.1004 221.7 51.5004 220.9 53.8004 220.3C54.0004 220.5 54.3004 220.7 54.7004 220.7C59.2004 221.3 63.6005 222.7 67.4005 225C62.6005 243.4 46.4004 250.6 30.1004 256.5C28.7004 253.6 27.8004 250 27.8004 246ZM54.4004 269.3C44.8004 269.3 35.6004 265.3 31.0004 257.8C48.1004 255.2 64.8004 243.5 69.5005 226.4C75.7004 230.7 80.0005 237.4 80.1004 245.7C80.3004 260.4 68.2004 269.3 54.4004 269.3ZM65.3005 317.7C66.4005 302.5 66.3004 285.7 61.6004 271.1C65.0004 270.4 68.2004 269.2 71.0005 267.4C72.7004 266.3 74.3004 265 75.6004 263.5L75.7004 263.6C87.3004 274.7 100.3 283.5 114.5 290.9C106.5 310.5 86.1004 321.6 65.3005 317.7ZM123.8 310.5C122.5 311.8 121.1 313 119.6 314L119.5 313.9C119.4 313.8 119.2 313.7 119.1 313.6C119.5 312 119.9 310.4 120.6 309C121.4 307.4 123.2 305.1 125.3 305.4C128.3 305.8 124.7 309.6 123.8 310.5Z" fill="white"/>
        <path d="M49.6004 259.1C49.0004 257.4 46.7004 256.9 45.4004 258.1C44.7004 258.7 44.5004 259.8 45.0004 260.5C45.0004 260.7 45.0004 261 45.0004 261.2C45.0004 262.1 45.7004 262.6 46.5004 262.7C48.4004 263.1 50.3004 261 49.6004 259.1Z" fill="white"/>
        <path d="M72.4004 239.6C71.2004 238.5 68.7004 238.4 68.0004 240.1C67.9004 240.3 67.9004 240.5 67.9004 240.7C67.7004 241.1 67.6004 241.5 67.7004 241.9C67.7004 243.9 69.9004 244.9 71.5004 244.1C73.2004 243.3 73.8004 241 72.4004 239.6Z" fill="white"/>
        <path d="M64.7002 255.5C64.7002 255 64.7002 254.6 64.2002 254.3C64.0002 254.1 63.7002 254 63.4002 253.9C62.1002 253.6 60.8002 254.3 60.5002 255.6C60.3002 256.2 61.1002 256.7 61.6002 256.2C61.9002 255.8 62.4002 255.6 62.9002 255.7C62.9002 256.5 62.9002 257.3 63.1002 258.1C63.3002 258.9 64.6002 259 64.8002 258.1C64.9002 257.2 64.8002 256.3 64.7002 255.5Z" fill="white"/>
        <path d="M68.0001 257.6C67.6001 260.2 65.3001 262.4 62.5001 261.7C61.9001 261.6 61.6001 262.4 62.2001 262.7C65.4001 263.9 69.7001 261.5 69.6001 257.8C69.7001 256.9 68.2001 256.6 68.0001 257.6Z" fill="white"/>
    </g>
</svg>
