<svg width="1781" height="832" viewBox="0 0 1781 832" fill="none" xmlns="http://www.w3.org/2000/svg">
    <g opacity="0.1">
        <path d="M1382.75 239.84C1385.22 279.415 1384.39 318.989 1383.57 358.564C1383.57 360.213 1384.39 361.037 1386.04 361.037C1410.71 359.388 1436.19 366.809 1460.04 372.58C1481.42 377.527 1506.91 382.473 1525.82 394.84C1527.46 395.665 1529.93 394.84 1529.11 392.367C1509.37 344.548 1504.44 292.606 1487.17 243.963C1487.17 243.138 1485.53 242.314 1484.71 242.314C1466.62 246.436 1445.24 243.138 1427.15 241.489C1413.17 239.84 1399.19 239.016 1385.22 236.543C1382.75 236.543 1381.93 240.665 1384.39 240.665C1413.17 244.787 1442.77 248.085 1472.37 247.261C1474.84 247.261 1479.77 245.612 1482.24 246.436C1483.06 246.436 1483.06 246.436 1483.88 246.436C1484.71 246.436 1484.71 246.436 1484.71 248.085C1486.35 251.383 1487.17 257.979 1487.99 260.452C1492.93 276.117 1497.04 292.606 1500.33 308.271C1506.91 337.128 1513.48 365.984 1524.99 393.191C1525.82 392.367 1527.46 391.543 1528.28 390.718C1510.19 378.351 1484.71 373.404 1463.33 367.633C1438.66 361.037 1411.53 354.441 1386.04 356.09C1386.86 356.915 1387.68 357.739 1388.51 358.564C1389.33 318.165 1390.15 278.59 1387.68 238.191C1386.86 236.543 1382.75 237.367 1382.75 239.84Z" fill="white"/>
        <path d="M1390.15 243.963C1441.95 286.835 1489.64 337.952 1525.82 394.84C1527.47 397.314 1530.75 394.84 1529.11 392.367C1492.93 334.654 1444.42 283.537 1392.62 240.665C1390.98 239.016 1387.69 242.314 1390.15 243.963Z" fill="white"/>
        <path d="M1390.98 359.388C1404.96 337.952 1423.05 318.989 1440.32 299.202C1455.12 281.888 1471.56 264.575 1487.18 246.436C1488.83 244.787 1485.54 241.489 1483.89 243.963C1468.27 262.101 1452.65 279.415 1437.03 296.729C1419.76 315.692 1402.49 335.479 1387.69 356.915C1386.05 359.388 1389.34 361.862 1390.98 359.388Z" fill="white"/>
        <path d="M1386.87 360.213C1405.78 353.617 1424.69 348.67 1444.42 343.723C1450.18 342.074 1455.11 341.25 1460.87 339.601C1463.33 338.777 1466.62 338.777 1468.27 337.128C1470.73 334.654 1471.55 328.059 1473.2 323.936C1474.84 319.814 1475.67 314.867 1477.31 310.745C1479.78 300.851 1482.24 290.957 1483.89 281.064C1486.35 269.521 1488 257.154 1488 244.787C1488 242.314 1483.89 242.314 1483.89 245.612C1483.89 257.154 1482.24 269.521 1479.78 281.064C1478.13 290.133 1476.49 298.378 1474.02 307.447C1472.38 313.218 1470.73 318.989 1469.09 324.761C1468.27 327.234 1467.44 333.83 1464.98 334.654C1462.51 336.303 1456.75 336.303 1454.29 337.128C1449.35 338.777 1443.6 339.601 1438.67 341.25C1421.4 345.372 1404.13 351.144 1386.87 356.09C1382.75 356.915 1383.58 361.037 1386.87 360.213Z" fill="white"/>
        <path d="M1266.82 491.303C1335.89 549.016 1453.47 492.128 1475.67 411.33C1483.07 385.771 1478.96 358.564 1468.27 334.654C1467.44 332.181 1463.33 333.83 1464.16 336.303C1483.89 377.527 1475.67 422.872 1445.24 456.676C1417.29 488.005 1375.36 509.442 1333.42 509.442C1309.58 509.442 1287.38 502.021 1269.29 487.181C1267.64 486.356 1264.36 489.654 1266.82 491.303Z" fill="white"/>
        <path d="M1471.56 532.527C1498.69 525.106 1516.78 497.075 1526.65 471.516C1536.51 446.782 1542.27 415.452 1528.29 391.543C1526.65 389.069 1523.36 391.543 1525 394.016C1538.98 417.101 1531.58 449.255 1521.71 472.34C1511.85 495.426 1495.4 520.984 1469.91 528.404C1467.45 530.053 1469.09 533.351 1471.56 532.527Z" fill="white"/>
        <path d="M1534.87 429.468C1531.58 422.872 1527.47 415.452 1521.71 411.33C1520.89 410.505 1519.25 411.33 1518.42 412.154C1513.49 421.224 1512.67 431.942 1515.14 441.835C1515.14 442.66 1516.78 444.309 1517.6 443.484C1529.11 437.713 1539.8 428.644 1549.67 420.399C1548.85 419.575 1547.2 419.575 1546.38 418.75C1548.85 427.819 1547.2 436.888 1543.09 445.133C1543.91 445.133 1545.56 445.133 1546.38 444.309C1542.27 439.362 1538.16 434.415 1534.87 429.468C1533.22 426.995 1529.94 429.468 1531.58 431.117C1535.69 436.064 1539.8 441.835 1543.91 446.782C1544.74 448.431 1546.38 447.606 1547.2 445.958C1552.14 436.888 1552.96 426.995 1550.49 417.101C1550.49 415.452 1548.85 414.628 1547.2 415.452C1537.34 423.697 1527.47 432.766 1516.78 438.537C1517.6 439.362 1518.42 439.362 1519.25 440.186C1516.78 431.117 1517.6 421.224 1522.54 412.979C1521.71 412.979 1520.07 413.803 1519.25 413.803C1524.18 417.926 1528.29 424.521 1531.58 430.293C1532.4 433.591 1535.69 431.942 1534.87 429.468Z" fill="white"/>
        <path d="M1524.17 476.463C1522.53 469.043 1520.06 461.622 1515.95 455.027C1515.13 454.202 1513.49 454.202 1512.66 455.027C1506.09 462.447 1501.97 472.341 1501.97 483.059C1501.97 483.883 1502.8 485.532 1504.44 485.532C1517.6 483.059 1529.11 477.287 1541.44 470.692C1540.62 469.867 1539.8 469.043 1538.97 468.218C1538.97 477.287 1535.69 486.356 1529.11 492.952C1529.93 492.952 1531.57 492.952 1532.4 493.777C1529.11 488.005 1526.64 482.234 1524.17 476.463C1523.35 473.165 1519.24 474.814 1520.06 477.287C1522.53 483.059 1525 489.654 1527.46 495.426C1528.29 497.075 1529.93 497.075 1530.75 496.25C1537.33 488.83 1541.44 479.761 1541.44 469.867C1541.44 468.218 1539.8 466.569 1538.97 467.394C1527.46 473.165 1515.95 478.936 1503.62 481.41C1504.44 482.234 1505.26 483.059 1506.09 483.883C1506.09 473.989 1509.37 464.92 1515.95 458.325C1515.13 458.325 1513.49 458.325 1512.66 458.325C1516.77 464.096 1518.42 470.692 1520.06 477.287C1520.89 479.761 1525 478.936 1524.17 476.463Z" fill="white"/>
        <path d="M1497.05 513.564C1497.87 506.144 1498.69 497.899 1496.23 490.479C1496.23 489.654 1494.58 488.83 1493.76 489.654C1484.72 494.601 1478.14 502.846 1474.03 512.739C1473.21 513.564 1474.03 515.213 1475.67 515.213C1488.83 516.862 1501.98 515.213 1515.14 513.564C1514.32 512.739 1513.49 511.915 1512.67 511.091C1509.38 519.335 1503.63 526.755 1495.41 530.878C1496.23 531.702 1497.05 531.702 1497.87 532.527C1497.87 525.931 1497.05 519.335 1497.05 513.564C1497.05 510.266 1492.94 511.091 1492.94 513.564C1493.76 520.16 1493.76 526.755 1494.58 533.351C1494.58 534.176 1496.23 535.825 1497.05 535C1506.09 530.053 1512.67 522.633 1515.96 512.739C1516.78 511.091 1515.14 509.442 1513.49 510.266C1501.16 511.915 1488.01 513.564 1474.85 511.915C1475.67 512.739 1475.67 513.564 1476.49 514.388C1479.78 505.319 1485.54 497.899 1493.76 493.777C1492.94 493.777 1492.12 492.952 1491.29 492.952C1492.94 499.548 1492.94 506.968 1492.12 513.564C1492.12 516.037 1496.23 516.037 1497.05 513.564Z" fill="white"/>
        <path d="M1537.33 369.282C1537.33 369.282 1538.15 369.282 1538.98 369.282C1539.8 369.282 1540.62 369.282 1541.44 370.106C1542.27 370.106 1543.09 370.931 1543.91 371.755C1545.55 372.58 1547.2 374.229 1548.84 376.702C1549.67 377.527 1550.49 379.176 1550.49 380C1551.31 380.824 1551.31 382.473 1552.13 383.298C1552.13 384.947 1552.95 385.771 1552.95 387.42C1552.95 389.069 1552.95 389.894 1553.78 391.543C1553.78 394.016 1553.78 396.489 1552.95 398.138C1552.95 398.963 1552.13 399.787 1552.13 400.612C1551.31 401.436 1551.31 402.261 1551.31 402.261C1550.49 403.085 1549.67 403.91 1549.67 403.91C1549.67 403.91 1549.67 403.085 1549.67 402.261C1549.67 401.436 1549.67 401.436 1549.67 400.612C1549.67 399.787 1549.67 398.963 1548.84 398.138C1548.02 394.84 1547.2 390.718 1545.55 386.596C1545.55 385.771 1544.73 384.122 1544.73 383.298C1544.73 382.473 1543.91 381.649 1543.91 380C1543.09 378.351 1542.27 376.702 1541.44 375.053C1540.62 374.229 1540.62 373.404 1540.62 373.404C1540.62 372.58 1539.8 372.58 1539.8 371.755C1537.33 369.282 1537.33 369.282 1537.33 369.282Z" fill="white"/>
        <path d="M1554.59 377.527C1554.59 377.527 1554.59 377.527 1555.42 377.527C1556.24 377.527 1557.06 377.527 1557.88 378.351C1558.71 378.351 1558.71 379.176 1559.53 379.176L1560.35 380C1561.17 380.824 1561.17 381.649 1561.99 383.298C1561.99 384.122 1561.99 385.771 1561.99 386.596C1561.99 387.42 1561.17 389.069 1561.17 389.069C1560.35 389.894 1560.35 390.718 1559.53 390.718C1558.71 390.718 1558.71 391.543 1558.71 391.543C1558.71 391.543 1558.71 391.543 1557.88 390.718C1557.88 390.718 1557.06 389.894 1557.06 389.069C1556.24 388.245 1556.24 387.42 1556.24 387.42C1556.24 386.596 1555.42 385.771 1555.42 384.947C1555.42 384.122 1555.42 383.298 1555.42 382.473V381.649V380.824C1555.42 380 1555.42 379.176 1555.42 378.351C1553.77 377.527 1554.59 377.527 1554.59 377.527Z" fill="white"/>
        <path d="M1401.67 228.298C1401.67 228.298 1402.49 228.298 1403.31 227.473C1404.96 227.473 1406.6 226.649 1408.25 225.824C1413.18 225 1418.93 225 1424.69 225C1430.45 225 1436.2 225.824 1440.31 227.473C1442.78 228.298 1444.42 228.298 1445.25 229.122C1446.07 229.122 1446.89 229.947 1446.89 229.947C1446.89 229.947 1446.07 229.947 1445.25 230.771C1443.6 230.771 1441.96 231.596 1440.31 231.596C1436.2 232.42 1430.45 232.42 1424.69 232.42C1418.93 232.42 1413.18 231.596 1409.07 230.771C1406.6 229.947 1404.96 229.947 1404.13 229.122C1402.49 228.298 1401.67 228.298 1401.67 228.298Z" fill="white"/>
        <path d="M1458.4 230.771C1458.4 230.771 1458.4 229.947 1458.4 230.771C1459.22 229.947 1460.05 229.122 1460.05 228.298C1460.87 227.473 1462.51 226.649 1464.16 226.649C1464.98 226.649 1465.8 226.649 1465.8 226.649C1466.62 226.649 1467.45 227.473 1467.45 227.473C1468.27 227.473 1468.27 228.298 1469.09 228.298C1469.91 228.298 1469.91 229.122 1469.91 229.122C1469.91 229.122 1469.91 229.122 1469.91 229.947C1469.91 230.771 1469.09 230.771 1469.09 231.596C1468.27 232.42 1467.45 233.245 1466.62 233.245C1465.8 233.245 1464.98 234.069 1464.16 234.069C1462.51 234.069 1460.87 233.245 1460.05 232.42C1460.05 232.42 1459.22 231.596 1458.4 230.771Z" fill="white"/>
        <path d="M1410.71 244.787C1412.35 249.734 1412.35 254.681 1413.18 260.452C1413.18 262.926 1417.29 262.926 1417.29 259.628C1417.29 253.856 1416.46 248.91 1414.82 243.138C1414 240.665 1410.71 242.314 1410.71 244.787Z" fill="white"/>
        <path d="M1420.58 248.91C1423.05 258.803 1424.69 268.697 1427.16 277.766C1427.98 280.239 1431.27 278.59 1431.27 276.117C1428.8 266.223 1427.16 256.33 1424.69 247.261C1423.87 244.787 1420.58 246.436 1420.58 248.91Z" fill="white"/>
        <path d="M1432.08 244.787C1433.73 259.628 1435.37 275.292 1440.31 290.133C1441.13 292.606 1445.24 290.957 1444.42 288.484C1439.48 274.468 1438.66 259.628 1437.02 244.787C1436.2 242.314 1432.08 242.314 1432.08 244.787Z" fill="white"/>
        <path d="M1442.78 250.558C1445.25 261.277 1446.07 272.819 1448.54 283.537C1449.36 286.011 1453.47 286.011 1452.65 282.713C1450.18 271.17 1449.36 259.628 1446.89 248.085C1445.25 246.436 1441.96 248.085 1442.78 250.558Z" fill="white"/>
        <path d="M1451.82 248.91C1454.28 257.154 1456.75 265.399 1458.39 273.644C1459.22 276.117 1463.33 274.468 1462.51 271.995C1460.04 263.75 1457.57 255.505 1455.93 247.261C1455.11 244.787 1450.99 246.436 1451.82 248.91Z" fill="white"/>
        <path d="M1466.62 248.085C1466.62 253.856 1467.45 258.803 1469.91 263.75C1470.73 266.223 1474.85 264.574 1474.02 262.101C1472.38 257.979 1470.73 253.032 1471.56 248.085C1470.73 246.436 1466.62 245.612 1466.62 248.085Z" fill="white"/>
    </g>

    <g opacity="0.3">
        <path d="M1690.95 33.5046C1706.34 23.0995 1727.15 28.0939 1736.51 35.1694C1745.87 42.0368 1742.96 72.628 1737.13 83.0332C1731.31 93.4383 1694.9 93.6464 1686.58 79.9116C1681.59 71.7956 1679.71 41.2044 1690.95 33.5046Z" fill="#FFDD00"/>
        <path d="M1691.78 48.488C1687.83 47.6556 1687.41 57.0202 1691.37 57.0202C1695.11 57.0202 1695.73 49.3204 1691.78 48.488Z" fill="black"/>
        <path d="M1735.05 49.7366C1731.1 48.9042 1730.69 58.2689 1734.64 58.2689C1738.17 58.0608 1739.01 50.5691 1735.05 49.7366Z" fill="black"/>
        <path d="M1701.14 70.3388C1699.69 68.2578 1699.69 65.9687 1699.69 64.7201C1699.69 64.0957 1700.1 63.6795 1700.73 63.6795C1701.35 63.6795 1701.77 64.0957 1701.77 64.7201C1701.97 66.593 1701.77 71.7955 1710.5 72.0037C1710.71 72.0037 1710.92 72.0037 1711.13 72.0037C1715.91 71.7955 1718.2 70.755 1719.24 69.9226C1720.28 68.8821 1720.28 67.6335 1720.28 66.1768C1720.28 65.5525 1720.7 65.1363 1721.32 65.1363C1721.94 65.1363 1722.36 65.5525 1722.36 66.1768C1722.36 67.6335 1722.36 69.7145 1720.7 71.3793C1719.03 73.0442 1716.33 74.0847 1711.13 74.0847C1710.92 74.0847 1710.71 74.0847 1710.5 74.0847C1705.51 74.2928 1702.6 72.4199 1701.14 70.3388Z" fill="black"/>
        <path d="M1710.92 20.186V1.04052C1710.92 0.416206 1711.34 0 1711.96 0C1712.58 0 1713 0.416206 1713 1.04052V20.186C1713 20.8103 1712.58 21.2265 1711.96 21.2265C1711.34 21.2265 1710.92 20.6022 1710.92 20.186Z" fill="black"/>
        <path d="M1748.57 62.8471C1747.95 62.8471 1747.53 62.4309 1747.53 61.8066C1747.53 61.1823 1747.95 60.7661 1748.57 60.7661H1768.96C1769.58 60.7661 1770 61.1823 1770 61.8066C1770 62.4309 1769.58 62.8471 1768.96 62.8471H1748.57Z" fill="black"/>
        <path d="M1657.04 60.9742C1656.42 60.9742 1656 60.3499 1656 59.9337C1656 59.3094 1656.42 58.8932 1657.04 58.8932H1675.35C1675.97 58.8932 1676.39 59.3094 1676.39 59.9337C1676.39 60.558 1675.97 60.9742 1675.35 60.9742H1657.04Z" fill="black"/>
        <path d="M1708.84 113C1708.21 113 1707.8 112.584 1707.8 111.959L1708.42 95.5193C1708.42 94.895 1708.84 94.4788 1709.46 94.4788C1710.09 94.4788 1710.5 94.895 1710.5 95.5193L1709.88 111.959C1709.88 112.376 1709.46 113 1708.84 113Z" fill="black"/>
        <path d="M1727.56 24.7643C1727.15 24.5562 1726.94 23.9319 1727.15 23.3076L1734.84 7.90793C1735.05 7.49172 1735.68 7.28362 1736.3 7.49172C1736.72 7.69982 1736.92 8.32413 1736.72 8.94844L1728.81 24.3481C1728.6 24.7643 1728.19 24.9724 1727.98 24.9724C1727.77 24.9724 1727.56 24.9724 1727.56 24.7643Z" fill="black"/>
        <path d="M1743.37 37.4586C1742.96 37.0424 1743.16 36.418 1743.58 36.0018L1754.81 27.8858C1755.23 27.4696 1755.85 27.6777 1756.27 28.0939C1756.69 28.5101 1756.48 29.1344 1756.06 29.5506L1744.83 37.6667C1744.62 37.8748 1744.41 37.8748 1744.2 37.8748C1744 38.0829 1743.58 37.8748 1743.37 37.4586Z" fill="black"/>
        <path d="M1757.73 88.4438L1742.96 80.744C1742.54 80.5359 1742.33 79.9116 1742.54 79.2873C1742.75 78.8711 1743.37 78.663 1744 78.8711L1758.77 86.5709C1759.18 86.779 1759.39 87.4033 1759.18 88.0276C1758.97 88.4438 1758.56 88.6519 1758.35 88.6519C1757.93 88.6519 1757.73 88.6519 1757.73 88.4438Z" fill="black"/>
        <path d="M1734.22 108.838L1727.56 94.2707C1727.35 93.6464 1727.56 93.2302 1727.98 92.814C1728.6 92.6059 1729.02 92.814 1729.43 93.2302L1736.09 107.797C1736.3 108.422 1736.09 108.838 1735.68 109.254C1735.47 109.254 1735.47 109.254 1735.26 109.254C1734.84 109.462 1734.43 109.254 1734.22 108.838Z" fill="black"/>
        <path d="M1659.54 82.2007C1659.33 81.5764 1659.74 81.1602 1660.37 80.9521L1678.26 76.3738C1678.88 76.1657 1679.3 76.5819 1679.51 77.2062C1679.72 77.8306 1679.3 78.2468 1678.68 78.4549L1660.78 83.0331H1660.58C1659.95 82.825 1659.54 82.6169 1659.54 82.2007Z" fill="black"/>
        <path d="M1678.88 100.514C1678.47 100.098 1678.26 99.4733 1678.68 99.0571L1686.79 88.4438C1687.21 88.0276 1687.83 87.8195 1688.25 88.2357C1688.66 88.6519 1688.87 89.2762 1688.45 89.6924L1680.34 100.306C1680.13 100.514 1679.92 100.722 1679.51 100.722C1679.3 100.722 1679.09 100.722 1678.88 100.514Z" fill="black"/>
        <path d="M1679.3 43.0774L1665.15 33.7127C1664.74 33.2965 1664.53 32.6722 1664.95 32.256C1665.36 31.8398 1665.99 31.6317 1666.4 32.0479L1680.34 41.4125C1680.76 41.8287 1680.96 42.453 1680.55 42.8692C1680.34 43.0774 1679.92 43.2855 1679.72 43.2855C1679.72 43.2855 1679.51 43.2855 1679.3 43.0774Z" fill="black"/>
        <path d="M1690.32 25.8048L1683.25 12.07C1683.04 11.6538 1683.25 11.0295 1683.67 10.6133C1684.08 10.4052 1684.71 10.6133 1685.12 11.0295L1692.2 24.7643C1692.4 25.1805 1692.2 25.8048 1691.78 26.221C1691.57 26.221 1691.36 26.4291 1691.36 26.4291C1690.74 26.4291 1690.53 26.221 1690.32 25.8048Z" fill="black"/>
    </g>

    <g opacity="0.2">
        <path d="M1228.4 178.8C1232.5 175 1232.4 168.1 1227.8 164.4C1226.9 163.7 1225.9 163.1 1225 162.7C1225 162.6 1225 162.5 1225 162.4C1224 139.4 1206.2 120.5 1183 119.1C1172 118.4 1161 122 1152.5 129.1C1144.8 135.5 1137.8 145.6 1137.5 155.9V156C1134.5 156.3 1131.6 157.4 1130.2 160.3C1129.5 161.8 1129.2 163.6 1129.6 165.2C1125.3 163.4 1119.6 163.4 1118.2 169C1117 173.6 1121.3 176 1125.4 176.4C1120.4 180 1117.2 188.1 1122.6 192.2C1127.5 195.9 1137.3 193.7 1139.8 187.8C1140.7 192 1145.3 195.1 1149.7 193.7C1153.1 192.6 1155.5 188.9 1155.4 185.3C1161.1 187.9 1168.4 182.3 1168.2 175.9C1168.1 172.1 1166.2 169.1 1163.6 167.1C1165.3 160.2 1169.7 154.4 1177 153.1C1185 151.6 1195.2 157.2 1193.5 166.4C1193.5 166.5 1193.5 166.6 1193.5 166.7C1191.2 170.1 1192.6 174.5 1195.4 177.8C1190.4 177.4 1185.7 182.3 1186.8 187.6C1187.4 190.5 1189.6 192.8 1192.6 193.3C1194.4 193.6 1196.6 193.2 1198 192.1C1199.4 196.2 1203.6 199.2 1208 198.8C1211.9 198.5 1215.4 195.4 1216.5 191.7C1220.5 195.6 1227.4 195.3 1231.3 191C1235.6 186.3 1233.1 181.2 1228.4 178.8ZM1153.3 132C1161.3 124.9 1171.7 121.4 1182.3 121.8C1204.1 122.7 1221.1 140.5 1222 162.1C1218.7 161.9 1215.4 163.6 1213.1 166.3C1215.2 149.6 1202.9 133.3 1186 130.7C1170.3 128.3 1144.1 139.7 1147.6 159.2C1147.8 160.3 1149.6 160 1149.6 158.9C1149.5 140.9 1171 130.6 1186.8 133.7C1202.5 136.8 1213 152.6 1210 168.1C1208.7 166.3 1207.1 164.8 1205.2 163.9C1205.2 163.7 1205.3 163.6 1205.2 163.3C1203.6 150 1192.6 139.6 1178.9 139.9C1166 140.2 1153.6 150.9 1154.2 164.4C1154.2 164.5 1154.2 164.5 1154.2 164.5C1152.6 164.6 1150.9 165.1 1149.4 165.8C1150.7 160.3 1144.6 156.1 1139.2 155.9C1142.5 146.8 1145.8 138.6 1153.3 132ZM1165.1 174.6C1166.5 181.1 1160.1 185.4 1154.7 182.7C1154.5 182.4 1154.4 182.1 1154.2 181.8C1153.6 180.9 1151.8 181.4 1152.3 182.6C1153.5 185.9 1152.9 190.1 1149.3 191.5C1145.4 193 1141.3 189.6 1140.6 185.8C1140.6 185.6 1140.4 185.5 1140.2 185.5C1139.9 185.1 1139.3 185 1138.9 185.4C1135.3 189.1 1131.6 193.5 1125.8 190.8C1117.8 187.3 1126.2 179.4 1129.6 176.1C1130.4 175.7 1130.1 174.5 1129.2 174.4C1126.3 174.1 1119 174.1 1120.6 169.1C1122 164.7 1127.3 165.6 1130.6 167.1C1130.7 167.3 1130.8 167.4 1131 167.6C1131.7 168.4 1133.1 167.6 1132.7 166.6C1130.9 161.7 1133.6 158.3 1139 158.4C1143.9 158.5 1148.8 162 1147 167.4C1146.7 168.3 1148.1 168.9 1148.6 168.1C1148.7 168 1148.7 167.9 1148.8 167.8C1149 168 1149.4 168.2 1149.8 168.1C1155.8 166.2 1163.5 167.2 1165.1 174.6ZM1180.4 150.4C1171.2 150.2 1163.1 157 1161.8 166C1159.9 165 1157.7 164.4 1155.5 164.4C1158 152.9 1165.3 143.1 1178 142.4C1190.4 141.9 1200.6 151 1202.3 163C1200.4 162.7 1198.4 163 1196.5 164.1C1196.3 156.1 1188.3 150.6 1180.4 150.4ZM1229 189.8C1225.4 193.3 1220.5 192.5 1217 189.5C1217 189.3 1217 189.1 1217 188.9C1216.9 187.7 1214.9 187.2 1214.7 188.6C1214.2 192.2 1212.4 195.5 1208.6 196.3C1204.4 197.2 1200.8 193.9 1199.7 190.2C1199.6 189.8 1199.3 189.6 1199 189.5C1198.8 189.4 1198.6 189.4 1198.4 189.5C1196.7 190.5 1195.4 191.6 1193.2 191.2C1190.9 190.8 1189.4 189 1189.1 186.8C1188.6 181.6 1193.5 179.2 1198 180.3C1198.9 180.5 1199.4 179.3 1198.6 178.8C1198.5 178.8 1198.5 178.7 1198.4 178.7C1195.9 174.8 1192.1 169.6 1197.7 166.3C1202.8 163.2 1207.4 167.4 1209.7 171.8C1210.2 172.8 1212 172.1 1211.6 171C1211.5 170.8 1211.4 170.6 1211.3 170.4C1211.7 170.7 1212.3 170.7 1212.6 170.2C1214.8 165.5 1220.5 162.7 1225.3 165.6C1230 168.5 1229.8 174.7 1225.5 177.6C1225 177.6 1224.7 177.8 1224.5 178.2C1223.4 179.1 1224.6 180.9 1226 180.2H1226.1C1227.3 180.9 1228.5 181.6 1229.5 182.6C1231.8 184.9 1231 187.8 1229 189.8Z" fill="white"/>
    </g>
</svg>
