<svg width="1920" height="900" viewBox="0 0 1920 900" fill="none" xmlns="http://www.w3.org/2000/svg">
    <path opacity="0.3" d="M635.102 545.934V539.212L629.593 538.783C629.146 536.638 628.253 534.779 627.062 533.063L630.635 529.058L625.573 524.196L621.404 527.628C619.617 526.484 617.532 525.626 615.448 525.197L615.001 519.906H607.854L607.407 525.197C605.174 525.626 603.238 526.484 601.451 527.628L597.282 524.196L592.219 529.058L595.793 533.063C594.602 534.779 593.708 536.781 593.262 538.783L587.752 539.212V546.077L593.262 546.506C593.708 548.651 594.602 550.51 595.793 552.226L592.219 556.231L597.282 561.093L601.451 557.661C603.238 558.805 605.323 559.663 607.407 560.092L607.854 565.383H615.001L615.448 560.092C617.681 559.663 619.617 558.805 621.404 557.661L625.573 561.093L630.635 556.231L627.062 552.226C628.253 550.51 629.146 548.508 629.593 546.506L635.102 545.934ZM624.084 542.501C624.084 549.223 618.426 554.657 611.427 554.657C604.429 554.657 598.771 549.223 598.771 542.501C598.771 535.78 604.429 530.345 611.427 530.345C618.426 530.488 624.084 535.923 624.084 542.501Z" fill="white"/>
</svg>
