<svg width="1920" height="900" viewBox="0 0 1920 900" fill="none" xmlns="http://www.w3.org/2000/svg">
    <path opacity="0.4" d="M1434.89 576.83C1429.68 576.83 1425.36 580.977 1425.36 585.983C1425.36 590.988 1429.68 595.136 1434.89 595.136C1440.1 595.136 1444.42 590.988 1444.42 585.983C1444.42 580.834 1440.1 576.83 1434.89 576.83ZM1434.89 592.132C1431.32 592.132 1428.34 589.272 1428.34 585.84C1428.34 582.407 1431.32 579.547 1434.89 579.547C1438.46 579.547 1441.44 582.407 1441.44 585.84C1441.44 589.272 1438.46 592.132 1434.89 592.132ZM1455.29 601.285L1451.12 597.281C1450.38 596.566 1449.18 596.28 1448.29 596.566L1446.95 595.279C1449.04 592.704 1450.38 589.558 1450.38 585.983C1450.38 577.974 1443.53 571.396 1435.19 571.396C1426.85 571.396 1420 577.974 1420 585.983C1420 593.991 1426.85 600.57 1435.19 600.57C1438.91 600.57 1442.19 599.283 1444.87 597.281L1446.21 598.568C1445.91 599.569 1446.21 600.57 1446.95 601.285L1451.12 605.289C1451.72 605.861 1452.46 606.147 1453.2 606.147C1453.95 606.147 1454.69 605.861 1455.29 605.289C1456.33 604.288 1456.33 602.429 1455.29 601.285ZM1422.68 585.84C1422.68 579.404 1428.19 574.113 1434.89 574.113C1441.59 574.113 1447.1 579.404 1447.1 585.84C1447.1 592.275 1441.59 597.567 1434.89 597.567C1428.19 597.71 1422.68 592.418 1422.68 585.84Z" fill="#8F50F2"/>
</svg>
