<svg width="1920" height="900" viewBox="0 0 1920 900" fill="none" xmlns="http://www.w3.org/2000/svg">
    <path opacity="0.4" d="M438.037 487.847H424.338C424.189 487.847 424.189 487.847 424.041 487.847C424.041 487.847 424.041 487.847 423.892 487.847C423.743 487.847 423.743 487.99 423.594 487.99L416.149 495.141C416 495.284 416 495.284 416 495.427C416 495.427 416 495.427 416 495.57C416 495.713 416 495.713 416 495.856V517.879C416 518.451 416.447 518.881 417.042 518.881H438.186C438.782 518.881 439.228 518.451 439.228 517.879V488.848C439.228 488.276 438.782 487.847 438.037 487.847ZM423.296 491.422V494.998H419.574L423.296 491.422ZM436.995 517.021H418.085V497.143H424.487C425.083 497.143 425.53 496.714 425.53 496.142V489.992H436.995V517.021Z" fill="#8F50F2"/>
</svg>
