<svg width="1753" height="686" viewBox="0 0 1753 686" fill="none" xmlns="http://www.w3.org/2000/svg">
    <g opacity="0.2">
        <path d="M1344.4 59.8001C1348.5 56.0001 1348.4 49.1001 1343.8 45.4001C1342.9 44.7001 1341.9 44.1001 1341 43.7001C1341 43.6001 1341 43.5001 1341 43.4001C1340 20.4001 1322.2 1.50006 1299 0.100062C1288 -0.599938 1277 3.00006 1268.5 10.1001C1260.8 16.5001 1253.8 26.6001 1253.5 36.9001V37.0001C1250.5 37.3001 1247.6 38.4001 1246.2 41.3001C1245.5 42.8001 1245.2 44.6001 1245.6 46.2001C1241.3 44.4001 1235.6 44.4001 1234.2 50.0001C1233 54.6001 1237.3 57.0001 1241.4 57.4001C1236.4 61.0001 1233.2 69.1001 1238.6 73.2001C1243.5 76.9001 1253.3 74.7001 1255.8 68.8001C1256.7 73.0001 1261.3 76.1001 1265.7 74.7001C1269.1 73.6001 1271.5 69.9001 1271.4 66.3001C1277.1 68.9001 1284.4 63.3001 1284.2 56.9001C1284.1 53.1001 1282.2 50.1001 1279.6 48.1001C1281.3 41.2001 1285.7 35.4001 1293 34.1001C1301 32.6001 1311.2 38.2001 1309.5 47.4001C1309.5 47.5001 1309.5 47.6001 1309.5 47.7001C1307.2 51.1001 1308.6 55.5001 1311.4 58.8001C1306.4 58.4001 1301.7 63.3001 1302.8 68.6001C1303.4 71.5001 1305.6 73.8001 1308.6 74.3001C1310.4 74.6001 1312.6 74.2001 1314 73.1001C1315.4 77.2001 1319.6 80.2001 1324 79.8001C1327.9 79.5001 1331.4 76.4001 1332.5 72.7001C1336.5 76.6001 1343.4 76.3001 1347.3 72.0001C1351.6 67.3001 1349.1 62.2001 1344.4 59.8001ZM1269.3 13.0001C1277.3 5.90006 1287.7 2.40006 1298.3 2.80006C1320.1 3.70006 1337.1 21.5001 1338 43.1001C1334.7 42.9001 1331.4 44.6001 1329.1 47.3001C1331.2 30.6001 1318.9 14.3001 1302 11.7001C1286.3 9.30006 1260.1 20.7001 1263.6 40.2001C1263.8 41.3001 1265.6 41.0001 1265.6 39.9001C1265.5 21.9001 1287 11.6001 1302.8 14.7001C1318.5 17.8001 1329 33.6001 1326 49.1001C1324.7 47.3001 1323.1 45.8001 1321.2 44.9001C1321.2 44.7001 1321.3 44.6001 1321.2 44.3001C1319.6 31.0001 1308.6 20.6001 1294.9 20.9001C1282 21.2001 1269.6 31.9001 1270.2 45.4001C1270.2 45.5001 1270.2 45.5001 1270.2 45.5001C1268.6 45.6001 1266.9 46.1001 1265.4 46.8001C1266.7 41.3001 1260.6 37.1001 1255.2 36.9001C1258.5 27.8001 1261.8 19.6001 1269.3 13.0001ZM1281.1 55.6001C1282.5 62.1001 1276.1 66.4001 1270.7 63.7001C1270.5 63.4001 1270.4 63.1001 1270.2 62.8001C1269.6 61.9001 1267.8 62.4001 1268.3 63.6001C1269.5 66.9001 1268.9 71.1001 1265.3 72.5001C1261.4 74.0001 1257.3 70.6001 1256.6 66.8001C1256.6 66.6001 1256.4 66.5001 1256.2 66.5001C1255.9 66.1001 1255.3 66.0001 1254.9 66.4001C1251.3 70.1001 1247.6 74.5001 1241.8 71.8001C1233.8 68.3001 1242.2 60.4001 1245.6 57.1001C1246.4 56.7001 1246.1 55.5001 1245.2 55.4001C1242.3 55.1001 1235 55.1001 1236.6 50.1001C1238 45.7001 1243.3 46.6001 1246.6 48.1001C1246.7 48.3001 1246.8 48.4001 1247 48.6001C1247.7 49.4001 1249.1 48.6001 1248.7 47.6001C1246.9 42.7001 1249.6 39.3001 1255 39.4001C1259.9 39.5001 1264.8 43.0001 1263 48.4001C1262.7 49.3001 1264.1 49.9001 1264.6 49.1001C1264.7 49.0001 1264.7 48.9001 1264.8 48.8001C1265 49.0001 1265.4 49.2001 1265.8 49.1001C1271.8 47.2001 1279.5 48.2001 1281.1 55.6001ZM1296.4 31.4001C1287.2 31.2001 1279.1 38.0001 1277.8 47.0001C1275.9 46.0001 1273.7 45.4001 1271.5 45.4001C1274 33.9001 1281.3 24.1001 1294 23.4001C1306.4 22.9001 1316.6 32.0001 1318.3 44.0001C1316.4 43.7001 1314.4 44.0001 1312.5 45.1001C1312.3 37.1001 1304.3 31.6001 1296.4 31.4001ZM1345 70.8001C1341.4 74.3001 1336.5 73.5001 1333 70.5001C1333 70.3001 1333 70.1001 1333 69.9001C1332.9 68.7001 1330.9 68.2001 1330.7 69.6001C1330.2 73.2001 1328.4 76.5001 1324.6 77.3001C1320.4 78.2001 1316.8 74.9001 1315.7 71.2001C1315.6 70.8001 1315.3 70.6001 1315 70.5001C1314.8 70.4001 1314.6 70.4001 1314.4 70.5001C1312.7 71.5001 1311.4 72.6001 1309.2 72.2001C1306.9 71.8001 1305.4 70.0001 1305.1 67.8001C1304.6 62.6001 1309.5 60.2001 1314 61.3001C1314.9 61.5001 1315.4 60.3001 1314.6 59.8001C1314.5 59.8001 1314.5 59.7001 1314.4 59.7001C1311.9 55.8001 1308.1 50.6001 1313.7 47.3001C1318.8 44.2001 1323.4 48.4001 1325.7 52.8001C1326.2 53.8001 1328 53.1001 1327.6 52.0001C1327.5 51.8001 1327.4 51.6001 1327.3 51.4001C1327.7 51.7001 1328.3 51.7001 1328.6 51.2001C1330.8 46.5001 1336.5 43.7001 1341.3 46.6001C1346 49.5001 1345.8 55.7001 1341.5 58.6001C1341 58.6001 1340.7 58.8001 1340.5 59.2001C1339.4 60.1001 1340.6 61.9001 1342 61.2001H1342.1C1343.3 61.9001 1344.5 62.6001 1345.5 63.6001C1347.8 65.9001 1347 68.8001 1345 70.8001Z" fill="white"/>

        <path d="M1336.6 676C1336.5 675.7 1336.4 675.4 1336.1 675.3C1336.2 675 1336.2 674.6 1336 674.2C1330.4 665.3 1324.8 656.4 1319.2 647.5C1314 639.2 1309.3 630 1303 622.5C1302.9 622.4 1302.8 622.3 1302.7 622.3C1302.7 622.2 1302.6 622.2 1302.6 622.1C1298.1 617.1 1292.7 612.9 1287.1 609.2C1286.3 608.6 1285.3 609.4 1285.2 610.3C1284.7 616.9 1284.7 624.8 1287.8 630.8C1287.9 630.9 1288 630.9 1288 631C1287.9 631.3 1287.9 631.6 1288.1 631.9C1298.6 645.4 1307.6 659.5 1316.4 674C1316.4 674.1 1316.5 674.2 1316.6 674.3C1318.5 677.4 1320.4 680.5 1322.2 683.6L1322.3 683.7C1322.3 683.8 1322.4 683.8 1322.5 683.9C1322.5 683.9 1322.5 683.9 1322.6 684C1328.3 687.5 1337.7 683.3 1336.6 676ZM1287.7 612.6C1292.3 615.7 1296.5 619.3 1300.6 623.1C1297.3 626.3 1293.6 628 1289.3 629.7C1288.9 623.9 1287.8 618.4 1287.7 612.6ZM1289.8 631.3C1294.5 630.7 1299 628.1 1302.3 624.9C1303 626.4 1303.9 628 1304.7 629.5C1302 633 1298.6 635.4 1294 635.7C1292.6 634.2 1291.3 632.7 1289.8 631.3ZM1295.2 637C1299.4 636.8 1303.5 634.8 1305.9 631.4C1306.5 632.4 1307.1 633.4 1307.7 634.3C1305.1 637.5 1301.6 639.4 1297.5 639.7C1296.8 638.8 1296 637.9 1295.2 637ZM1302.5 646.3C1305.3 644.9 1308.6 644.5 1311.2 646.8C1313.1 648.5 1314.5 651.3 1315.8 653.5C1318 657.4 1325.4 669.7 1318.2 672C1313.4 663.2 1308.3 654.4 1302.5 646.3ZM1319.3 674.2C1327.8 671.5 1321.7 659.2 1318.8 653.9C1314.7 646.4 1309.3 639.8 1301.6 645C1300.6 643.6 1299.6 642.3 1298.5 640.9C1302.5 640.9 1306.2 639.2 1308.9 636.1C1311.8 640.6 1314.8 645 1317.6 649.5C1321.7 656.1 1325.9 662.7 1330 669.3C1328.8 670.8 1327.7 672.3 1325.9 673.3C1324 674.4 1322 674.8 1319.9 675.2C1319.6 674.9 1319.5 674.6 1319.3 674.2ZM1321.5 678.4C1321.2 677.8 1320.9 677.3 1320.6 676.7C1324.5 677.1 1329.1 674.8 1331.2 671.4C1331.5 671.8 1331.8 672.3 1332 672.7C1329.7 676.6 1326.2 679.1 1321.5 678.4ZM1334.3 676.3C1334.4 679 1332.7 681.2 1330.1 682.2C1328 683 1325.9 682.7 1323.7 682.8C1323.2 681.9 1322.8 681 1322.3 680.1C1326.5 680.7 1331.4 678.7 1333.3 674.9C1333.4 675.1 1333.6 675.3 1333.7 675.6C1333.8 675.8 1334 676 1334.2 676.1C1334.3 676 1334.3 676.1 1334.3 676.3Z" fill="white"/>

        <path d="M561.6 48.9C560 45.4 556.4 46.3 553.9 48.2C554.8 45.5 554.9 42.5 552 40.8C549.5 39.3 547.4 40.7 546.1 42.8C545.8 42.2 545.4 41.7 544.9 41.2C543.2 39.7 540.9 39.6 539 40.8C535.9 42.7 535 47.6 536.8 50.7C528.1 50.7 519.8 58.4 517.7 66.6C517.1 69 517 71.4 517.3 73.7C517 73.9 517.1 74.2999 517.4 74.5C517.9 76.9 518.8 79.2 520.2 81.2C516.5 81.2999 512.9 84.2999 512.1 87.7999C511.1 91.8999 515.3 91.8999 518.8 90.7999C518 91.7999 517.4 93 517.3 94.4C517.1 96.4 517.8 98.5999 519.7 99.5999C523.2 101.4 526.1 98.7999 527.6 95.7C528.4 97.1 530 98 531.8 97.5999C536.1 96.5 536.3 91.0999 534.7 87.5999C543 86.6999 549.5 80.0999 552.1 72.0999C553.5 67.9999 554.5 63 552.9 59C553 59 553.1 58.9 553.3 58.9C556.4 56.9 564.1 54.2 561.6 48.9ZM533.1 93.9C531.5 96.6 527.7 95 529.1 92C529.2 91.7 529.1 91.2999 528.9 91.0999C528.7 90.3999 527.4 90.1 527 90.9C525.9 93.3 525.1 98.1999 521.4 97.5999C519.4 97.2999 519 95.0999 519.5 93.5C520 91.7 521.5 90.4 522.7 89C523.1 88.5999 522.8 87.8999 522.3 87.7999C522.1 87.5999 521.8 87.3999 521.4 87.5999C520 88.0999 518.5 88.7999 517 89C516.2 89.0999 514.6 89.5 514.3 88.2999C514.2 87.8999 514.8 87 515 86.5999C516.4 84.0999 518.9 83 521.6 82.7C522.8 84 524.3 85.1 526 85.9C524.8 87.6 523.7 89.3999 523 91.2999C522.9 91.7 523.4 91.9 523.6 91.7C525.1 90.2999 526.6 88.3999 527.6 86.5999C528.5 86.8999 529.4 87.0999 530.4 87.2999C531.1 87.3999 531.8 87.5 532.5 87.5C533 89.5999 534.3 91.7 533.1 93.9ZM532.5 84.9C526 84.8 521.4 80.2999 520 74.5999C527.4 75 535.5 75.7 538.4 83.7L538.5 83.7999C536.7 84.5999 534.7 85 532.5 84.9ZM540.3 83C537.6 74.2999 527.9 72.6 519.8 73.4C519.6 71.8 519.6 70.2 519.8 68.5C519.9 68.6 520.1 68.6 520.3 68.6C530.1 66.3 539.2 70.2 544.3 79C544.5 79.2999 544.7 79.4 544.9 79.5C543.6 80.9 542 82.0999 540.3 83ZM546.2 77.9C542 68.4 529.8 63.3 520.1 67.2C520.2 67 520.2 66.8 520.2 66.6C520.9 64.3 522.1 62.1999 523.6 60.2999C523.7 60.5 524 60.6 524.3 60.5C534.7 58.2999 544.4 61.9999 548.6 72.0999C548.7 72.3999 548.9 72.6 549.1 72.7C548.4 74.5 547.4 76.3 546.2 77.9ZM550.2 69.6C545.4 60.4 534.8 55.2999 524.8 58.7999C528.4 54.9999 533.4 52.4 538.4 52.4C538.4 52.4 538.4 52.4 538.5 52.4C538.5 52.9 538.7 53.3 539.3 53.5C542.8 54.5 546.9 55 549.3 58.2C551.8 61.4 551.3 65.9 550.2 69.6ZM552.1 57.2999C550.8 55.2999 548.9 54 546.8 53C547.5 51.7 548 50.4 548.5 49.1C548.8 48.3 547.5 47.8 547.1 48.5C546.5 49.7 545.8 51.0999 545.3 52.4C543.8 51.9 542.2 51.5 540.8 51.3C540.7 51.2 540.6 51.1 540.5 51.1C540.2 51 539.9 51 539.6 50.9C538.5 48.7 537.6 46.5 539.1 44.2C540.9 41.2 545.1 42.1 544.7 45.8C544.7 45.9 544.7 46.1 544.8 46.2C544.7 46.9 545.8 47.4 546.1 46.7C546.9 45 548.9 41.3 551.2 43.1C553.8 45.0999 551.6 48.7 550.4 50.8C549.7 52 551.5 53 552.2 51.8C552.2 51.7 552.3 51.7 552.3 51.6C553.7 50.6 554.9 49.0999 556.6 48.7C558.4 48.3 560.3 49.2 559.8 51.4C559 54.7 554.4 55.4 552.1 57.2999Z" fill="white"/>
    </g>
</svg>
