<svg width="1920" height="900" viewBox="0 0 1920 900" fill="none" xmlns="http://www.w3.org/2000/svg">
    <path opacity="0.3" d="M338.906 615.134V597.687L324.612 596.686C323.42 591.394 321.187 586.389 318.209 581.955L327.59 571.516L314.784 559.217L303.915 568.226C299.299 565.366 294.087 563.221 288.578 562.077L287.536 548.348H269.37L268.328 562.077C262.819 563.221 257.607 565.366 252.991 568.226L242.122 559.217L229.316 571.516L238.697 581.955C235.719 586.389 233.485 591.394 232.294 596.686L218 597.687V615.134L232.294 616.135C233.485 621.427 235.719 626.432 238.697 630.865L229.316 641.305L242.122 653.604L252.991 644.594C257.607 647.455 262.819 649.6 268.328 650.744L269.37 664.473H287.536L288.578 650.744C294.087 649.6 299.299 647.455 303.915 644.594L314.784 653.604L327.59 641.305L318.209 630.865C321.187 626.432 323.42 621.427 324.612 616.135L338.906 615.134ZM310.764 606.41C310.764 623.572 296.321 637.444 278.453 637.444C260.585 637.444 246.142 623.572 246.142 606.41C246.142 589.249 260.585 575.377 278.453 575.377C296.321 575.377 310.764 589.249 310.764 606.41Z" fill="white"/>
</svg>
