<svg width="1781" height="832" viewBox="0 0 1781 832" xmlns="http://www.w3.org/2000/svg">
    <g opacity="0.15">
        <path d="M117.389 180.898C117.389 180.898 127.517 204.605 136.41 206.102C136.41 206.102 135.669 198.865 142.586 196.619C142.586 196.619 147.526 183.892 158.89 187.636C158.89 187.636 167.536 178.402 176.429 183.643C176.429 183.643 184.581 173.162 192.98 183.892C192.98 183.892 200.638 180.399 203.108 191.129C203.108 191.129 211.754 172.912 211.507 165.425C211.507 165.425 202.367 154.695 195.945 156.941C195.945 156.941 187.545 148.706 179.393 154.196C179.393 154.196 160.125 145.212 145.303 160.934C145.303 160.934 130.975 161.433 129.246 171.415C124.306 172.912 117.389 180.898 117.389 180.898Z" fill="white"/>
        <path d="M127.267 143.715C122.821 144.962 119.609 149.953 117.88 153.946C114.916 160.434 113.927 167.921 115.163 174.908C117.88 190.381 130.726 203.108 141.595 213.09C148.018 219.079 154.935 224.569 161.851 229.81C162.593 230.309 163.087 229.311 162.593 228.811C148.018 217.831 132.949 205.853 123.068 190.381C117.633 182.145 114.669 172.662 116.398 162.93C117.386 156.442 120.844 146.709 127.761 144.962C128.502 144.713 128.255 143.715 127.267 143.715Z" fill="white"/>
        <path d="M143.573 133.483C140.608 131.487 136.903 133.483 134.433 135.729C129.986 139.722 127.516 146.21 126.775 152.199C124.057 170.666 134.186 185.39 145.055 199.115C151.972 207.849 159.136 216.334 164.57 226.316C165.065 227.065 166.053 226.316 165.559 225.567C157.654 210.844 145.796 199.364 136.656 185.639C128.257 172.912 123.316 155.194 131.715 140.969C133.692 137.725 138.632 131.986 142.832 134.481C143.573 134.98 144.067 133.733 143.573 133.483Z" fill="white"/>
        <path d="M172.97 223.321C168.523 203.856 158.148 186.887 149.996 168.919C145.055 157.939 136.409 137.226 149.749 128.492C155.184 124.998 163.583 123.75 169.264 127.743C174.452 131.237 176.675 137.975 177.91 143.715C179.146 150.203 179.393 156.941 179.146 163.429C178.899 169.668 177.663 175.657 177.416 181.646C176.675 195.122 177.416 208.847 178.652 222.323C178.652 223.072 179.887 223.072 179.887 222.323C178.652 209.346 178.158 196.37 178.652 183.393C178.899 176.655 180.134 169.917 180.628 163.18C180.875 156.442 180.628 149.454 179.393 142.966C178.158 137.226 175.934 130.987 171.241 127.244C166.547 123.251 160.124 123.251 154.443 124.998C139.127 129.989 141.35 146.709 145.549 159.187C148.761 168.919 153.701 177.903 158.395 187.136C164.077 198.865 169.511 210.844 172.476 223.571C171.982 224.32 173.217 224.07 172.97 223.321Z" fill="white"/>
        <path d="M171.734 127.743C205.083 117.512 193.226 184.142 189.52 199.364C187.791 207.101 185.568 214.837 184.086 222.573C183.838 223.321 185.074 223.571 185.321 222.822C188.285 207.101 193.226 191.628 194.708 175.657C195.696 166.174 196.19 156.691 194.955 147.208C194.214 140.969 192.485 134.232 188.285 129.49C183.838 124.749 177.416 124.499 171.487 126.246C170.499 126.745 170.993 127.993 171.734 127.743Z" fill="white"/>
        <path d="M188.038 130.987C200.143 130.239 208.048 144.214 210.024 154.445C213.482 171.415 205.824 186.138 197.425 200.363C193.226 207.6 189.026 215.086 186.556 223.072C186.309 223.82 187.544 224.07 187.791 223.321C192.485 207.101 204.836 194.373 209.777 178.153C213.976 164.178 212.741 146.709 202.119 135.978C198.413 132.235 193.473 129.241 188.038 129.49C187.05 129.74 187.05 130.987 188.038 130.987Z" fill="white"/>
        <path d="M162.102 232.305C161.114 228.063 167.042 225.817 170.254 224.819C174.453 223.571 179.394 222.573 183.84 223.072C185.323 223.321 187.052 223.321 187.793 224.819C188.04 225.068 187.546 225.567 188.04 225.068H187.793C187.299 225.318 186.558 225.318 186.311 225.567C181.617 226.815 177.171 227.813 172.477 229.061C168.772 230.059 165.313 230.808 161.608 231.806C160.867 232.056 161.114 233.303 161.855 233.054C166.054 232.056 170.254 230.808 174.453 229.81C177.418 229.061 180.629 228.312 183.593 227.564C184.829 227.314 187.052 227.065 188.287 226.316C191.004 224.32 186.558 222.323 185.076 221.824C180.135 220.826 174.453 222.074 169.513 223.571C165.807 224.819 159.878 227.564 161.114 232.555C161.114 233.553 162.349 233.303 162.102 232.305Z" fill="white"/>
        <path d="M164.074 233.553C165.804 237.546 167.533 241.539 169.262 245.531C169.509 246.28 170.744 245.531 170.25 244.783C168.521 240.79 166.792 236.797 165.063 232.804C164.816 232.056 163.827 232.804 164.074 233.553Z" fill="white"/>
        <path d="M186.061 226.815C186.061 232.056 186.061 237.296 186.061 242.537C186.061 243.285 187.296 243.285 187.296 242.537C187.296 237.296 187.296 232.056 187.296 226.815C187.296 226.066 186.061 226.066 186.061 226.815Z" fill="white"/>
        <path d="M188.284 241.539C182.108 243.036 175.685 244.284 169.51 245.781C169.263 245.781 169.016 246.031 169.016 246.28C169.263 250.772 169.51 256.512 171.486 260.754C173.215 264.248 179.144 262.501 182.108 262.002C185.32 261.253 191.989 260.255 192.731 256.013C193.472 251.521 190.754 246.031 189.272 241.788C189.025 241.04 187.79 241.289 188.037 242.038C189.519 245.781 191.989 251.271 191.495 255.264C191.248 257.759 187.79 258.758 185.567 259.506C182.849 260.504 179.885 261.004 176.921 261.253C174.203 261.503 172.721 261.253 171.98 258.259C171.239 255.264 170.992 252.269 170.498 249.275C170.498 248.526 170.498 247.278 170.251 246.53C170.004 246.031 169.51 246.53 170.251 246.53C171.98 246.53 173.956 245.781 175.685 245.282C179.885 244.284 184.332 243.285 188.531 242.287C189.272 242.537 189.025 241.289 188.284 241.539Z" fill="white"/>
        <path d="M170.501 251.77C176.924 250.273 183.347 248.526 189.77 246.53C190.511 246.28 190.264 245.032 189.523 245.282C183.1 247.029 176.677 249.025 170.254 250.522C169.513 250.772 169.76 252.02 170.501 251.77Z" fill="white"/>
        <path d="M109.976 165.925C109.976 165.925 109.976 166.424 109.976 166.923C109.976 167.172 109.976 167.671 109.976 168.171C109.976 168.67 109.976 169.169 109.976 169.668C109.976 170.167 109.976 170.666 109.976 171.415C109.976 171.914 109.976 172.662 110.223 173.411C110.223 174.16 110.223 174.659 110.47 175.408C110.47 176.156 110.717 176.655 110.717 177.404C110.717 178.153 110.964 178.652 110.964 179.4C110.964 180.149 111.211 180.648 111.458 181.397C111.705 182.145 111.705 182.644 111.952 183.144C112.2 183.643 112.2 184.142 112.447 184.641C112.694 185.14 112.694 185.639 112.941 185.889C113.188 186.388 113.188 186.637 113.435 186.887C113.682 187.386 113.929 187.885 113.929 187.885C113.929 187.885 113.435 187.636 112.941 187.136C112.694 186.887 112.447 186.637 112.2 186.388C111.952 186.138 111.458 185.639 111.211 185.14C110.964 184.641 110.47 184.142 110.223 183.643C109.976 183.144 109.729 182.395 109.482 181.896C109.235 181.147 108.988 180.648 108.741 179.899C108.494 179.151 108.494 178.402 108.247 177.653C108.247 176.905 108 176.156 108 175.408C108 174.659 108 173.91 108 173.162C108 172.413 108.247 171.664 108.247 171.165C108.247 170.416 108.494 169.917 108.494 169.418C108.741 168.919 108.741 168.42 108.988 167.921C109.235 167.422 109.235 167.172 109.482 166.923C109.729 166.174 109.976 165.925 109.976 165.925Z" fill="white"/>
        <path d="M116.153 193.874C116.153 193.874 116.4 193.874 116.4 194.124C116.647 194.124 116.894 194.373 117.141 194.623C117.388 194.873 117.635 194.873 117.882 195.122L118.129 195.372L118.376 195.621C118.623 195.871 118.623 195.871 118.87 196.12C118.87 196.37 119.117 196.619 119.364 196.869C119.364 197.119 119.611 197.368 119.611 197.618C119.611 197.867 119.611 197.867 119.611 197.867C119.611 197.867 119.611 197.867 119.364 198.117C119.117 198.117 118.87 198.366 118.623 198.366C118.376 198.366 117.882 198.366 117.635 198.117C117.388 197.867 116.894 197.867 116.647 197.368C116.4 197.119 116.4 197.119 116.4 196.869C116.4 196.619 116.153 196.619 116.153 196.37C116.153 196.12 115.906 195.621 116.153 195.372C116.153 195.122 116.4 194.873 116.4 194.623C116.153 193.874 116.153 193.874 116.153 193.874Z" fill="white"/>
        <path d="M200.144 210.594C199.897 210.844 199.897 211.093 199.897 211.093C199.897 211.592 199.65 212.092 199.65 212.84C199.403 214.337 199.156 216.084 198.662 218.081C198.168 219.828 197.426 221.824 196.932 223.072C196.685 223.82 196.438 224.32 196.191 224.819C195.944 225.318 195.944 225.318 195.944 225.318C195.944 225.318 195.944 225.068 195.697 224.569C195.697 224.07 195.697 223.571 195.697 222.822C195.697 221.325 195.944 219.329 196.438 217.332C196.932 215.336 197.674 213.589 198.662 212.341C199.156 211.592 199.403 211.093 199.897 210.844C199.65 210.844 199.897 210.844 200.144 210.594Z" fill="white"/>
        <path d="M195.203 232.056C195.203 232.056 195.45 232.305 195.203 232.056C195.697 232.305 195.697 232.555 195.944 232.804C196.191 233.054 196.191 233.303 196.438 233.303C196.438 233.553 196.685 233.553 196.685 233.802C196.685 234.302 196.685 234.801 196.438 235.3C196.438 235.549 196.191 235.799 195.944 235.799C195.944 236.048 195.697 236.048 195.697 236.048C195.697 236.048 195.697 236.048 195.45 236.048C195.203 236.048 195.203 235.799 194.956 235.799C194.462 235.549 194.215 235.05 194.215 234.551C194.215 234.302 194.215 234.052 194.215 233.802C194.215 233.553 194.462 233.303 194.462 233.054C194.709 232.804 194.709 232.804 194.956 232.555C195.203 232.305 195.203 232.056 195.203 232.056Z" fill="white"/>
        <path d="M116.152 168.67C118.375 164.926 122.328 162.93 126.774 163.429C127.021 163.429 127.268 163.18 127.268 162.93C129.492 156.442 135.915 152.199 142.584 152.449C143.325 152.449 143.325 151.201 142.584 151.201C136.656 150.952 130.974 153.946 127.763 158.937C127.268 159.935 126.774 161.682 125.786 162.181C124.551 162.68 122.822 162.431 121.34 162.93C118.622 163.928 116.646 165.675 115.164 168.171C114.67 168.67 115.658 169.169 116.152 168.67Z" fill="white"/>
        <path d="M143.326 151.95C150.984 140.221 167.041 137.476 177.911 146.46C178.652 146.959 179.393 145.961 178.899 145.461C167.041 136.228 150.49 138.973 142.091 151.451C141.597 152.199 142.832 152.698 143.326 151.95Z" fill="white"/>
        <path d="M178.652 145.96C183.839 142.716 190.756 144.214 194.462 149.205C194.956 149.953 195.944 149.205 195.45 148.456C191.497 142.966 183.839 141.469 177.91 144.962C177.169 145.212 177.91 146.21 178.652 145.96Z" fill="white"/>
        <path d="M195.202 149.454C200.884 147.957 206.813 150.203 210.271 154.944C210.765 155.693 211.753 154.944 211.259 154.196C207.554 148.955 201.131 146.46 194.955 147.957C194.214 148.456 194.461 149.704 195.202 149.454Z" fill="white"/>
        <path d="M142.831 212.84C143.325 209.097 146.042 205.853 149.748 205.104C150.489 204.855 150.242 203.607 149.501 203.856C145.301 204.855 142.337 208.348 141.596 212.591C141.596 213.339 142.831 213.589 142.831 212.84Z" fill="white"/>
        <path d="M150.49 203.607C151.725 198.117 157.406 195.372 162.347 198.117C163.088 198.616 163.582 197.368 163.088 197.119C157.406 193.874 150.737 196.869 149.501 203.357C149.254 204.106 150.49 204.355 150.49 203.607Z" fill="white"/>
        <path d="M164.322 197.867C166.793 193.375 172.474 192.127 176.427 195.621C176.921 196.12 177.909 195.372 177.415 194.623C172.721 190.88 166.299 191.878 163.334 197.119C162.84 198.117 164.075 198.616 164.322 197.867Z" fill="white"/>
        <path d="M177.413 195.122C180.624 190.63 187.294 191.379 189.27 196.619C189.517 197.368 190.752 197.118 190.505 196.37C188.035 190.131 180.377 189.133 176.424 194.623C175.683 195.122 176.919 195.621 177.413 195.122Z" fill="white"/>
        <path d="M190.015 196.869C192.979 195.621 196.684 197.118 197.673 200.363C197.92 201.111 199.155 200.862 198.908 200.113C197.673 196.12 193.226 194.124 189.521 195.871C188.779 196.12 189.521 197.368 190.015 196.869Z" fill="white"/>
        <path d="M175.686 250.273C175.933 254.266 176.674 258.009 178.156 261.503C178.403 262.251 179.638 262.002 179.391 261.253C177.909 257.759 177.168 254.016 176.921 250.273C176.921 249.524 175.686 249.524 175.686 250.273Z" fill="white"/>
        <path d="M182.605 247.777C183.84 251.77 185.075 255.763 186.063 259.756C186.31 260.504 187.545 260.255 187.298 259.506C186.063 255.513 184.828 251.521 183.84 247.528C183.593 246.53 182.358 247.029 182.605 247.777Z" fill="white"/>
    </g>
    <g opacity="0.2">
        <path d="M52.7114 561.708C60.821 582.255 68.4238 602.138 81.6019 618.045C82.6156 619.371 84.6429 617.382 83.6292 615.394C70.958 600.15 63.3553 579.603 55.2457 559.72C54.232 557.731 51.6977 559.72 52.7114 561.708Z" fill="white"/>
        <path d="M58.7977 574.301C66.9073 574.964 72.9895 586.231 76.5375 594.847C78.5649 599.487 80.0854 604.127 81.0991 609.429C82.1128 615.394 81.606 616.72 76.5375 616.72C69.9484 616.72 63.8662 612.08 59.8114 605.452C54.2361 595.51 56.2635 584.243 61.332 574.964C62.3457 572.975 60.3183 571.65 59.3046 572.975C52.7155 584.906 51.7018 599.487 60.3183 610.092C66.4005 617.382 76.0306 622.022 83.6334 617.382C84.1402 617.382 84.1402 616.72 84.1402 616.057C84.6471 598.824 72.9895 571.65 58.7977 570.324C57.2772 570.987 57.2772 574.301 58.7977 574.301Z" fill="white"/>
        <path d="M54.744 673.057C65.3878 656.487 54.744 631.301 41.5659 623.347C41.0591 622.685 40.0454 623.347 40.0454 624.01C30.4152 641.243 34.47 667.092 50.6892 673.057C52.2097 673.719 52.7166 670.405 51.196 669.743C36.4974 664.44 33.9632 640.58 42.0728 625.336C41.5659 625.336 41.0591 625.999 40.5522 625.999C52.2097 632.626 62.8536 655.161 53.2234 670.405C52.2097 672.394 53.7303 675.045 54.744 673.057Z" fill="white"/>
        <path d="M39.5354 625.999C40.5491 638.592 44.6039 650.522 49.1655 661.789C53.7272 672.394 59.3025 683.661 67.4121 689.626C68.9327 690.952 69.9464 687.638 68.9327 686.975C54.234 676.371 44.097 647.208 42.0696 625.999C41.5628 624.01 39.0285 624.01 39.5354 625.999Z" fill="white"/>
        <path d="M24.3353 552.428C15.2121 565.021 -3.03452 582.254 5.07507 602.138C6.08877 604.126 8.11616 602.138 7.10246 600.149C0.00657439 582.254 17.7463 565.684 25.8559 554.417C27.3764 553.091 25.349 550.44 24.3353 552.428Z" fill="white"/>
        <path d="M7.09813 586.894C3.04334 580.266 0.509091 570.987 3.55019 562.371C7.60498 551.103 18.7557 551.103 26.8653 551.766C26.8653 551.103 26.3584 550.441 26.3584 549.778C24.8379 556.406 23.8242 563.696 22.3036 570.324C19.7694 580.929 14.194 584.906 6.59128 585.569C5.07073 586.231 5.07073 589.545 6.59128 588.882C13.1803 588.22 19.2625 585.569 22.8105 577.615C26.3584 569.662 26.3584 559.72 28.8926 551.103C28.8926 549.778 28.3858 549.115 27.3721 548.452C18.2488 547.127 6.59128 548.452 1.52279 561.045C-2.02516 570.324 0.509091 580.929 5.07073 588.882C6.08443 590.208 8.11183 588.882 7.09813 586.894Z" fill="white"/>
        <path d="M86.1614 778.44C92.7505 757.231 99.3395 736.022 99.8464 712.824C99.8464 710.836 97.3121 710.836 97.3121 712.824C96.8053 736.022 90.2162 756.568 83.6272 777.115C83.1203 779.766 85.6546 780.429 86.1614 778.44Z" fill="white"/>
        <path d="M89.7075 763.859C84.1322 754.58 87.1733 740.661 90.2144 730.719C91.7349 726.743 94.2692 717.464 97.3103 715.475C98.8308 714.15 97.8171 714.15 99.8445 715.475C101.365 716.138 102.379 718.789 103.392 720.115C106.94 726.743 108.461 735.359 106.94 743.312C104.913 754.58 97.3103 759.882 88.6938 761.208C87.1733 761.208 87.1733 764.522 88.6938 764.522C99.3377 763.196 108.968 755.243 109.981 740.661C110.995 730.057 107.447 716.138 99.3377 711.499C98.8308 711.499 98.324 711.499 97.8171 711.499C87.6801 722.103 79.5705 751.266 88.187 765.847C88.187 767.836 90.7212 765.847 89.7075 763.859Z" fill="white"/>
        <path d="M110.494 681.673C112.015 702.882 133.302 710.836 146.987 703.545C147.494 702.882 148.001 702.219 148.001 701.557C144.96 681.01 128.234 666.429 113.535 677.696C112.015 679.022 113.535 681.673 115.056 680.347C128.234 670.406 143.439 684.324 145.973 702.219C146.48 701.557 146.48 700.894 146.987 700.231C135.33 706.859 115.056 700.894 113.535 681.673C112.521 679.685 109.987 679.685 110.494 681.673Z" fill="white"/>
        <path d="M146.986 701.556C133.808 687.637 110.493 675.044 93.2599 681.009C91.7393 681.672 92.2462 684.986 93.7667 684.323C109.986 679.021 132.794 690.951 144.959 704.207C146.479 704.87 148 702.881 146.986 701.556Z" fill="white"/>
        <path d="M104.917 824.835C116.575 815.556 137.863 805.615 133.808 783.743C133.301 781.754 130.767 782.417 131.274 784.405C134.821 804.289 113.534 814.231 103.397 822.184C102.383 823.51 103.904 826.161 104.917 824.835Z" fill="white"/>
        <path d="M128.737 797.661C131.271 805.615 131.778 815.556 126.71 822.184C120.121 831.463 109.477 827.487 101.874 824.173C101.874 824.836 102.381 825.498 102.381 826.824C105.422 820.859 107.449 814.231 110.49 808.266C115.052 799.65 121.134 797.661 128.737 799.65C130.258 800.312 130.764 796.998 129.244 796.336C122.655 794.347 116.066 795.01 110.997 801.638C105.929 808.266 103.901 817.545 99.8467 824.836C99.3398 825.498 99.8467 826.824 100.354 827.487C108.97 831.463 120.627 834.777 127.723 824.836C133.299 817.545 132.792 806.277 130.258 796.998C130.764 795.01 128.23 795.673 128.737 797.661Z" fill="white"/>
    </g>
    <g opacity="0.15">
        <path d="M787.132 308.984C768.536 299.952 740.36 315.194 743.741 337.21C747.122 358.097 775.298 362.048 788.259 347.935C789.386 346.806 787.695 344.548 786.005 345.677C777.552 354.71 786.005 362.613 795.584 364.306C806.854 366 819.252 362.048 819.815 349.064C818.688 349.064 818.125 349.064 816.998 349.064C816.434 375.032 875.039 370.516 866.587 340.032C866.023 338.339 863.205 338.903 863.769 340.597C871.095 367.129 819.252 370.516 819.815 348.5C819.815 346.806 816.998 346.806 816.998 348.5C816.434 358.661 806.854 362.048 797.838 361.484C789.949 360.919 779.806 355.274 787.695 347.371C787.132 346.806 786.568 346.242 785.441 345.113C774.171 356.968 749.94 355.274 745.995 337.21C740.924 316.887 767.972 302.774 784.878 310.677C787.695 311.806 788.822 309.548 787.132 308.984Z" fill="white"/>
        <path d="M784.314 307.855C774.171 285.839 795.585 260.436 818.689 264.387C836.721 267.21 851.936 282.452 847.428 301.645C846.864 303.339 849.682 303.903 850.245 302.21C855.317 280.758 837.848 262.694 816.435 261C791.64 258.742 771.354 286.403 781.497 308.984C782.624 310.677 784.878 309.548 784.314 307.855Z" fill="white"/>
        <path d="M850.246 296C864.334 286.403 885.184 307.855 869.406 319.71C867.715 320.839 869.406 323.097 871.096 321.968C879.549 316.323 885.184 325.355 885.748 332.694C886.311 342.855 880.113 350.194 869.406 349.629C867.715 349.629 867.715 352.452 869.406 352.452C881.803 353.016 889.692 343.419 888.002 331C886.875 321.403 878.986 312.936 869.406 319.145C869.969 319.71 870.533 320.839 871.096 321.403C878.986 315.758 881.24 306.161 874.477 298.258C868.279 290.919 857.572 286.968 849.119 293.177C847.429 294.871 849.119 297.129 850.246 296Z" fill="white"/>
        <path d="M813.055 273.984C813.055 273.984 813.055 273.419 813.618 272.855C813.618 272.29 814.182 272.29 814.182 271.726C814.745 271.161 814.745 270.597 815.872 270.597C816.436 270.597 816.436 270.032 816.999 270.032C817.563 270.032 817.563 270.032 818.126 270.032C818.69 270.032 819.817 270.032 820.38 270.032C821.507 270.032 822.071 270.597 822.634 270.597C823.198 271.161 824.325 271.161 824.888 271.726C827.706 273.984 829.396 276.242 830.523 279.065C831.087 280.194 831.087 281.323 831.087 281.887C831.087 282.452 831.087 283.016 831.087 283.016L830.523 282.452C829.96 281.887 829.396 281.323 828.833 280.758C828.269 280.194 827.142 279.065 826.015 278.5C824.888 277.371 823.761 276.806 823.198 276.242C820.944 274.548 819.253 273.984 816.999 273.984C816.436 273.984 815.872 273.984 815.872 273.984C815.309 273.984 815.309 273.984 814.745 274.548C813.618 273.984 813.055 273.984 813.055 273.984Z" fill="white"/>
        <path d="M837.848 294.306C837.848 294.306 837.284 293.742 836.721 293.177C836.157 293.177 836.157 292.613 836.157 292.048L835.594 291.484C835.594 291.484 835.594 290.919 835.594 290.355C835.594 289.79 835.594 289.79 836.157 289.226C836.157 288.661 836.721 288.097 836.721 288.097C836.721 288.097 837.284 288.097 838.411 288.661C838.975 289.226 839.538 289.79 840.102 290.919C840.102 291.484 840.102 292.048 840.102 292.613C840.102 293.177 839.538 293.177 839.538 293.742C838.411 294.306 837.848 294.306 837.848 294.306Z" fill="white"/>
        <path d="M664.285 294.307C657.523 293.178 649.634 294.871 645.689 301.081C642.871 306.161 643.435 313.5 647.943 317.452C656.959 324.79 673.865 319.145 678.936 309.548C677.809 308.984 677.246 308.419 676.119 307.855C671.047 321.968 699.222 320.839 704.858 312.371C705.985 310.678 703.167 309.548 702.604 310.678C698.659 317.452 675.555 318.581 678.936 308.984C679.5 307.29 677.246 306.161 676.682 307.855C673.301 315.194 662.594 319.145 654.705 317.452C650.197 316.323 646.816 312.936 646.816 307.855C646.816 299.387 656.396 295.436 663.721 296.565C665.412 297.129 665.975 294.871 664.285 294.307Z" fill="white"/>
        <path d="M702.037 309.548C702.037 316.323 711.053 319.71 716.688 319.145C724.577 318.581 732.466 313.5 734.72 305.597C739.228 289.79 718.379 286.403 708.235 292.613C708.799 293.177 709.362 294.306 709.926 294.871C718.379 286.403 715.561 271.726 704.291 266.645C690.767 259.871 677.242 270.032 676.115 283.581C676.115 285.274 678.933 285.274 678.933 283.581C679.496 272.29 690.767 263.823 701.473 268.339C711.616 271.726 714.434 285.274 707.108 292.613C705.981 293.742 707.672 295.436 708.799 294.871C715.561 290.919 730.212 289.79 731.903 300.516C732.466 306.161 728.522 311.806 723.45 314.629C718.379 317.452 704.291 318.581 704.291 309.548C704.854 307.29 702.037 307.29 702.037 309.548Z" fill="white"/>
        <path d="M662.591 293.177C658.083 284.145 669.916 276.242 677.242 280.758C678.933 281.887 680.06 279.064 678.933 278.5C668.789 272.29 654.138 283.581 660.337 294.871C660.9 296 663.154 294.871 662.591 293.177Z" fill="white"/>
        <path d="M694.154 273.419C694.718 272.855 694.718 272.855 695.281 272.855C695.281 272.855 695.845 272.855 696.408 272.29C696.972 272.29 698.099 272.29 698.662 272.29C699.226 272.29 699.789 272.29 699.789 272.855C700.353 272.855 700.353 273.419 700.916 273.419C701.48 273.984 701.48 273.984 702.043 274.548C702.043 275.113 702.607 275.113 702.607 275.677C703.17 276.242 703.17 277.371 703.17 277.936C703.17 279.065 703.17 280.194 703.17 280.194C703.17 280.194 703.17 280.194 702.607 279.629C702.607 279.629 702.043 279.065 701.48 278.5C700.916 277.936 699.789 276.806 699.226 275.677C698.099 275.113 696.972 273.984 695.845 273.984H695.281H694.718C694.154 273.419 694.154 273.419 694.154 273.419Z" fill="white"/>
        <path d="M704.294 291.484C704.294 291.484 703.73 290.919 703.73 290.355C703.73 289.79 703.73 289.79 703.73 289.226C703.73 288.661 703.73 288.661 703.73 288.097C703.73 287.532 703.73 287.532 703.73 286.968C703.73 286.403 703.73 286.403 704.294 285.839C704.857 285.274 704.857 284.71 704.857 284.71C704.857 284.71 705.421 285.274 705.421 285.839C705.985 286.968 705.985 286.968 705.985 287.532C705.985 288.097 705.985 288.097 705.985 288.661C705.985 289.226 705.985 289.226 705.985 289.79C705.985 290.355 705.421 290.355 705.421 290.355C704.857 290.919 704.294 291.484 704.294 291.484Z" fill="white"/>
    </g>
    <g opacity="0.2">
        <path d="M655.5 139.9C653.9 136.9 647.9 136.5 645 136C644.6 135.9 644.3 136 644 136.3C642.8 134.3 640.7 133.1 637.6 133.5C637.3 133.1 636.9 132.8 636.5 132.5C634.5 131.1 631.7 131.3 630.4 133.4C604.6 128.8 579.2 122.4 553.5 117.5C553 117.4 552.7 117.7 552.6 118C545.5 117.4 538.4 117.4 531.3 117C530.1 116.9 529.6 118.5 530.3 119.3C535.9 125.1 541.7 131.1 548.4 135.5C548.5 135.5 548.5 135.5 548.6 135.6C548.7 135.7 548.8 135.8 549 135.9C573.7 145.3 600.1 150.5 626.4 153.1C626.3 153.4 626.5 153.8 626.8 153.8C626.9 154 627 154.2 627.3 154.3C629.8 155.5 632 155.3 633.8 154.3C633.7 154.5 633.6 154.8 633.8 155C635.3 157 637.9 157.4 640.2 156.3C640.3 156.2 640.4 156.2 640.5 156.1C640.5 156.3 640.6 156.5 640.9 156.6C643.8 157.9 647.2 159.4 650.4 158.1C653.5 156.9 654.7 153.4 655.4 150.4C655.9 147.5 657 142.7 655.5 139.9ZM630.3 135.6C630.4 137.9 630.5 140 630.4 142.1H630.3C617.4 140.2 604.6 137.8 591.8 135.1C585.6 133.8 579.4 132.3 573.2 130.8C567.6 129.4 560.9 126.4 555.1 126.8C555 126.8 554.9 126.8 554.7 126.9C555.4 124.6 555.6 122.2 555.3 119.7C579.8 126.7 605.3 131.2 630.3 135.6ZM538.9 122C538.8 121.8 538.7 121.6 538.5 121.3C538.8 121.2 539.2 121.2 539.5 121.1C539.4 121.5 539.2 121.9 538.9 122.2C538.9 122.1 538.9 122.1 538.9 122ZM548.6 133.4C545.5 130.1 542.2 127 538.9 123.9C540.5 123.2 541.4 121.7 541.5 119.9C545.2 120 548.9 120.1 552.6 120.1C552.7 120.1 552.8 120.1 552.8 120C553.3 125 551.9 129.7 548.6 133.4ZM627.7 150.5C601.1 147.9 575.5 141.9 549.9 134.4C551.6 132.8 552.9 131 553.9 129C554 129.2 554.2 129.4 554.4 129.5C559 132.7 565.8 133.4 571.2 134.7C577.7 136.3 584.2 137.8 590.7 139.3C603.5 142.1 616.3 144.4 629.2 146.3C629.5 146.3 629.7 146.3 629.9 146.3C629.5 147.7 629 149.1 628.2 150.5C628 150.6 627.9 150.5 627.7 150.5ZM628.8 152.8C628.9 152.7 628.9 152.6 629 152.4C633.9 148 633.6 139.8 632.5 133.7C637.7 132.3 638.1 140.6 637.6 143.7C636.9 147.7 634.1 154.6 628.8 152.8ZM634.5 154.3C634.3 154.2 634.2 154.1 634 154.2C637.6 151.9 639.7 146.2 639.9 142C640 140 639.7 137.7 638.9 135.7C643.1 137.2 644.2 141.7 643.5 146.1C642.8 149.5 640.1 158.7 634.5 154.3ZM653.2 148.1C652.8 150.9 652.3 153.6 650 155.4C647.4 157.3 644.4 156.4 641.6 155.4C643.5 153.7 644.5 150.9 645.1 148.5C645.8 145.7 646.1 141.7 645 138.6C647 138.9 649.3 139.2 651.1 140.1C653 141.1 653.4 142.2 653.6 144.4C653.6 145.6 653.4 146.9 653.2 148.1Z" fill="white"/>
    </g>
</svg>
