<svg width="1920" height="900" viewBox="0 0 1920 900" fill="none" xmlns="http://www.w3.org/2000/svg">
    <path opacity="0.3" d="M581.031 368.353C578.798 368.353 576.713 368.639 574.777 368.925C571.353 347.617 552.294 331.313 529.214 331.313C503.753 331.313 483.204 351.192 483.204 375.504C483.204 377.22 483.353 378.793 483.502 380.509C481.715 380.223 480.078 380.08 478.142 380.08C462.656 380.08 450 392.236 450 407.11C450 421.983 462.656 434.139 478.142 434.139H581.031C599.941 434.139 615.278 419.409 615.278 401.246C615.278 383.084 599.941 368.353 581.031 368.353Z" fill="white"/>
    <path opacity="0.3" d="M1624.92 291.039C1623.88 291.039 1622.84 291.182 1621.79 291.325C1620.16 280.742 1610.63 272.733 1599.31 272.733C1586.65 272.733 1576.53 282.601 1576.53 294.614C1576.53 295.472 1576.53 296.33 1576.68 297.045C1575.78 296.902 1574.89 296.759 1574 296.759C1566.25 296.759 1560 302.766 1560 310.202C1560 317.639 1566.25 323.645 1574 323.645H1625.07C1634.45 323.645 1642.04 316.352 1642.04 307.342C1642.04 298.332 1634.3 291.039 1624.92 291.039Z" fill="white"/>
    <path opacity="0.3" d="M1315.92 192.125C1314.88 192.125 1313.84 192.268 1312.79 192.411C1311.16 181.828 1301.63 173.82 1290.31 173.82C1277.65 173.82 1267.53 183.687 1267.53 195.7C1267.53 196.558 1267.53 197.416 1267.68 198.131C1266.78 197.988 1265.89 197.845 1265 197.845C1257.25 197.845 1251 203.852 1251 211.289C1251 218.725 1257.25 224.732 1265 224.732H1316.07C1325.45 224.732 1333.04 217.438 1333.04 208.428C1333.04 199.419 1325.3 192.125 1315.92 192.125Z" fill="white"/>
    <path opacity="0.3" d="M1426.92 425.485C1425.88 425.485 1424.84 425.628 1423.79 425.771C1422.16 415.188 1412.63 407.179 1401.31 407.179C1388.65 407.179 1378.53 417.047 1378.53 429.06C1378.53 429.918 1378.53 430.776 1378.68 431.491C1377.78 431.348 1376.89 431.205 1376 431.205C1368.25 431.205 1362 437.212 1362 444.648C1362 452.085 1368.25 458.091 1376 458.091H1427.07C1436.45 458.091 1444.04 450.798 1444.04 441.788C1444.04 432.778 1436.3 425.485 1426.92 425.485Z" fill="white"/>
</svg>
