<svg width="1781" height="832" viewBox="0 0 1781 832" fill="none" xmlns="http://www.w3.org/2000/svg">
    <g opacity="0.2">
        <path d="M1645.29 655.611C1635.97 655.611 1622 659.114 1619.67 669.624C1619.08 673.711 1619.67 677.215 1623.16 678.966C1624.33 679.55 1626.65 680.134 1627.82 680.718C1630.15 682.47 1632.48 684.805 1634.81 686.557C1641.8 691.228 1649.95 689.477 1653.45 681.886C1657.53 673.711 1656.36 663.201 1652.28 655.027C1650.54 651.523 1645.88 654.443 1647.04 657.946C1649.95 663.201 1651.12 670.208 1649.37 676.047C1647.62 681.886 1643.55 684.805 1637.72 681.302C1634.81 679.55 1633.06 676.631 1630.15 675.463C1627.82 674.295 1625.49 674.879 1624.91 671.96C1624.33 663.785 1640.05 661.45 1645.29 661.45C1648.79 661.45 1648.79 655.611 1645.29 655.611Z" fill="white"/>
        <path d="M1649.37 676.047C1649.37 680.718 1650.53 684.805 1653.44 688.309C1655.77 690.644 1658.68 693.564 1662.18 693.564C1668 692.98 1667.42 684.805 1669.75 680.718C1673.25 674.879 1680.82 671.96 1675.58 664.369C1670.92 656.779 1662.18 655.611 1654.61 655.611C1651.11 655.611 1651.11 661.45 1654.61 661.45C1658.68 661.45 1664.51 662.034 1668 664.369C1670.33 666.121 1672.08 668.456 1670.92 670.792C1669.75 672.544 1667.42 673.711 1666.26 675.463C1663.93 678.383 1663.34 681.302 1662.18 684.805C1661.6 687.141 1662.18 687.725 1660.43 685.973C1656.94 683.054 1655.77 680.718 1655.19 676.047C1655.19 672.544 1649.37 672.544 1649.37 676.047Z" fill="white"/>
        <path d="M1650.53 653.859C1648.79 648.02 1647.04 639.846 1651.7 635.175C1654.61 632.255 1655.78 632.255 1657.52 635.758C1660.44 642.181 1663.35 648.604 1672.09 646.852C1670.92 646.268 1669.76 645.685 1668.59 645.101C1669.76 650.356 1666.84 653.859 1662.18 654.443C1658.69 655.027 1659.85 660.866 1663.93 660.282C1672.09 658.53 1676.16 651.524 1674.42 643.349C1673.83 641.597 1672.09 641.013 1670.92 641.597C1662.77 642.765 1663.93 627.584 1655.78 627C1651.12 626.416 1646.46 631.671 1644.71 635.758C1641.8 642.181 1642.96 649.188 1645.29 655.611C1646.46 659.114 1651.7 657.362 1650.53 653.859Z" fill="white"/>
        <path d="M1648.78 643.933C1642.38 629.92 1613.84 632.255 1620.83 650.94C1621.41 649.772 1621.99 648.604 1622.57 647.436C1618.5 648.604 1613.25 652.107 1615.58 657.946C1617.33 662.618 1623.74 665.537 1628.4 666.121C1631.89 666.705 1633.64 660.866 1630.15 660.282C1627.23 659.698 1624.9 659.114 1622.57 657.362C1619.66 655.027 1621.41 653.859 1624.32 652.691C1626.07 652.107 1627.23 650.94 1626.65 649.188C1624.32 643.933 1626.07 640.43 1631.89 640.43C1636.55 640.43 1641.79 642.181 1643.54 646.852C1645.29 650.356 1649.95 647.436 1648.78 643.933Z" fill="white"/>
        <path d="M1731.5 693.564C1721.6 700.57 1708.2 715.752 1714.61 729.181C1716.94 734.436 1719.85 736.772 1725.67 735.604C1729.17 735.02 1732.08 734.436 1735.57 734.436C1739.07 735.02 1742.56 735.02 1746.06 734.436C1755.96 733.268 1761.2 725.094 1759.46 715.168C1757.13 703.49 1748.39 692.98 1737.9 687.725C1734.41 685.973 1731.5 691.228 1734.99 692.98C1743.15 697.651 1765.86 722.758 1746.64 728.597C1741.98 729.765 1737.32 728.013 1732.08 728.013C1729.17 728.013 1725.09 730.349 1722.76 729.765C1714.61 728.013 1719.27 716.335 1721.6 711.664C1725.09 706.409 1728.59 701.738 1733.83 698.235C1737.9 696.483 1734.99 691.228 1731.5 693.564Z" fill="white"/>
        <path d="M1753.04 711.664C1757.12 716.919 1761.2 720.423 1767.61 721.591C1771.1 722.174 1776.92 723.342 1779.84 720.423C1785.08 715.168 1777.51 706.409 1777.51 700.57C1777.51 692.98 1782.17 684.221 1773.43 680.134C1762.95 674.879 1751.3 680.718 1742.56 686.557C1739.65 688.893 1742.56 693.564 1745.47 691.812C1751.88 687.725 1760.03 682.47 1768.19 684.805C1775.76 687.141 1772.27 692.396 1771.68 698.235C1771.1 703.49 1772.27 707.577 1774.01 712.248C1775.18 714.584 1775.76 715.752 1773.43 716.919C1768.19 719.255 1760.62 712.832 1757.7 709.329C1755.96 705.825 1750.71 708.745 1753.04 711.664Z" fill="white"/>
        <path d="M1734.99 687.141C1728 681.886 1719.27 673.128 1722.18 663.201C1723.93 656.779 1726.26 657.946 1730.92 660.282C1738.49 664.369 1746.06 669.04 1753.63 661.45C1752.47 661.45 1750.72 661.45 1749.56 661.45C1755.38 666.705 1755.38 673.128 1750.14 678.383C1747.81 681.302 1751.88 685.389 1754.21 682.47C1761.79 674.879 1761.2 664.369 1753.63 657.362C1752.47 656.195 1750.72 656.195 1749.56 657.362C1740.24 666.121 1730.92 646.268 1721.01 653.275C1715.77 656.779 1714.61 665.537 1716.36 670.792C1718.68 679.55 1725.09 686.557 1732.08 691.812C1734.99 694.732 1737.91 689.477 1734.99 687.141Z" fill="white"/>
        <path d="M1725.67 678.382C1707.61 667.872 1679.66 691.228 1701.21 706.409C1700.62 705.241 1700.62 703.49 1700.04 702.322C1696.55 707.577 1694.22 714.584 1700.62 718.087C1706.45 721.59 1714.6 719.255 1720.43 716.335C1723.92 714.584 1721.01 709.329 1717.52 711.08C1714.02 712.832 1709.94 714 1706.45 713.416C1700.62 712.248 1702.37 708.745 1705.28 704.658C1706.45 703.49 1705.28 701.738 1704.12 700.57C1688.98 690.06 1711.69 676.631 1722.76 683.054C1725.67 685.389 1728.58 680.134 1725.67 678.382Z" fill="white"/>
        <path d="M1662.77 767.134C1654.61 767.134 1641.8 770.638 1640.05 779.98C1639.47 783.483 1640.05 786.987 1643.55 788.738C1644.71 789.322 1646.46 789.906 1647.62 790.49C1649.95 791.658 1651.7 793.993 1654.03 795.161C1660.44 799.248 1667.43 797.497 1670.92 790.49C1674.42 782.899 1673.25 773.557 1669.76 766.55C1668.01 763.047 1662.77 765.966 1664.52 769.47C1666.85 774.141 1668.01 779.98 1666.26 785.235C1665.1 791.074 1661.6 793.409 1656.94 790.49C1654.03 788.738 1652.28 786.403 1649.95 784.651C1648.21 783.483 1645.88 784.067 1645.88 781.732C1644.71 774.725 1659.27 772.389 1663.35 772.389C1666.85 772.973 1666.85 767.134 1662.77 767.134Z" fill="white"/>
        <path d="M1666.85 785.819C1666.85 789.906 1668.01 793.409 1670.92 796.913C1672.67 799.248 1675.58 801.584 1678.49 801.584C1683.74 801 1683.15 793.409 1685.48 790.49C1688.98 785.235 1694.8 782.315 1690.14 775.892C1686.07 770.053 1678.49 768.302 1671.51 768.302C1668.01 768.302 1668.01 774.141 1671.51 774.141C1675 774.141 1680.24 774.725 1683.15 776.476C1684.9 777.644 1686.65 779.98 1685.48 781.731C1684.32 783.483 1682.57 784.651 1681.41 785.819C1679.66 788.154 1678.49 791.074 1677.91 793.993C1677.91 794.577 1677.91 795.161 1677.33 795.745C1677.91 795.161 1677.91 796.329 1676.75 794.577C1673.84 791.658 1672.67 789.906 1672.67 785.819C1672.09 781.731 1666.26 781.731 1666.85 785.819Z" fill="white"/>
        <path d="M1668.01 765.966C1666.26 761.295 1665.09 754.288 1669.17 750.201C1672.08 747.282 1672.08 747.866 1673.83 750.785C1676.74 756.624 1679.07 762.463 1686.64 760.711C1685.48 760.127 1684.31 759.544 1683.15 758.96C1684.31 763.047 1681.98 765.966 1677.91 766.55C1674.41 767.134 1675.58 772.973 1679.65 772.389C1687.23 771.221 1690.72 764.799 1688.97 757.208C1688.39 755.456 1686.64 754.872 1685.48 755.456C1679.07 756.624 1679.65 743.195 1672.67 742.611C1668.01 742.027 1663.93 746.698 1662.76 750.201C1660.43 755.456 1661.6 762.463 1663.35 767.718C1663.93 771.221 1669.17 769.47 1668.01 765.966Z" fill="white"/>
        <path d="M1666.26 757.208C1660.44 744.362 1634.81 746.698 1641.21 763.631C1641.8 762.463 1642.38 761.295 1642.96 760.127C1638.88 761.879 1634.23 764.799 1636.55 770.054C1638.3 774.141 1643.54 777.06 1648.2 777.644C1651.7 778.228 1653.45 772.389 1649.95 771.805C1647.62 771.221 1645.29 770.638 1643.54 769.47C1641.21 767.718 1642.38 767.134 1644.71 765.966C1645.87 765.383 1647.62 764.215 1646.46 762.463C1644.71 758.376 1645.87 755.456 1650.53 754.872C1654.61 754.872 1658.69 756.624 1660.44 760.127C1662.77 763.631 1668.01 760.711 1666.26 757.208Z" fill="white"/>
    </g>
    <g opacity="0.2">
        <path d="M1049.3 697.8C1049 697.9 1048.8 698 1048.5 698.1C1044.3 688.1 1029.2 683.9 1022 693.2C1021.6 693.5 1021.1 693.8 1020.7 694.2C1012.5 700.6 1010.7 712.6 1016 721.3C1019.9 727.7 1026.2 731.5 1033.2 732.8C1026 748 1020.9 764.5 1015.4 780.3C1015.1 781.2 1015.7 781.9 1016.5 782C1018.7 784.3 1022 786.3 1025.3 785.9C1026.7 785.7 1026.7 783.8 1025.3 783.7C1025.2 783.7 1025.1 783.7 1025 783.7C1025.1 783.6 1025.2 783.5 1025.3 783.3C1032.1 767.5 1039.4 750.3 1042.5 733.3C1056.2 734.4 1073.7 727 1073.4 710.9C1073.1 699.1 1059.2 689.1 1049.3 697.8ZM1036.1 690.2C1041.2 691.1 1044.6 694.6 1046.8 699C1045.9 699.5 1045 700.2 1044.1 700.9C1042.7 693.4 1035.8 690 1029.1 690.8C1031.2 690 1033.5 689.7 1036.1 690.2ZM1032.8 757.6C1029.8 766 1026.5 774.2 1023.1 782.3C1022.9 782.7 1023 783 1023.3 783.3C1021.4 783 1019.7 782.3 1018.1 781C1024 765.3 1030.8 749.3 1034.9 733C1036.9 733.2 1038.9 733.3 1041 733.1C1037.9 741.2 1035.7 749.5 1032.8 757.6ZM1031.1 729.5C1021.4 726.4 1013.8 716.5 1016.5 706.2C1017.7 701.4 1020.8 697 1025.4 694.9C1032.1 691.8 1040.2 694.5 1042.1 702C1042.2 702.4 1042.5 702.6 1042.9 702.7C1043 703.7 1044.3 704.6 1045.3 703.7C1049.5 699.7 1056.9 697.1 1061.8 701.6C1066.5 705.9 1065.5 713.1 1062.4 718C1056.2 727.8 1042 733 1031.1 729.5ZM1050.8 730.7C1059.9 726.8 1068.7 718.7 1067.8 708.4C1067.2 700.8 1062.1 697 1056.3 696.6C1065.6 695.6 1073.7 705.1 1070.8 715.5C1068.1 725 1059.7 729.6 1050.8 730.7Z" fill="white"/>
    </g>
    <g opacity="0.2">
        <path d="M617.901 673C617.001 671.3 614.501 670.2 612.801 671.3C612.601 671.4 612.501 671.6 612.501 671.7C611.201 672.3 610.401 673.9 610.801 675.4C611.401 677.5 613.801 679 615.901 678.1C617.801 677.3 618.801 674.9 617.901 673ZM615.901 676.3C614.901 677.1 613.401 676.7 612.801 675.7C612.001 674.5 612.701 672.8 614.201 672.6C614.301 672.6 614.501 672.5 614.501 672.4C615.201 672.4 615.801 672.6 616.301 673.2C617.101 674.2 616.801 675.6 615.901 676.3Z" fill="white"/>
        <path d="M672.1 678.3C671.2 674 667.6 670.5 663.4 670.5C670.3 659 665.9 642.2 652.9 637.4C640.8 632.9 627.5 639.8 622.7 651.2C618.7 648 612.7 648 608 650C601.1 652.8 596.6 659.5 593.1 665.7C592.6 666.5 593.5 667.2 594.2 666.8C594.1 667.2 594.2 667.8 594.8 668C597.9 669.2 601 670.3 604.2 671.3C604 671.7 603.9 672 603.8 672.4C601.9 678.2 607.2 684 612.7 684.9C616.6 685.5 620.5 683.7 622.8 680.7C624.2 682.3 626.5 683.2 628.4 684.1C630.4 685.1 632.4 685.9 634.4 686.7C634.2 687.6 634.1 688.6 634.2 689.6C634.8 695.6 640.7 699.4 646.4 698.2C648.8 697.7 651 696.5 652.6 694.8C655.9 695.7 658.9 697.1 661.9 698.7C662.7 699.1 663.4 698.7 663.7 698C664.3 698.5 665.4 698.6 665.9 697.8C669.2 692.1 673.6 685.2 672.1 678.3ZM613.7 682.7C609.3 682.3 605 678.2 606.1 673.6C607.1 669.6 611.4 667 615.5 666.7C615.6 666.8 615.7 666.8 615.8 666.9C619.4 668 622.7 670.8 622.6 674.9C622.5 679.5 618.1 683.1 613.7 682.7ZM643.4 695.9C639.6 695.5 636.4 692.1 636.7 688.2C637 684 640.6 681.6 644.3 680.8C644.5 680.8 644.6 680.7 644.7 680.6C648.8 679.8 652.9 684.7 653.1 688.5C653.1 693.2 647.6 696.4 643.4 695.9ZM668.6 686.1C667.3 689.8 665 693.1 663.5 696.7C663.4 696.6 663.3 696.6 663.2 696.5C660.4 694.9 657.3 693.7 654.1 692.9C655.4 690.7 655.8 687.9 654.6 685.1C653 681 646.3 675 642.1 679.3C642 679.4 642 679.5 642 679.5C639 680 636.5 682 635.2 684.7C633 683.9 630.8 683 628.6 682C626.9 681.2 625.2 680.1 623.4 679.7C624 678.6 624.5 677.5 624.7 676.2C625.6 670.7 621.6 665.1 616 664.5C615.6 664.5 615.4 664.6 615.2 664.8C611.5 664.6 607.7 666.4 605.4 669.3C602.1 668.1 598.7 667.2 595.3 666.3C595.1 666.2 594.9 666.3 594.8 666.3C601.3 657.4 610.9 645.2 622.7 654C623.6 654.7 624.6 653.4 624 652.5C629.6 643.5 638.8 636.2 650.1 639.3C663.9 643 666.7 659.2 660.3 670.4C660 670.9 660.1 671.3 660.3 671.7C660.1 672.3 660.4 673 661.1 672.9C669 672 670.6 680.1 668.6 686.1Z" fill="white"/>
        <path d="M648.299 688C647.999 686 645.799 684.1 643.799 684.9C643.399 685.1 643.199 685.4 643.299 685.8C641.999 686 640.999 687.3 641.199 688.8C641.399 690.9 643.299 692.2 645.299 691.8C647.099 691.4 648.599 689.9 648.299 688ZM645.299 689.9C644.499 690.1 643.599 689.9 643.199 689.2C642.599 688.1 643.499 686.6 644.799 686.8C644.999 686.8 645.099 686.7 645.099 686.6C645.699 686.8 646.299 687.2 646.499 688C646.799 688.9 646.199 689.7 645.299 689.9Z" fill="white"/>
        <path d="M646.799 643.1C638.799 643 630.999 647.1 628.799 655.4C628.699 655.9 628.799 656.2 628.999 656.5C628.999 656.7 628.999 657 629.299 657.1C632.699 659.2 636.299 660.6 640.099 661.9C640.799 662.1 641.299 661.6 641.599 661.1C643.699 655.8 645.699 650.4 647.899 645.1C648.299 644.1 647.899 643.1 646.799 643.1ZM639.599 659.2C636.599 658.4 633.799 657.4 630.899 656.3C630.999 656.2 630.999 656.1 631.099 655.9C632.999 650.2 638.599 645.1 644.999 645.4C642.999 649.9 641.099 654.5 639.599 659.2Z" fill="white"/>
        <path d="M652.5 645.4C652.3 644.9 651.6 644.7 651.4 645.3C650.1 648.2 649.1 651.3 648.1 654.3C647.3 656.6 645.4 660.1 645.5 662.5C645.6 663.8 645.9 664 646.9 664.7C649.7 666.3 653.8 667 656.8 668C657.5 668.2 658 667.8 658.2 667.2C658.4 667.1 658.5 667 658.6 666.8C662.9 659.7 658.8 649.7 652.5 645.4ZM647.9 662.5C647.6 662 648.9 659.3 649 658.7C650.1 655 651.3 651.3 652.1 647.5C657.5 652.5 658.1 658.7 656.7 665.6C654.8 665 652.9 664.4 651 663.7C650.4 663.4 648.3 663 647.9 662.5Z" fill="white"/>
    </g>
</svg>
