<svg width="1753" height="686" viewBox="0 0 1753 686" fill="none" xmlns="http://www.w3.org/2000/svg">
    <g opacity="0.2">
        <path d="M1715.9 309.3C1725.1 292.4 1726.4 271.8 1715.1 254.6C1714.7 254 1713.9 253.7 1713.3 254.1C1697.2 265 1682.6 281.6 1681.5 300.8C1678.7 300.6 1674.3 300.8 1672.7 303.4C1671.7 305.1 1672.1 307.6 1672.1 309.5C1672.1 312.4 1672.1 315.3 1672.1 318.2C1672.1 320.3 1671.2 324.8 1674.5 324.9C1677.7 324.9 1682.1 319.8 1684 317.5C1684.3 318.3 1684.6 319 1685 319.7C1683.2 321.6 1681.8 323.7 1680.5 326C1680.1 326.6 1680.5 327.5 1681.2 327.7C1681.6 327.8 1682 327.9 1682.3 328C1678.9 330.8 1677 334.9 1677.1 339.4C1677.2 346.4 1682.8 349.4 1685.4 355.3C1685.8 356.2 1687.2 356.1 1687.7 355.3C1690.6 350.1 1697.1 348.6 1700 343.5C1702 339.9 1702.1 335.9 1700.7 332.2C1700.8 332.2 1700.9 332.2 1701 332.3C1701.7 332.4 1702.4 332 1702.4 331.2C1702.4 329.5 1702.5 327.9 1702.4 326.2C1702.7 326.2 1703 326.1 1703.3 325.8C1704.4 324.8 1705.4 323.8 1706.3 322.7C1706.3 326.3 1706.7 329.9 1707.5 333.5C1707.7 334.4 1708.9 334.6 1709.5 334C1712.3 331.3 1714.9 328.5 1717.4 325.6C1718.9 323.8 1721.1 321.7 1721.7 319.5C1722.8 315.6 1719.1 311.6 1715.9 309.3ZM1682.5 315.7C1680.9 317.3 1678 321.2 1675.8 321.6C1674.2 322 1674.9 322.3 1674.6 320.5C1674.3 319.1 1674.6 317.2 1674.6 315.7C1674.6 313.2 1674.2 310.2 1674.6 307.8C1675 305.3 1675.9 304 1678.3 303C1679.3 302.6 1680.4 302.5 1681.4 302.2C1681.3 306.4 1681.9 310.8 1683.3 315.2C1683 315.3 1682.7 315.4 1682.5 315.7ZM1713.6 257.2C1717 262.8 1719.1 268.7 1720 274.6C1719.8 274.6 1719.7 274.6 1719.5 274.6C1711.6 276.8 1704.5 274.9 1697.7 270.7C1702.4 265.6 1707.9 261.1 1713.6 257.2ZM1692.2 347.3C1690.1 348.7 1688.2 350.1 1686.7 352C1684.5 348.6 1681.1 346 1680.1 342C1678.9 337 1680.8 331.9 1684.5 328.5C1685 328.6 1685.6 328.8 1686.1 328.9C1683.4 330.5 1682 333.6 1682.2 336.8C1682.4 340.5 1685 343.4 1687.5 346C1688 346.5 1688.9 346.4 1689.3 345.8C1692.3 341.3 1700.2 338.2 1697.7 331.5C1697.8 331.5 1697.8 331.5 1697.9 331.5C1697.9 331.6 1697.9 331.6 1698 331.7C1701 338.3 1697.7 343.5 1692.2 347.3ZM1695.6 332C1697.4 336.9 1691.4 340.1 1688.2 343.5C1686.7 341.8 1685.1 340.1 1684.5 337.9C1683.7 334.8 1685 332 1686.9 329.6C1687 329.5 1687 329.3 1687 329.2C1689.9 329.9 1692.8 330.6 1695.7 331.1C1695.5 331.3 1695.4 331.6 1695.6 332ZM1700.2 329.6C1694.5 328.6 1688.8 327.3 1683.2 325.7C1684.2 324.1 1685.1 322.4 1686 320.8C1689.4 324.5 1695.5 325.7 1700.3 326.2C1700.3 327.4 1700.2 328.5 1700.2 329.6ZM1701.5 323.7C1701.4 323.8 1701.3 323.9 1701.3 324C1694.9 323.1 1689.2 322.3 1685.4 316.7C1683 304.5 1683.9 292 1690.1 281.1C1691.9 278 1694 275.1 1696.3 272.4C1702.7 278.3 1712 279.8 1720.2 277.5H1720.3C1721.9 294.3 1714.3 311.6 1701.5 323.7ZM1716.6 322.4C1714.4 325.2 1712 327.9 1709.5 330.4C1709 327.5 1708.7 324.5 1708.6 321.5C1708.6 321 1708.3 320.7 1708 320.5C1710.6 317.5 1712.9 314.2 1714.9 310.8C1718 314.6 1720.4 317.6 1716.6 322.4Z" fill="white"/>
        <path d="M1708.7 282.2C1708.2 282.1 1707.8 282.2 1707.5 282.5C1697.7 278.2 1688.1 294.3 1699.7 298.3C1704.8 300 1711 298.4 1713.4 293.3C1715.5 289 1713.4 283.5 1708.7 282.2ZM1711 292.4C1709.2 295.9 1705.1 296.9 1701.6 296C1700 295.6 1697.9 294.5 1697.3 292.8C1696.6 290.8 1697.9 288.2 1699.2 286.8C1701.5 284.3 1705 283.9 1708.1 284.7C1711 286.1 1712.6 289.2 1711 292.4Z" fill="white"/>

        <path d="M1667.9 604C1667 602.3 1664.5 601.2 1662.8 602.3C1662.6 602.4 1662.5 602.6 1662.5 602.7C1661.2 603.3 1660.4 604.9 1660.8 606.4C1661.4 608.5 1663.8 610 1665.9 609.1C1667.8 608.3 1668.8 605.9 1667.9 604ZM1665.9 607.3C1664.9 608.1 1663.4 607.7 1662.8 606.7C1662 605.5 1662.7 603.8 1664.2 603.6C1664.3 603.6 1664.5 603.5 1664.5 603.4C1665.2 603.4 1665.8 603.6 1666.3 604.2C1667.1 605.2 1666.8 606.6 1665.9 607.3Z" fill="white"/>
        <path d="M1722.1 609.3C1721.2 605 1717.6 601.5 1713.4 601.5C1720.3 590 1715.9 573.2 1702.9 568.4C1690.8 563.9 1677.5 570.8 1672.7 582.2C1668.7 579 1662.7 579 1658 581C1651.1 583.8 1646.6 590.5 1643.1 596.7C1642.6 597.5 1643.5 598.2 1644.2 597.8C1644.1 598.2 1644.2 598.8 1644.8 599C1647.9 600.2 1651 601.3 1654.2 602.3C1654 602.7 1653.9 603 1653.8 603.4C1651.9 609.2 1657.2 615 1662.7 615.9C1666.6 616.5 1670.5 614.7 1672.8 611.7C1674.2 613.3 1676.5 614.2 1678.4 615.1C1680.4 616.1 1682.4 616.9 1684.4 617.7C1684.2 618.6 1684.1 619.6 1684.2 620.6C1684.8 626.6 1690.7 630.4 1696.4 629.2C1698.8 628.7 1701 627.5 1702.6 625.8C1705.9 626.7 1708.9 628.1 1711.9 629.7C1712.7 630.1 1713.4 629.7 1713.7 629C1714.3 629.5 1715.4 629.6 1715.9 628.8C1719.2 623.1 1723.6 616.2 1722.1 609.3ZM1663.7 613.7C1659.3 613.3 1655 609.2 1656.1 604.6C1657.1 600.6 1661.4 598 1665.5 597.7C1665.6 597.8 1665.7 597.8 1665.8 597.9C1669.4 599 1672.7 601.8 1672.6 605.9C1672.5 610.5 1668.1 614.1 1663.7 613.7ZM1693.4 626.9C1689.6 626.5 1686.4 623.1 1686.7 619.2C1687 615 1690.6 612.6 1694.3 611.8C1694.5 611.8 1694.6 611.7 1694.7 611.6C1698.8 610.8 1702.9 615.7 1703.1 619.5C1703.1 624.2 1697.6 627.4 1693.4 626.9ZM1718.6 617.1C1717.3 620.8 1715 624.1 1713.5 627.7C1713.4 627.6 1713.3 627.6 1713.2 627.5C1710.4 625.9 1707.3 624.7 1704.1 623.9C1705.4 621.7 1705.8 618.9 1704.6 616.1C1703 612 1696.3 606 1692.1 610.3C1692 610.4 1692 610.5 1692 610.5C1689 611 1686.5 613 1685.2 615.7C1683 614.9 1680.8 614 1678.6 613C1676.9 612.2 1675.2 611.1 1673.4 610.7C1674 609.6 1674.5 608.5 1674.7 607.2C1675.6 601.7 1671.6 596.1 1666 595.5C1665.6 595.5 1665.4 595.6 1665.2 595.8C1661.5 595.6 1657.7 597.4 1655.4 600.3C1652.1 599.1 1648.7 598.2 1645.3 597.3C1645.1 597.2 1644.9 597.3 1644.8 597.3C1651.3 588.4 1660.9 576.2 1672.7 585C1673.6 585.7 1674.6 584.4 1674 583.5C1679.6 574.5 1688.8 567.2 1700.1 570.3C1713.9 574 1716.7 590.2 1710.3 601.4C1710 601.9 1710.1 602.3 1710.3 602.7C1710.1 603.3 1710.4 604 1711.1 603.9C1719 603 1720.6 611.1 1718.6 617.1Z" fill="white"/>
        <path d="M1698.3 619C1698 617 1695.8 615.1 1693.8 615.9C1693.4 616.1 1693.2 616.4 1693.3 616.8C1692 617 1691 618.3 1691.2 619.8C1691.4 621.9 1693.3 623.2 1695.3 622.8C1697.1 622.4 1698.6 620.9 1698.3 619ZM1695.3 620.9C1694.5 621.1 1693.6 620.9 1693.2 620.2C1692.6 619.1 1693.5 617.6 1694.8 617.8C1695 617.8 1695.1 617.7 1695.1 617.6C1695.7 617.8 1696.3 618.2 1696.5 619C1696.8 619.9 1696.2 620.7 1695.3 620.9Z" fill="white"/>
        <path d="M1696.8 574.1C1688.8 574 1681 578.1 1678.8 586.4C1678.7 586.9 1678.8 587.2 1679 587.5C1679 587.7 1679 588 1679.3 588.1C1682.7 590.2 1686.3 591.6 1690.1 592.9C1690.8 593.1 1691.3 592.6 1691.6 592.1C1693.7 586.8 1695.7 581.4 1697.9 576.1C1698.3 575.1 1697.9 574.1 1696.8 574.1ZM1689.6 590.2C1686.6 589.4 1683.8 588.4 1680.9 587.3C1681 587.2 1681 587.1 1681.1 586.9C1683 581.2 1688.6 576.1 1695 576.4C1693 580.9 1691.1 585.5 1689.6 590.2Z" fill="white"/>
        <path d="M1702.5 576.4C1702.3 575.9 1701.6 575.7 1701.4 576.3C1700.1 579.2 1699.1 582.3 1698.1 585.3C1697.3 587.6 1695.4 591.1 1695.5 593.5C1695.6 594.8 1695.9 595 1696.9 595.7C1699.7 597.3 1703.8 598 1706.8 599C1707.5 599.2 1708 598.8 1708.2 598.2C1708.4 598.1 1708.5 598 1708.6 597.8C1712.9 590.7 1708.8 580.7 1702.5 576.4ZM1697.9 593.5C1697.6 593 1698.9 590.3 1699 589.7C1700.1 586 1701.3 582.3 1702.1 578.5C1707.5 583.5 1708.1 589.7 1706.7 596.6C1704.8 596 1702.9 595.4 1701 594.7C1700.4 594.4 1698.3 594 1697.9 593.5Z" fill="white"/>


        <path d="M1751.1 34.5C1747.6 34.2 1743.9 34.5 1740.3 34.7C1739.3 31 1737.3 27.7 1734.6 25.1C1737.8 23.1 1741 20.8 1743.8 18.4C1744.7 17.7 1743.5 16.2 1742.6 16.8C1739.4 18.9 1736.2 21.5 1733.3 24.1C1730 21.6 1725.9 20.1 1721.2 20.6C1721 20.6 1720.9 20.6 1720.7 20.5C1720.7 19.2 1720.6 17.9 1720.6 16.6C1720.6 15.1 1720.7 13.6 1720.6 12.1C1720.5 11 1718.8 10.5 1718.5 11.8C1717.8 14.4 1718 17.6 1718.6 20.4C1713.6 20.4 1708.9 22.7 1705.1 26.1C1704.1 23.5 1702 20.9 1699.8 19.2C1698.7 18.3 1697.2 19.7 1698.2 20.8C1699.3 21.9 1700.4 22.9 1701.5 24.1C1702.4 25.1 1703.2 26.1 1704.1 27C1701.1 30 1698.8 33.8 1697.5 37.7C1694.2 36.4 1690.6 35.1 1687.2 34.6C1686.2 34.4 1685.2 36 1686.4 36.5C1689.7 37.9 1693.5 38.7 1697 39.4C1696.8 40.2 1696.6 41 1696.5 41.9C1696 45.5 1696.4 48.7 1697.6 51.5C1697.6 51.5 1697.6 51.5 1697.5 51.5C1694 52.8 1690.3 54.8 1686.8 56.6C1685.8 57.1 1686.7 58.5 1687.7 58.1C1691.3 56.6 1695.1 55.1 1698.5 53.2C1698.6 53.2 1698.6 53.1 1698.6 53.1C1701.2 57.7 1706 60.9 1711.7 62C1711.2 63.4 1710.8 64.8 1710.3 66.2C1709.8 67.8 1709 69.3 1708.7 70.9C1708.5 72 1709.8 72.5 1710.4 71.6C1712.1 69.1 1713 65.3 1713.6 62.3C1714.4 62.4 1715.3 62.4 1716.1 62.5C1720.5 62.5 1724.9 61.4 1728.7 59.4C1729.8 62.6 1731.1 65.8 1732.5 68.8C1733.1 70 1735.1 69.1 1734.6 67.9C1733.3 64.7 1731.8 61.6 1730.1 58.5C1733.6 56.4 1736.5 53.4 1738.4 49.8C1741.2 51.8 1744.5 53.7 1747.8 54.7C1749 55.1 1749.9 53.2 1748.7 52.6C1745.4 51.2 1742.3 49.8 1739.2 48.2C1740 46.5 1740.5 44.7 1740.8 42.7C1741.1 40.6 1741.1 38.5 1740.7 36.4C1744.1 36.6 1747.7 36.9 1751.1 36.6C1752.4 36.5 1752.4 34.6 1751.1 34.5ZM1738.4 41.2C1737.3 52.1 1727.4 59.4 1716.9 59.7C1705.4 60 1697 51.9 1699.7 40.2C1702.1 29.6 1710.5 24 1720.5 22.5C1720.7 22.6 1720.9 22.7 1721.1 22.7C1731.3 22.7 1739.4 30.9 1738.4 41.2Z" fill="white"/>
    </g>
</svg>
