<svg width="1920" height="800" viewBox="0 0 1920 800" xmlns="http://www.w3.org/2000/svg">
    <path opacity="0.03" d="M334.2 353C334.2 345.533 335.467 338.8 338 332.8C340.533 326.667 344 321.467 348.4 317.2C352.933 312.8 358.067 309.467 363.8 307.2C369.533 304.8 375.6 303.6 382 303.6C388.667 303.6 394.667 304.467 400 306.2C405.467 307.933 410.333 310.333 414.6 313.4C418.867 316.333 422.6 319.733 425.8 323.6V295.4C420.067 290.6 413.733 286.933 406.8 284.4C400 281.867 391.467 280.6 381.2 280.6C370.933 280.6 361.4 282.4 352.6 286C343.8 289.467 336.067 294.4 329.4 300.8C322.867 307.2 317.733 314.867 314 323.8C310.4 332.6 308.6 342.333 308.6 353C308.6 363.667 310.4 373.467 314 382.4C317.733 391.2 322.867 398.8 329.4 405.2C336.067 411.6 343.8 416.6 352.6 420.2C361.4 423.667 370.933 425.4 381.2 425.4C391.467 425.4 400 424.133 406.8 421.6C413.733 419.067 420.067 415.4 425.8 410.6V382.4C422.6 386.133 418.867 389.533 414.6 392.6C410.333 395.667 405.467 398.067 400 399.8C394.667 401.533 388.667 402.4 382 402.4C375.6 402.4 369.533 401.267 363.8 399C358.067 396.6 352.933 393.267 348.4 389C344 384.6 340.533 379.4 338 373.4C335.467 367.267 334.2 360.467 334.2 353ZM474.481 331H453.081V423H474.481V331ZM501.881 354.2L512.481 335.8C510.348 333.4 507.815 331.667 504.881 330.6C501.948 329.533 498.815 329 495.481 329C490.815 329 486.281 330.667 481.881 334C477.615 337.333 474.081 341.867 471.281 347.6C468.615 353.2 467.281 359.667 467.281 367L474.481 371.2C474.481 366.8 475.015 362.933 476.081 359.6C477.148 356.267 478.748 353.733 480.881 352C483.148 350.133 486.081 349.2 489.681 349.2C492.348 349.2 494.548 349.667 496.281 350.6C498.015 351.4 499.881 352.6 501.881 354.2ZM526.305 294.4C526.305 298.133 527.638 301.267 530.305 303.8C532.971 306.333 536.171 307.6 539.905 307.6C543.771 307.6 546.971 306.333 549.505 303.8C552.171 301.267 553.505 298.133 553.505 294.4C553.505 290.667 552.171 287.533 549.505 285C546.971 282.467 543.771 281.2 539.905 281.2C536.171 281.2 532.971 282.467 530.305 285C527.638 287.533 526.305 290.667 526.305 294.4ZM529.305 331V423H550.505V331H529.305ZM584.43 392.8L571.83 405.4C574.496 409 577.83 412.333 581.83 415.4C585.83 418.467 590.43 421 595.63 423C600.963 424.867 606.763 425.8 613.03 425.8C619.696 425.8 625.496 424.6 630.43 422.2C635.363 419.8 639.163 416.467 641.83 412.2C644.496 407.8 645.83 402.733 645.83 397C645.83 391.4 644.496 386.867 641.83 383.4C639.296 379.933 635.896 377.067 631.63 374.8C627.363 372.4 622.696 370.2 617.63 368.2C613.896 366.733 610.496 365.333 607.43 364C604.363 362.667 601.963 361.2 600.23 359.6C598.496 357.867 597.63 355.867 597.63 353.6C597.63 351.067 598.63 349.133 600.63 347.8C602.63 346.467 605.163 345.8 608.23 345.8C612.763 345.8 617.163 347 621.43 349.4C625.83 351.667 629.496 354.533 632.43 358L644.43 345.2C641.896 342.133 638.763 339.4 635.03 337C631.43 334.467 627.43 332.533 623.03 331.2C618.63 329.733 613.896 329 608.83 329C603.23 329 598.03 329.933 593.23 331.8C588.43 333.667 584.563 336.467 581.63 340.2C578.696 343.8 577.23 348.4 577.23 354C577.23 359.6 578.496 364.2 581.03 367.8C583.696 371.267 587.03 374.133 591.03 376.4C595.163 378.533 599.296 380.4 603.43 382C607.563 383.467 611.163 384.933 614.23 386.4C617.296 387.867 619.696 389.533 621.43 391.4C623.163 393.267 624.03 395.533 624.03 398.2C624.03 401.133 622.896 403.533 620.63 405.4C618.496 407.133 615.496 408 611.63 408C608.563 408 605.496 407.4 602.43 406.2C599.363 405 596.363 403.333 593.43 401.2C590.496 398.933 587.496 396.133 584.43 392.8ZM652.195 331V350H704.395V331H652.195ZM667.595 299V423H688.995V299H667.595ZM718.492 294.4C718.492 298.133 719.826 301.267 722.492 303.8C725.159 306.333 728.359 307.6 732.092 307.6C735.959 307.6 739.159 306.333 741.692 303.8C744.359 301.267 745.692 298.133 745.692 294.4C745.692 290.667 744.359 287.533 741.692 285C739.159 282.467 735.959 281.2 732.092 281.2C728.359 281.2 725.159 282.467 722.492 285C719.826 287.533 718.492 290.667 718.492 294.4ZM721.492 331V423H742.692V331H721.492ZM812.417 425C823.084 425 832.217 422.933 839.817 418.8C847.551 414.533 853.817 408.267 858.617 400L839.817 392.6C836.884 397.533 833.217 401.2 828.817 403.6C824.417 406 819.284 407.2 813.417 407.2C807.817 407.2 803.084 406 799.217 403.6C795.351 401.067 792.417 397.533 790.417 393C788.417 388.333 787.417 382.733 787.417 376.2C787.417 371.133 788.017 366.733 789.217 363C790.417 359.133 792.084 355.933 794.217 353.4C796.484 350.733 799.151 348.733 802.217 347.4C805.417 346.067 809.084 345.4 813.217 345.4C817.751 345.4 821.684 346.4 825.017 348.4C828.484 350.4 831.151 353.2 833.017 356.8C835.017 360.4 836.017 364.667 836.017 369.6C836.017 370.533 835.751 371.667 835.217 373C834.817 374.333 834.351 375.4 833.817 376.2L840.617 367H778.217V382H859.217C859.217 381.467 859.217 380.667 859.217 379.6C859.351 378.4 859.417 377.2 859.417 376C859.417 366.133 857.551 357.733 853.817 350.8C850.217 343.733 845.017 338.333 838.217 334.6C831.417 330.867 823.151 329 813.417 329C806.084 329 799.484 330.133 793.617 332.4C787.751 334.667 782.684 337.933 778.417 342.2C774.284 346.333 771.084 351.4 768.817 357.4C766.551 363.267 765.417 369.8 765.417 377C765.417 386.6 767.351 395 771.217 402.2C775.084 409.4 780.551 415 787.617 419C794.684 423 802.951 425 812.417 425ZM950.995 377.8L933.395 390.2C936.462 396.733 940.595 402.733 945.795 408.2C951.129 413.533 957.262 417.867 964.195 421.2C971.262 424.4 978.862 426 986.995 426C992.995 426 998.729 425 1004.2 423C1009.8 421.133 1014.8 418.4 1019.2 414.8C1023.6 411.2 1027.06 406.867 1029.6 401.8C1032.26 396.6 1033.6 390.733 1033.6 384.2C1033.6 378.067 1032.53 372.733 1030.4 368.2C1028.4 363.533 1025.6 359.533 1022 356.2C1018.53 352.867 1014.73 350.067 1010.6 347.8C1006.46 345.533 1002.26 343.667 997.995 342.2C992.395 340.2 987.529 338.267 983.395 336.4C979.395 334.533 976.129 332.6 973.595 330.6C971.062 328.6 969.195 326.467 967.995 324.2C966.795 321.933 966.195 319.4 966.195 316.6C966.195 313.933 966.862 311.467 968.195 309.2C969.529 306.933 971.595 305.133 974.395 303.8C977.329 302.333 980.929 301.6 985.195 301.6C989.995 301.6 994.129 302.533 997.595 304.4C1001.06 306.267 1004.06 308.667 1006.6 311.6C1009.26 314.533 1011.53 317.733 1013.4 321.2L1032.6 310.4C1030.2 305.467 1026.86 300.733 1022.6 296.2C1018.46 291.667 1013.33 287.933 1007.2 285C1001.06 282.067 993.862 280.6 985.595 280.6C977.195 280.6 969.662 282.2 962.995 285.4C956.462 288.467 951.262 292.867 947.395 298.6C943.529 304.2 941.595 310.733 941.595 318.2C941.595 324.733 942.862 330.333 945.395 335C947.929 339.667 951.129 343.6 954.995 346.8C958.862 349.867 962.929 352.4 967.195 354.4C971.462 356.4 975.329 358 978.795 359.2C984.662 361.333 989.795 363.533 994.195 365.8C998.729 367.933 1002.26 370.6 1004.8 373.8C1007.33 376.867 1008.6 381 1008.6 386.2C1008.6 389.933 1007.66 393.2 1005.8 396C1004.06 398.8 1001.6 401 998.395 402.6C995.195 404.067 991.395 404.8 986.995 404.8C981.795 404.8 976.995 403.667 972.595 401.4C968.329 399.133 964.395 396 960.795 392C957.329 387.867 954.062 383.133 950.995 377.8ZM1070.02 377C1070.02 371.267 1071.29 366.2 1073.82 361.8C1076.35 357.4 1079.75 353.933 1084.02 351.4C1088.42 348.867 1093.29 347.6 1098.62 347.6C1102.89 347.6 1107.02 348.267 1111.02 349.6C1115.02 350.933 1118.55 352.8 1121.62 355.2C1124.82 357.467 1127.15 360.133 1128.62 363.2V339.2C1125.42 336.133 1121.09 333.667 1115.62 331.8C1110.15 329.933 1104.15 329 1097.62 329C1088.15 329 1079.62 331.067 1072.02 335.2C1064.55 339.2 1058.62 344.8 1054.22 352C1049.95 359.2 1047.82 367.533 1047.82 377C1047.82 386.333 1049.95 394.667 1054.22 402C1058.62 409.2 1064.55 414.867 1072.02 419C1079.62 423 1088.15 425 1097.62 425C1104.15 425 1110.15 424.133 1115.62 422.4C1121.09 420.533 1125.42 417.933 1128.62 414.6V390.8C1127.15 393.733 1124.89 396.4 1121.82 398.8C1118.75 401.2 1115.22 403.067 1111.22 404.4C1107.22 405.733 1103.02 406.4 1098.62 406.4C1093.29 406.4 1088.42 405.2 1084.02 402.8C1079.75 400.267 1076.35 396.8 1073.82 392.4C1071.29 387.867 1070.02 382.733 1070.02 377ZM1166.1 394.4C1166.1 391.467 1166.76 389 1168.1 387C1169.43 385 1171.5 383.467 1174.3 382.4C1177.23 381.2 1180.96 380.6 1185.5 380.6C1190.7 380.6 1195.63 381.267 1200.3 382.6C1204.96 383.933 1209.36 386.067 1213.5 389V378C1212.3 376.533 1210.23 374.933 1207.3 373.2C1204.36 371.333 1200.63 369.733 1196.1 368.4C1191.7 367.067 1186.43 366.4 1180.3 366.4C1172.7 366.4 1166.23 367.6 1160.9 370C1155.56 372.4 1151.43 375.8 1148.5 380.2C1145.7 384.467 1144.3 389.6 1144.3 395.6C1144.3 401.867 1145.76 407.2 1148.7 411.6C1151.63 416 1155.56 419.333 1160.5 421.6C1165.43 423.867 1170.76 425 1176.5 425C1181.83 425 1187.03 424.067 1192.1 422.2C1197.3 420.2 1201.56 417.267 1204.9 413.4C1208.36 409.4 1210.1 404.467 1210.1 398.6L1206.9 386.6C1206.9 391.267 1205.83 395.267 1203.7 398.6C1201.56 401.933 1198.7 404.467 1195.1 406.2C1191.5 407.933 1187.56 408.8 1183.3 408.8C1179.96 408.8 1176.96 408.267 1174.3 407.2C1171.76 406 1169.76 404.333 1168.3 402.2C1166.83 400.067 1166.1 397.467 1166.1 394.4ZM1159.3 355C1160.63 354.067 1162.63 352.933 1165.3 351.6C1168.1 350.267 1171.36 349.067 1175.1 348C1178.83 346.933 1182.9 346.4 1187.3 346.4C1190.1 346.4 1192.7 346.667 1195.1 347.2C1197.5 347.733 1199.56 348.6 1201.3 349.8C1203.16 351 1204.56 352.6 1205.5 354.6C1206.43 356.467 1206.9 358.8 1206.9 361.6V423H1228.1V357.4C1228.1 351.267 1226.43 346.133 1223.1 342C1219.76 337.733 1215.16 334.467 1209.3 332.2C1203.56 329.933 1196.9 328.8 1189.3 328.8C1180.76 328.8 1173.23 330 1166.7 332.4C1160.16 334.8 1154.76 337.267 1150.5 339.8L1159.3 355ZM1312.48 367V423H1334.68V364.6C1334.68 357.133 1333.41 350.8 1330.88 345.6C1328.48 340.267 1324.88 336.2 1320.08 333.4C1315.41 330.467 1309.61 329 1302.68 329C1296.41 329 1290.94 330.333 1286.28 333C1281.61 335.667 1277.81 339.733 1274.88 345.2V331H1253.28V423H1274.88V367C1274.88 362.867 1275.74 359.267 1277.48 356.2C1279.21 353.133 1281.61 350.733 1284.68 349C1287.88 347.267 1291.48 346.4 1295.48 346.4C1299.34 346.4 1302.54 347.2 1305.08 348.8C1307.61 350.4 1309.48 352.733 1310.68 355.8C1311.88 358.733 1312.48 362.467 1312.48 367ZM1362.26 267V423H1383.86V267H1362.26ZM1404.48 377C1404.48 386.333 1406.61 394.667 1410.88 402C1415.28 409.2 1421.21 414.867 1428.68 419C1436.28 423 1444.75 425 1454.08 425C1463.55 425 1472.01 423 1479.48 419C1486.95 414.867 1492.81 409.2 1497.08 402C1501.48 394.667 1503.68 386.333 1503.68 377C1503.68 367.533 1501.48 359.2 1497.08 352C1492.81 344.8 1486.95 339.2 1479.48 335.2C1472.01 331.067 1463.55 329 1454.08 329C1444.75 329 1436.28 331.067 1428.68 335.2C1421.21 339.2 1415.28 344.8 1410.88 352C1406.61 359.2 1404.48 367.533 1404.48 377ZM1426.68 377C1426.68 371.267 1427.88 366.267 1430.28 362C1432.68 357.6 1435.95 354.2 1440.08 351.8C1444.21 349.267 1448.88 348 1454.08 348C1459.28 348 1463.95 349.267 1468.08 351.8C1472.21 354.2 1475.48 357.6 1477.88 362C1480.28 366.267 1481.48 371.267 1481.48 377C1481.48 382.733 1480.28 387.8 1477.88 392.2C1475.48 396.467 1472.21 399.867 1468.08 402.4C1463.95 404.8 1459.28 406 1454.08 406C1448.88 406 1444.21 404.8 1440.08 402.4C1435.95 399.867 1432.68 396.467 1430.28 392.2C1427.88 387.8 1426.68 382.733 1426.68 377ZM1583.38 367V423H1605.58V364.6C1605.58 357.133 1604.31 350.8 1601.78 345.6C1599.38 340.267 1595.78 336.2 1590.98 333.4C1586.31 330.467 1580.51 329 1573.58 329C1567.31 329 1561.84 330.333 1557.18 333C1552.51 335.667 1548.71 339.733 1545.78 345.2V331H1524.18V423H1545.78V367C1545.78 362.867 1546.64 359.267 1548.38 356.2C1550.11 353.133 1552.51 350.733 1555.58 349C1558.78 347.267 1562.38 346.4 1566.38 346.4C1570.24 346.4 1573.44 347.2 1575.98 348.8C1578.51 350.4 1580.38 352.733 1581.58 355.8C1582.78 358.733 1583.38 362.467 1583.38 367Z" fill="#2F2D51"/>
</svg>
