<svg width="815" height="525" viewBox="0 0 815 525" fill="none" xmlns="http://www.w3.org/2000/svg" style="background-color: #333;">
<style>
    .dark-theme {
      fill: #78909c;
    }
  </style>
    <g clip-path="url(#clip0)">
        <path d="M523.561 289.836H455.429V431.409H523.561V289.836Z" fill="white"/>
        <path opacity="0.13" d="M523.561 366.101H455.429V383.458H523.561V366.101Z" fill="black"/>
        <path d="M685.586 370.549H293.368C284.901 370.549 277.954 363.606 277.954 355.144V100.927C277.954 92.4654 284.901 85.5224 293.368 85.5224H685.623C694.089 85.5224 701.036 92.4654 701.036 100.927V355.144C701 363.642 694.089 370.549 685.586 370.549Z" fill="white"/>
        <path d="M686.636 362.159H292.319C288.954 362.159 286.204 359.411 286.204 356.048V98.6852C286.204 95.3222 288.954 92.5739 292.319 92.5739H677.952C686.093 92.5739 692.715 99.2277 692.715 107.328V356.048C692.751 359.411 690.001 362.159 686.636 362.159Z" fill="url(#paint0_radial)"/>
        <path d="M138 418.969C138 418.969 145.707 426.202 149.832 427.142C151.605 427.54 151.207 430.903 151.207 430.903L129.461 423.164C129.461 423.164 128.412 421.139 133.55 417.414L138 418.969Z" fill="url(#paint1_linear)"/>
        <path d="M141.98 422.079C142.234 422.151 138.905 426.527 138.905 426.527L147.154 429.456L148.312 425.912L141.98 422.079Z" fill="url(#paint2_radial)"/>
        <path d="M127.58 424.068L128.557 421.464L152.003 430.396L151.026 433L127.58 424.068Z" fill="url(#paint3_radial)"/>
        <path d="M197.774 286.581L145.635 422.549L130.148 416.474C130.148 416.474 136.444 326.468 157.828 305.711C157.828 305.711 152.437 258.122 176.028 230.856L197.774 286.581Z" fill="url(#paint4_radial)"/>
        <path d="M191.912 423.453C191.912 423.453 201.754 427.359 205.915 426.744C207.724 426.491 208.556 429.745 208.556 429.745L185.471 430.505C185.471 430.505 183.735 429.022 187.172 423.634L191.912 423.453Z" fill="url(#paint5_linear)"/>
        <path d="M196.724 424.9C196.978 424.9 195.494 430.143 195.494 430.143L204.25 429.854L204.033 426.129L196.724 424.9Z" fill="url(#paint6_radial)"/>
        <path d="M184.061 432.024V429.239L209.135 428.986L209.171 431.77L184.061 432.024Z" fill="url(#paint7_radial)"/>
        <path d="M200.198 150.541L231.242 169.056C231.242 169.056 218.832 155.712 218.217 133.762C218.217 133.762 214.381 132.171 214.381 126.783V123.131C214.381 122.877 214.671 122.769 214.852 122.95C215.214 123.311 215.648 124.035 215.648 125.517C215.648 128.049 216.299 128.374 216.588 128.374C216.914 128.374 215.648 118.502 216.588 118.213C217.529 117.887 217.529 123.311 217.529 123.311C217.529 123.311 222.631 123.962 223.246 126.168C223.897 128.41 222.305 134.124 222.305 134.124C222.305 134.124 246.475 166.886 242.676 174.806C238.841 182.761 211.812 174.48 211.812 174.48L200.198 150.541Z" fill="url(#paint8_linear)"/>
        <path d="M203.201 112.571C203.201 112.571 199.366 123.781 203.201 127.651C207.037 131.484 210.04 142.079 201.501 143.381C192.925 144.647 187.57 142.658 183.337 147.178C179.14 151.698 169.841 151.626 168.538 147.178C167.272 142.73 168.611 137.704 160.542 136.836L174.943 123.094L190.031 105.194C190.031 105.194 204.648 106.279 203.201 112.571Z" fill="url(#paint9_radial)"/>
        <path d="M183.626 120.346C183.626 120.346 183.915 146.853 182.179 153.506C182.179 153.506 189.886 160.883 199.04 153.506L192.02 120.346C191.984 120.346 188.257 112.788 183.626 120.346Z" fill="url(#paint10_linear)"/>
        <path d="M200.306 108.413V132.46C200.306 132.46 182.649 135.028 182.323 120.418C181.998 105.845 199.004 90.1511 200.306 108.413Z" fill="url(#paint11_linear)"/>
        <path d="M202.875 102.012C202.875 102.012 207.688 104.58 206.421 112.607H188.439C188.439 112.607 184.784 115.247 186.847 123.131C188.873 131.014 188.113 144.285 177.873 145.912C167.597 147.54 171.758 135.028 166.005 136.98C160.216 138.897 156.055 135.064 160.216 128.012C164.377 120.961 172.735 125.047 172.735 116.441C172.699 107.762 185.87 89.8256 202.875 102.012Z" fill="url(#paint12_radial)"/>
        <path d="M197.918 148.335C197.918 148.335 210.944 160.883 216.914 166.85C222.884 172.817 207.796 190.355 203.924 197.334C200.053 204.35 202.875 226.083 199.004 233.098L158.334 234.509L182.143 197.334C182.143 197.334 157.756 161.1 183.228 146.78C183.264 146.78 193.649 157.882 197.918 148.335Z" fill="url(#paint13_linear)"/>
        <path d="M182.179 147.431L182.577 144.502C182.577 144.502 191.442 146.78 196.978 143.815L197.919 148.335C197.919 148.335 195.422 159.148 182.179 147.431Z" fill="url(#paint14_linear)"/>
        <path d="M217.602 123.275C217.602 123.275 217.602 129.314 218.253 129.314C218.905 129.314 218.905 128.989 218.905 128.989C218.905 128.989 219.23 129.64 219.845 129.314C219.845 129.314 220.171 129.965 220.786 129.64C221.437 129.314 222.957 125.59 222.957 125.59C222.957 125.59 222.342 123.601 217.602 123.275Z" fill="url(#paint15_linear)"/>
        <path d="M198.859 233.062L200.306 423.996H183.662C183.662 423.996 156.525 337.931 168.827 310.81C168.827 310.81 146.394 268.501 158.334 234.509L198.859 233.062Z" fill="url(#paint16_radial)"/>
        <path d="M174.726 154.808C174.726 154.808 154.102 198.781 168.502 246.767C173.495 263.438 177.837 268.862 182.541 269.947C187.245 271.032 179.646 260.183 179.646 260.183C179.646 260.183 183.626 263.799 183.988 262.353C184.35 260.907 176.39 255.844 176.39 255.844C176.39 255.844 172.048 192.923 188.33 173.034C188.366 173.034 188.62 153.253 174.726 154.808Z" fill="url(#paint17_linear)"/>
        <path d="M416.497 128.555H324.593V228.036H416.497V128.555Z" fill="white"/>
        <path d="M381.617 197.479C381.617 197.479 413.494 205.615 415.122 217.404C416.714 229.229 416.533 227.999 416.533 227.999H341.382H327.56C327.56 227.999 334.181 200.336 363.417 197.443H381.617V197.479Z" fill="url(#paint18_radial)"/>
        <path d="M382.449 173.359L381.255 207.604C381.255 207.604 365.443 215.596 362.223 207.604L365.624 179L382.449 173.359Z" fill="url(#paint19_linear)"/>
        <path d="M358.026 158.967C358.026 158.967 354.009 180.772 364.43 187.788C374.851 194.803 382.449 173.793 382.449 158.967C382.449 144.141 362.44 139.765 358.026 158.967Z" fill="url(#paint20_linear)"/>
        <path d="M375.032 146.997C375.032 146.997 366.42 166.163 356 160.956C345.579 155.748 350.608 152.747 350.608 152.747C350.608 152.747 354.625 156.146 355.421 152.349C356.217 148.552 365.624 130.724 377.854 144.755C377.854 144.755 389.866 143.96 390.264 153.145C390.662 162.366 379.663 170.972 379.663 170.972C379.663 170.972 371.63 157.665 375.032 146.997Z" fill="url(#paint21_radial)"/>
        <path d="M379.808 175.493C380.061 174.986 380.857 163.957 380.857 163.957C380.857 163.957 387.08 162.764 386.067 168.369C385.488 171.515 379.808 175.493 379.808 175.493Z" fill="url(#paint22_linear)"/>
        <path d="M656.858 230.531H541.218V333.953H656.858V230.531Z" fill="white"/>
        <path d="M570.418 321.947C574.181 327.119 576.315 332.471 576.315 332.471C575.375 332.941 574.47 333.411 573.674 333.917H545.488C545.886 332.76 546.429 331.603 547.116 330.409C550.807 323.828 555.329 318.078 560.033 313.16C564.194 314.643 567.74 318.259 570.418 321.947Z" fill="url(#paint23_linear)"/>
        <path d="M586.048 324.696C584.348 326.938 582.213 328.963 579.427 330.735C578.486 331.349 577.473 331.928 576.388 332.434C576.352 332.434 576.352 332.471 576.315 332.471C576.315 332.471 574.181 327.082 570.418 321.947C567.74 318.223 564.194 314.607 560.033 313.196C573.565 298.985 588.473 291.644 588.69 291.536C588.69 291.536 596.252 311.244 586.048 324.696Z" fill="url(#paint24_radial)"/>
        <path d="M629.504 311.533C629.25 313.775 628.997 316.162 628.671 318.693C628.346 321.188 628.02 323.828 627.658 326.54C627.333 328.927 627.007 331.422 626.681 333.917H576.352C576.352 333.411 576.352 332.941 576.388 332.434C576.713 320.176 578.342 308.64 582.213 300.323C583.914 296.707 586.048 293.705 588.69 291.499C591.15 289.438 594.081 288.1 597.554 287.702L600.666 287.015L602.294 286.654L612.823 284.339L612.932 284.303C612.932 284.303 615.067 284.592 617.817 285.858C617.853 285.858 617.853 285.858 617.889 285.894C623.352 288.462 631.276 295.079 629.504 311.533Z" fill="url(#paint25_radial)"/>
        <path opacity="0.07" d="M637.138 326.54L636.777 328.71C631.639 327.119 627.767 326.576 627.659 326.576C627.333 328.963 627.007 331.458 626.682 333.953H611.774C611.485 317.246 612.462 304.337 612.39 303.686L628.672 318.729L637.138 326.54Z" fill="black"/>
        <path d="M595.529 294.537C595.637 294.32 602.186 281.193 591.838 274.793L603.887 261.232C603.887 261.232 612.462 273.997 614.307 283.399L595.529 294.537Z" fill="url(#paint26_linear)"/>
        <path opacity="0.18" d="M595.529 294.537C595.637 294.32 602.186 281.193 591.838 274.793L605.008 263.619L605.37 283.038L595.529 294.537Z" fill="black"/>
        <path d="M590.933 257.363L586.989 275.082C586.989 275.082 605.587 279.024 603.633 257.363C603.633 257.363 595.239 245.719 590.933 257.363Z" fill="url(#paint27_linear)"/>
        <path d="M656.858 304.301V333.953H648.789C646.473 332.543 644.049 331.422 641.734 330.482C641.734 330.482 639.997 322.707 640.178 313.883C640.178 313.703 640.178 313.522 640.178 313.341C640.178 313.124 640.178 312.943 640.214 312.762C640.214 312.654 640.214 312.509 640.214 312.401C640.214 312.256 640.214 312.148 640.214 312.003C640.214 311.822 640.214 311.641 640.25 311.461C640.25 311.424 640.25 311.388 640.25 311.352C640.286 311.027 640.286 310.737 640.322 310.412C640.322 310.195 640.359 309.942 640.395 309.725C640.395 309.544 640.431 309.363 640.467 309.182C640.467 309.002 640.503 308.821 640.54 308.64C640.54 308.495 640.576 308.351 640.576 308.242C640.576 308.098 640.612 307.953 640.648 307.808C640.648 307.664 640.684 307.519 640.72 307.41C640.757 307.193 640.793 307.013 640.829 306.796C640.938 306.217 641.046 305.602 641.155 305.024C641.191 304.843 641.227 304.626 641.299 304.445C641.336 304.264 641.372 304.084 641.444 303.903V303.867C641.48 303.686 641.516 303.541 641.553 303.36C641.589 303.288 641.589 303.216 641.625 303.143C641.661 302.999 641.697 302.89 641.734 302.746C641.77 302.565 641.842 302.384 641.878 302.203C641.951 301.986 641.987 301.805 642.059 301.588C642.132 301.335 642.24 301.082 642.312 300.865C642.385 300.721 642.421 300.54 642.493 300.395C642.493 300.359 642.53 300.287 642.566 300.25C642.602 300.142 642.674 299.997 642.711 299.889C642.747 299.78 642.819 299.636 642.855 299.527C642.855 299.491 642.891 299.455 642.928 299.383C642.964 299.274 643.036 299.166 643.072 299.057C643.109 298.949 643.181 298.804 643.253 298.696C643.289 298.659 643.289 298.623 643.326 298.551C643.398 298.442 643.434 298.298 643.507 298.189C643.543 298.117 643.579 298.045 643.615 297.972C643.796 297.611 644.013 297.285 644.194 296.924C648.355 299.021 652.697 301.516 656.858 304.301Z" fill="url(#paint28_linear)"/>
        <path d="M641.733 330.445C639.997 329.758 638.332 329.18 636.776 328.674C631.638 327.082 627.767 326.54 627.658 326.54C627.658 326.54 613.475 317.934 612.389 303.65C611.991 298.442 613.33 292.512 617.744 285.967C617.78 285.93 617.78 285.894 617.817 285.858C617.817 285.858 617.853 285.858 617.889 285.894C618.974 286.22 630.987 290.017 644.158 296.851C636.921 308.748 641.733 330.445 641.733 330.445Z" fill="url(#paint29_radial)"/>
        <path d="M603.778 261.34C603.778 261.34 600.883 268.32 597.12 268.79C593.357 269.26 588.69 273.202 589.052 271.213C589.414 269.26 589.956 268.717 589.956 268.717L588.183 268.573C588.183 268.573 584.42 271.068 585.687 275.335C586.953 279.638 595.89 278.373 598.749 276.962C601.571 275.516 604.755 271.357 603.778 261.34Z" fill="url(#paint30_radial)"/>
        <path d="M589.052 265.788L588.654 267.524C588.654 267.524 592.923 266.62 594.19 269.621L594.913 269.332C594.913 269.332 594.732 266.909 591.874 266.367C589.052 265.861 589.052 265.788 589.052 265.788Z" fill="url(#paint31_radial)"/>
        <path d="M602.584 263.763L602.656 258.52L599.617 253.457C599.617 253.457 594.226 254.94 592.091 252.264C589.956 249.588 596.216 243.874 601.39 249.95C606.564 256.025 605.153 256.206 605.153 256.206C605.153 256.206 606.781 256.567 606.238 258.882C605.695 261.196 603.669 268.681 603.669 268.681L602.584 263.763Z" fill="url(#paint32_radial)"/>
        <path d="M603.742 261.377C603.742 261.377 603.018 264.595 602.656 265.137C602.656 265.137 604.176 265.318 605.044 263.619C605.876 261.919 605.153 261.377 603.742 261.377Z" fill="url(#paint33_linear)"/>
        <path d="M613.655 276.565C613.655 276.565 594.949 287.919 595.094 297.864L617.889 285.858L613.655 276.565Z" fill="url(#paint34_radial)"/>
        <path d="M605.912 48.2758H450.328V190.753H605.912V48.2758Z" fill="white"/>
        <path d="M513.539 127.615C513.539 127.615 532.715 122.914 542.846 123.998C542.846 123.998 526.926 137.017 513.539 127.615Z" fill="black"/>
        <path d="M459.988 191.476H494.217L492.082 173.142L489.549 151.228L489.513 150.975C489.513 150.975 476.379 155.929 464.258 182.002C462.919 184.931 461.508 188.077 459.988 191.476Z" fill="url(#paint35_radial)"/>
        <path d="M470.843 191.476H570.815C571.611 187.064 572.299 182.942 572.769 179.253C574.072 169.309 574.108 162.294 572.19 160.015C564.086 150.216 551.168 145.406 545.669 143.67C544.004 143.164 542.991 142.911 542.991 142.911H515.963C513.864 142.839 511.838 142.875 509.884 143.056C501.635 143.779 494.941 146.636 489.477 151.228C479.31 159.799 473.629 174.299 470.843 191.476Z" fill="url(#paint36_radial)"/>
        <g opacity="0.62">
            <path opacity="0.62" d="M515.094 146.383C515.094 146.383 514.479 146.853 513.43 147.757" stroke="white" stroke-linejoin="round"/>
            <path opacity="0.62" d="M510.137 150.722C505.325 155.278 497.872 163.198 492.082 173.142C489.188 178.132 486.727 183.593 485.172 189.451C485.027 190.066 484.882 190.717 484.737 191.44" stroke="white" stroke-linejoin="round" stroke-dasharray="12.24 12.24"/>
        </g>
        <path d="M530.472 94.3097C530.472 94.3097 542.087 127.398 543.027 142.911C543.027 142.911 525.949 149.746 515.999 142.911C515.999 142.911 521.607 116.838 515.999 106.605C515.999 106.605 524.14 89.1386 530.472 94.3097Z" fill="url(#paint37_linear)"/>
        <path opacity="0.13" d="M529.35 97.6004C529.35 97.6004 530.833 116.621 524.393 128.844L518.097 128.591C518.097 128.591 518.929 120.78 518.35 116.477C517.735 112.21 529.35 97.6004 529.35 97.6004Z" fill="black"/>
        <path d="M510.933 91.6337C510.933 91.6337 507.605 110.329 512.996 115.103C518.387 119.876 525.877 112.824 528.373 105.339C530.87 97.8535 532.932 82.8826 523.38 78.3262C513.864 73.7698 510.933 91.6337 510.933 91.6337Z" fill="url(#paint38_linear)"/>
        <path d="M524.393 86.7519C524.393 86.7519 524.393 90.1511 525.623 91.0913C526.853 92.0315 529.024 93.8757 529.35 97.6004C529.35 97.6004 531.521 93.8757 532.136 91.9953C532.751 90.1149 534.633 85.4862 530.58 83.3165C526.564 81.1468 524.393 86.7519 524.393 86.7519Z" fill="url(#paint39_linear)"/>
        <path d="M524.393 86.7519C524.393 86.7519 506.989 90.4766 505.433 80.2428C503.877 70.009 512.561 69.0688 512.561 69.0688C512.561 69.0688 507.279 72.7935 509.775 74.3484C509.775 74.3484 513.176 65.9589 520.34 69.0688C520.34 69.0688 517.229 72.7935 520.34 73.1189C523.452 73.4444 536.622 83.7143 530.508 85.2331C524.393 86.7519 524.393 86.7519 524.393 86.7519Z" fill="url(#paint40_linear)"/>
        <path d="M530.435 90.6574L529.856 96.6602C529.856 96.6602 533.04 96.6602 533.981 94.4905C534.958 92.3208 533.113 90.2234 530.435 90.6574Z" fill="url(#paint41_linear)"/>
        <path d="M513.683 191.476H573.565C573.746 187.426 573.529 183.34 572.805 179.253C571.792 173.287 569.73 167.284 566.51 161.317C566.51 161.317 535.393 166.633 513.683 191.476Z" fill="url(#paint42_radial)"/>
        <path d="M542.846 123.998C542.846 123.998 527.288 131.954 513.538 127.615C513.538 127.615 509.558 133.943 509.92 143.056C509.92 143.056 521.499 155.459 547.55 142.802C547.55 142.802 547.55 128.338 542.846 123.998Z" fill="url(#paint43_radial)"/>
        <path d="M506.085 244.634H426.013V320.935H506.085V244.634Z" fill="white"/>
        <path d="M464.222 295.26L463.426 298.696L463.209 299.636L460.459 311.605L458.361 320.646L458.288 320.971H442.513C442.947 316.306 443.634 312.184 444.177 308.568C445.986 296.598 462.232 289.149 462.485 289.04L463.426 292.476L464.222 295.26Z" fill="url(#paint44_radial)"/>
        <path opacity="0.11" d="M466.212 293.054L465.126 295.26L463.426 298.696L463.028 299.527L457.311 311.063L452.933 319.922L452.426 320.971H448.229C448.663 313.341 451.16 305.313 454.706 300.793C459.409 294.754 462.485 289.185 462.557 289.04L466.212 293.054Z" fill="black"/>
        <path d="M491.829 320.935H450.038C450.183 320.393 450.291 319.85 450.436 319.308C451.268 316.162 452.318 313.124 453.584 310.231C456.008 304.734 459.265 299.816 463.607 295.803C463.824 295.622 464.005 295.441 464.222 295.224H465.126H468.274H470.011H479.889C479.889 295.224 481.662 295.079 483.869 295.983C488.174 297.755 494.036 303.288 491.829 320.935Z" fill="url(#paint45_radial)"/>
        <path opacity="0.64" d="M476.018 312.039L474.136 320.537C474.136 320.537 459.591 321.911 450.437 319.308C451.269 316.162 452.318 313.124 453.584 310.231C458.143 311.352 466.936 313.015 476.018 312.039Z" fill="white"/>
        <path d="M448.772 262.461C448.772 262.461 451.739 277.179 442.368 279.819C442.368 279.819 448.555 288.245 460.459 284.629C472.363 281.012 464.222 264.378 464.222 264.378L459.554 260.256L448.772 262.461Z" fill="url(#paint46_radial)"/>
        <path d="M456.66 279.747C456.66 279.747 466.61 289.944 462.738 299.346C462.738 299.346 471.205 304.409 479.925 295.26C479.925 295.26 464.982 280.651 464.005 273.961C463.028 267.271 456.66 279.747 456.66 279.747Z" fill="url(#paint47_linear)"/>
        <path opacity="0.07" d="M472.146 286.943L468.274 284.195V309.399C468.274 309.363 469.686 291.825 472.146 286.943Z" fill="black"/>
        <path d="M451.269 262.425V280C451.269 280 461.689 280.868 463.643 277.035C465.633 273.202 461.653 255.808 461.653 255.808C461.653 255.808 451.269 250.962 451.269 262.425Z" fill="url(#paint48_linear)"/>
        <path opacity="0.07" d="M451.269 262.425V267.09H459.12C459.12 267.09 460.929 269.621 461.798 274.937L463.064 262.968L461.581 258.086L451.269 262.425Z" fill="black"/>
        <path d="M446.709 264.161L458.36 262.787C458.36 262.787 464.62 274.793 460.35 283.833C460.35 283.833 477.863 291.319 486.112 278.807C486.112 278.807 471.567 263.51 467.623 253.783C463.679 244.055 443.236 246.587 446.709 264.161Z" fill="url(#paint49_radial)"/>
        <path d="M495.592 320.935H477.429C478.514 306.326 479.889 295.477 479.889 295.26C481.554 294.718 483.037 294.645 484.412 294.935C491.323 296.453 494.362 308.061 495.592 320.935Z" fill="url(#paint50_linear)"/>
        <path d="M486.076 292.837C485.497 293.235 484.918 293.922 484.412 294.935C484.231 295.26 484.05 295.622 483.905 296.019C481.77 300.974 480.178 310.52 478.984 320.935H467.478V320.863C467.442 317.861 467.55 314.968 467.731 312.256C467.876 310.05 468.057 307.953 468.31 305.964C468.527 304.12 468.781 302.348 469.034 300.721C469.323 298.804 469.649 297.068 469.975 295.513C469.975 295.513 469.975 295.513 469.975 295.477C470.011 295.369 470.011 295.296 470.047 295.188C471.133 290.089 472.146 287.051 472.182 286.871C481.806 284.629 486.076 292.837 486.076 292.837Z" fill="url(#paint51_radial)"/>
        <path d="M349.921 66.1759H278.786C267.497 66.1759 258.234 75.3971 258.234 86.7157V105.447C258.234 116.73 267.461 125.987 278.786 125.987H322.675C323.182 125.987 323.652 126.204 324.014 126.53L341.454 143.96V127.904C341.454 126.855 342.322 125.987 343.372 125.987H349.921C361.21 125.987 370.472 116.766 370.472 105.447V86.7157C370.436 75.3971 361.21 66.1759 349.921 66.1759Z" fill="url(#paint52_radial)"/>
        <path d="M298.976 96.4432C298.976 98.9022 296.986 100.927 294.49 100.927C292.029 100.927 290.003 98.9384 290.003 96.4432C290.003 93.9842 291.993 91.9592 294.49 91.9592C296.986 91.9953 298.976 93.9842 298.976 96.4432Z" fill="white"/>
        <path d="M318.84 96.4432C318.84 98.9022 316.85 100.927 314.354 100.927C311.893 100.927 309.867 98.9384 309.867 96.4432C309.867 93.9842 311.857 91.9592 314.354 91.9592C316.814 91.9953 318.84 93.9842 318.84 96.4432Z" fill="white"/>
        <path d="M338.705 96.4432C338.705 98.9022 336.715 100.927 334.218 100.927C331.758 100.927 329.731 98.9384 329.731 96.4432C329.731 93.9842 331.721 91.9592 334.218 91.9592C336.679 91.9953 338.705 93.9842 338.705 96.4432Z" fill="white"/>
        <path d="M481.987 0H410.889C399.6 0 390.337 9.22123 390.337 20.5398V39.2716C390.337 50.554 399.563 59.8114 410.889 59.8114H454.778C455.285 59.8114 455.755 60.0284 456.117 60.3538L473.557 77.7838V61.728C473.557 60.6793 474.425 59.8114 475.474 59.8114H482.023C493.312 59.8114 502.575 50.5902 502.575 39.2716V20.5398C502.503 9.22123 493.276 0 481.987 0Z" fill="url(#paint53_radial)"/>
        <path d="M431.042 30.2673C431.042 32.7263 429.052 34.7514 426.555 34.7514C424.059 34.7514 422.069 32.7625 422.069 30.2673C422.069 27.7722 424.059 25.7833 426.555 25.7833C429.052 25.7833 431.042 27.8083 431.042 30.2673Z" fill="white"/>
        <path d="M450.906 30.2673C450.906 32.7263 448.916 34.7514 446.42 34.7514C443.959 34.7514 441.933 32.7625 441.933 30.2673C441.933 27.7722 443.923 25.7833 446.42 25.7833C448.88 25.8194 450.906 27.8083 450.906 30.2673Z" fill="white"/>
        <path d="M470.771 30.2673C470.771 32.7263 468.781 34.7514 466.284 34.7514C463.787 34.7514 461.797 32.7625 461.797 30.2673C461.797 27.7722 463.787 25.7833 466.284 25.7833C468.781 25.7833 470.771 27.8083 470.771 30.2673Z" fill="white"/>
        <path d="M575.338 202.759H519.653C510.825 202.759 503.588 209.991 503.588 218.814V233.496C503.588 242.319 510.825 249.552 519.653 249.552H554.027C554.425 249.552 554.787 249.696 555.076 249.986L568.717 263.619V251.034C568.717 250.203 569.404 249.552 570.2 249.552H575.302C584.131 249.552 591.367 242.319 591.367 233.496V218.814C591.439 209.991 584.203 202.759 575.338 202.759Z" fill="url(#paint54_radial)"/>
        <path d="M535.465 226.444C535.465 228.361 533.909 229.952 531.955 229.952C530.038 229.952 528.446 228.397 528.446 226.444C528.446 224.492 530.002 222.937 531.955 222.937C533.873 222.973 535.465 224.528 535.465 226.444Z" fill="white"/>
        <path d="M550.988 226.444C550.988 228.361 549.432 229.952 547.478 229.952C545.524 229.952 543.968 228.397 543.968 226.444C543.968 224.492 545.524 222.937 547.478 222.937C549.432 222.937 550.988 224.528 550.988 226.444Z" fill="white"/>
        <path d="M566.546 226.444C566.546 228.361 564.99 229.952 563.037 229.952C561.083 229.952 559.527 228.397 559.527 226.444C559.527 224.492 561.083 222.937 563.037 222.937C564.99 222.937 566.546 224.528 566.546 226.444Z" fill="white"/>
        <path d="M427.822 263.799H390.59C384.693 263.799 379.844 268.645 379.844 274.539V284.339C379.844 290.234 384.693 295.079 390.59 295.079H413.566C413.82 295.079 414.073 295.188 414.29 295.369L423.408 304.481V296.056C423.408 295.513 423.842 295.043 424.421 295.043H427.858C433.756 295.043 438.605 290.198 438.605 284.303V274.503C438.568 268.609 433.72 263.799 427.822 263.799Z" fill="url(#paint55_radial)"/>
        <path d="M401.156 279.638C401.156 280.94 400.107 281.989 398.804 281.989C397.501 281.989 396.452 280.94 396.452 279.638C396.452 278.336 397.501 277.288 398.804 277.288C400.107 277.288 401.156 278.336 401.156 279.638Z" fill="white"/>
        <path d="M411.54 279.638C411.54 280.94 410.491 281.989 409.188 281.989C407.886 281.989 406.836 280.94 406.836 279.638C406.836 278.336 407.886 277.288 409.188 277.288C410.491 277.288 411.54 278.336 411.54 279.638Z" fill="white"/>
        <path d="M421.924 279.638C421.924 280.94 420.875 281.989 419.573 281.989C418.27 281.989 417.221 280.94 417.221 279.638C417.221 278.336 418.27 277.288 419.573 277.288C420.875 277.288 421.924 278.336 421.924 279.638Z" fill="white"/>
        <path d="M49.0636 396.911C45.6986 369.138 58.4349 298.587 83.4732 293.958L52.3562 398.14L49.0636 396.911Z" fill="url(#paint56_radial)"/>
        <path d="M83.4734 293.922C83.4734 293.922 96.68 296.67 95.7031 318.801C94.7261 340.932 58.9778 400.563 58.9778 400.563L52.3926 398.104L83.4734 293.922Z" fill="url(#paint57_radial)"/>
        <path d="M44.251 404.613C28.4755 373.984 12.9893 287.051 39.9091 270.959L48.5929 404.613H44.251Z" fill="url(#paint58_radial)"/>
        <path d="M39.9453 270.959C39.9453 270.959 56.336 268.5 64.6941 294.465C73.0523 320.465 57.2767 404.613 57.2767 404.613H48.5929L39.9453 270.959Z" fill="url(#paint59_radial)"/>
        <path d="M42.4782 407.759C24.1337 393.077 -9.6608 343.355 2.60507 325.853L45.1557 406.53L42.4782 407.759Z" fill="url(#paint60_radial)"/>
        <path d="M2.60498 325.853C2.60498 325.853 12.121 319.742 24.5316 333.592C36.9422 347.441 50.5468 404.143 50.5468 404.143L45.1556 406.566L2.60498 325.853Z" fill="url(#paint61_radial)"/>
        <path d="M86.0423 385.737H11.1445V391.631H86.0423V385.737Z" fill="url(#paint62_radial)"/>
        <path d="M73.9932 430.288H26.6303L16.7163 391.631H80.7955L73.9932 430.288Z" fill="url(#paint63_radial)"/>
    </g>
    <defs>
        <radialGradient id="paint0_radial" cx="0" cy="0" r="1" gradientUnits="userSpaceOnUse" gradientTransform="translate(858.027 567.695) scale(1238.95 1238.24)">
            <stop stop-color="#2D4F93"/>
            <stop offset="0.5464" stop-color="#E0685C"/>
            <stop offset="1" stop-color="#485F96"/>
        </radialGradient>
        <linearGradient id="paint1_linear" x1="160.16" y1="418.893" x2="132.614" y2="427.044" gradientUnits="userSpaceOnUse">
            <stop stop-color="#FFFAC0"/>
            <stop offset="0.5439" stop-color="#FFC880"/>
            <stop offset="0.6455" stop-color="#FEC57F"/>
            <stop offset="0.7335" stop-color="#FDBA7C"/>
            <stop offset="0.8164" stop-color="#FAA877"/>
            <stop offset="0.8962" stop-color="#F68F6F"/>
            <stop offset="0.9731" stop-color="#F16F66"/>
            <stop offset="1" stop-color="#EF6262"/>
        </linearGradient>
        <radialGradient id="paint2_radial" cx="0" cy="0" r="1" gradientUnits="userSpaceOnUse" gradientTransform="translate(163.348 424.501) rotate(69.8873) scale(41.9803 41.9988)">
            <stop offset="0.00055627" stop-color="#7929B7"/>
            <stop offset="0.0501306" stop-color="#7628B5"/>
            <stop offset="1" stop-color="#310B7A"/>
        </radialGradient>
        <radialGradient id="paint3_radial" cx="0" cy="0" r="1" gradientUnits="userSpaceOnUse" gradientTransform="translate(188.7 447.716) rotate(110.933) scale(180.282 116.29)">
            <stop offset="0.00055627" stop-color="#7929B7"/>
            <stop offset="0.0501306" stop-color="#7628B5"/>
            <stop offset="1" stop-color="#310B7A"/>
        </radialGradient>
        <radialGradient id="paint4_radial" cx="0" cy="0" r="1" gradientUnits="userSpaceOnUse" gradientTransform="translate(204.252 284.282) scale(27.4334 27.4176)">
            <stop offset="0.00055627" stop-color="#7929B7"/>
            <stop offset="0.0501306" stop-color="#7628B5"/>
            <stop offset="1" stop-color="#310B7A"/>
        </radialGradient>
        <linearGradient id="paint5_linear" x1="212.496" y1="415.285" x2="189.855" y2="432.956" gradientUnits="userSpaceOnUse">
            <stop stop-color="#FFFAC0"/>
            <stop offset="0.5439" stop-color="#FFC880"/>
            <stop offset="0.6455" stop-color="#FEC57F"/>
            <stop offset="0.7335" stop-color="#FDBA7C"/>
            <stop offset="0.8164" stop-color="#FAA877"/>
            <stop offset="0.8962" stop-color="#F68F6F"/>
            <stop offset="0.9731" stop-color="#F16F66"/>
            <stop offset="1" stop-color="#EF6262"/>
        </linearGradient>
        <radialGradient id="paint6_radial" cx="0" cy="0" r="1" gradientUnits="userSpaceOnUse" gradientTransform="translate(217.518 419.336) rotate(48.4007) scale(41.9876 41.9906)">
            <stop offset="0.00055627" stop-color="#7929B7"/>
            <stop offset="0.0501306" stop-color="#7628B5"/>
            <stop offset="1" stop-color="#310B7A"/>
        </radialGradient>
        <radialGradient id="paint7_radial" cx="0" cy="0" r="1" gradientUnits="userSpaceOnUse" gradientTransform="translate(249.615 431.661) rotate(89.4422) scale(180.268 116.298)">
            <stop offset="0.00055627" stop-color="#7929B7"/>
            <stop offset="0.0501306" stop-color="#7628B5"/>
            <stop offset="1" stop-color="#310B7A"/>
        </radialGradient>
        <linearGradient id="paint8_linear" x1="263.406" y1="151.22" x2="201.836" y2="146.456" gradientUnits="userSpaceOnUse">
            <stop stop-color="#FFFAC0"/>
            <stop offset="0.5439" stop-color="#FFC880"/>
            <stop offset="1" stop-color="#EF6262"/>
        </linearGradient>
        <radialGradient id="paint9_radial" cx="0" cy="0" r="1" gradientUnits="userSpaceOnUse" gradientTransform="translate(235.444 98.1193) rotate(180) scale(51.4858 51.4561)">
            <stop stop-color="#FFFFAB"/>
            <stop offset="0.5498" stop-color="#CD00FF"/>
            <stop offset="1" stop-color="#5739D8"/>
        </radialGradient>
        <linearGradient id="paint10_linear" x1="222.365" y1="110.28" x2="179.252" y2="146.805" gradientUnits="userSpaceOnUse">
            <stop stop-color="#FFFAC0"/>
            <stop offset="0.5439" stop-color="#FFC880"/>
            <stop offset="1" stop-color="#EF6262"/>
        </linearGradient>
        <linearGradient id="paint11_linear" x1="202.651" y1="116.403" x2="184.675" y2="116.403" gradientUnits="userSpaceOnUse">
            <stop stop-color="#FFFAC0"/>
            <stop offset="0.5439" stop-color="#FFC880"/>
            <stop offset="1" stop-color="#EF6262"/>
        </linearGradient>
        <radialGradient id="paint12_radial" cx="0" cy="0" r="1" gradientUnits="userSpaceOnUse" gradientTransform="translate(237.46 82.8625) rotate(180) scale(124.023 123.952)">
            <stop stop-color="#FFFFAB"/>
            <stop offset="0.5498" stop-color="#CD00FF"/>
            <stop offset="1" stop-color="#5739D8"/>
        </radialGradient>
        <linearGradient id="paint13_linear" x1="263.367" y1="117.754" x2="123.364" y2="256.553" gradientUnits="userSpaceOnUse">
            <stop stop-color="#FFE75C"/>
            <stop offset="1" stop-color="#FF2A00"/>
        </linearGradient>
        <linearGradient id="paint14_linear" x1="214.984" y1="151.899" x2="153.013" y2="141.183" gradientUnits="userSpaceOnUse">
            <stop stop-color="#FFE75C"/>
            <stop offset="1" stop-color="#FF2A00"/>
        </linearGradient>
        <linearGradient id="paint15_linear" x1="226.805" y1="129.372" x2="215.381" y2="125.033" gradientUnits="userSpaceOnUse">
            <stop stop-color="#FFFAC0"/>
            <stop offset="0.5439" stop-color="#FFC880"/>
            <stop offset="1" stop-color="#EF6262"/>
        </linearGradient>
        <radialGradient id="paint16_radial" cx="0" cy="0" r="1" gradientUnits="userSpaceOnUse" gradientTransform="translate(285.108 383.129) scale(163.434 163.34)">
            <stop offset="0.00055627" stop-color="#7929B7"/>
            <stop offset="0.0501306" stop-color="#7628B5"/>
            <stop offset="1" stop-color="#310B7A"/>
        </radialGradient>
        <linearGradient id="paint17_linear" x1="140.337" y1="197.699" x2="187.617" y2="215.033" gradientUnits="userSpaceOnUse">
            <stop stop-color="#FFFAC0"/>
            <stop offset="0.5439" stop-color="#FFC880"/>
            <stop offset="1" stop-color="#EF6262"/>
        </linearGradient>
        <radialGradient id="paint18_radial" cx="0" cy="0" r="1" gradientUnits="userSpaceOnUse" gradientTransform="translate(442.383 236.212) scale(159.953 159.861)">
            <stop stop-color="#E20081"/>
            <stop offset="0.5464" stop-color="#FFB048"/>
            <stop offset="1" stop-color="#FFFC9F"/>
        </radialGradient>
        <linearGradient id="paint19_linear" x1="413.4" y1="208.58" x2="371.053" y2="190.792" gradientUnits="userSpaceOnUse">
            <stop stop-color="#FFFAC0"/>
            <stop offset="0.5439" stop-color="#FFC880"/>
            <stop offset="1" stop-color="#EF6262"/>
        </linearGradient>
        <linearGradient id="paint20_linear" x1="350.493" y1="143.119" x2="385.631" y2="186.268" gradientUnits="userSpaceOnUse">
            <stop stop-color="#FFFAC0"/>
            <stop offset="0.5439" stop-color="#FFC880"/>
            <stop offset="1" stop-color="#EF6262"/>
        </linearGradient>
        <radialGradient id="paint21_radial" cx="0" cy="0" r="1" gradientUnits="userSpaceOnUse" gradientTransform="translate(351.281 128.59) scale(40.7837 40.7601)">
            <stop offset="0.00055627" stop-color="#FF3198"/>
            <stop offset="0.4596" stop-color="#9E39FF"/>
            <stop offset="1" stop-color="#310B7A"/>
        </radialGradient>
        <linearGradient id="paint22_linear" x1="402.925" y1="165.791" x2="371.858" y2="171.213" gradientUnits="userSpaceOnUse">
            <stop stop-color="#FFFAC0"/>
            <stop offset="0.5439" stop-color="#FFC880"/>
            <stop offset="1" stop-color="#EF6262"/>
        </linearGradient>
        <linearGradient id="paint23_linear" x1="545.502" y1="323.567" x2="576.308" y2="323.567" gradientUnits="userSpaceOnUse">
            <stop stop-color="#E27D69"/>
            <stop offset="1" stop-color="#EDC1A4"/>
        </linearGradient>
        <radialGradient id="paint24_radial" cx="0" cy="0" r="1" gradientUnits="userSpaceOnUse" gradientTransform="translate(610.589 354.973) scale(142.5 142.417)">
            <stop stop-color="#E20081"/>
            <stop offset="0.5464" stop-color="#FFB048"/>
            <stop offset="1" stop-color="#FFFC9F"/>
        </radialGradient>
        <radialGradient id="paint25_radial" cx="0" cy="0" r="1" gradientUnits="userSpaceOnUse" gradientTransform="translate(553.136 279.16) scale(78.3654 78.3204)">
            <stop stop-color="#FFFFAB"/>
            <stop offset="0.5498" stop-color="#CD00FF"/>
            <stop offset="1" stop-color="#5739D8"/>
        </radialGradient>
        <linearGradient id="paint26_linear" x1="591.844" y1="277.901" x2="614.336" y2="277.901" gradientUnits="userSpaceOnUse">
            <stop stop-color="#E27D69"/>
            <stop offset="1" stop-color="#EDC1A4"/>
        </linearGradient>
        <linearGradient id="paint27_linear" x1="587" y1="263.768" x2="603.789" y2="263.768" gradientUnits="userSpaceOnUse">
            <stop stop-color="#E27D69"/>
            <stop offset="1" stop-color="#EDC1A4"/>
        </linearGradient>
        <linearGradient id="paint28_linear" x1="640.152" y1="315.389" x2="656.84" y2="315.389" gradientUnits="userSpaceOnUse">
            <stop stop-color="#E27D69"/>
            <stop offset="1" stop-color="#EDC1A4"/>
        </linearGradient>
        <radialGradient id="paint29_radial" cx="0" cy="0" r="1" gradientUnits="userSpaceOnUse" gradientTransform="translate(625.85 264.357) scale(93.8652 93.8111)">
            <stop stop-color="#E20081"/>
            <stop offset="0.5464" stop-color="#FFB048"/>
            <stop offset="1" stop-color="#FFFC9F"/>
        </radialGradient>
        <radialGradient id="paint30_radial" cx="0" cy="0" r="1" gradientUnits="userSpaceOnUse" gradientTransform="translate(568.172 264.805) scale(34.4903 34.4705)">
            <stop stop-color="#FFFFAB"/>
            <stop offset="0.5498" stop-color="#CD00FF"/>
            <stop offset="1" stop-color="#5739D8"/>
        </radialGradient>
        <radialGradient id="paint31_radial" cx="0" cy="0" r="1" gradientUnits="userSpaceOnUse" gradientTransform="translate(567.5 255.833) scale(41.4908 41.4673)">
            <stop stop-color="#FFFFAB"/>
            <stop offset="0.5498" stop-color="#CD00FF"/>
            <stop offset="1" stop-color="#5739D8"/>
        </radialGradient>
        <radialGradient id="paint32_radial" cx="0" cy="0" r="1" gradientUnits="userSpaceOnUse" gradientTransform="translate(554.033 250.45) scale(80.6704 80.6232)">
            <stop stop-color="#FFFFAB"/>
            <stop offset="0.5498" stop-color="#CD00FF"/>
            <stop offset="1" stop-color="#5739D8"/>
        </radialGradient>
        <linearGradient id="paint33_linear" x1="616.213" y1="262.939" x2="598.409" y2="263.388" gradientUnits="userSpaceOnUse">
            <stop stop-color="#E27D69"/>
            <stop offset="1" stop-color="#EDC1A4"/>
        </linearGradient>
        <radialGradient id="paint34_radial" cx="0" cy="0" r="1" gradientUnits="userSpaceOnUse" gradientTransform="translate(557.624 262.562) scale(109.067 109.005)">
            <stop stop-color="#E20081"/>
            <stop offset="0.5464" stop-color="#FFB048"/>
            <stop offset="1" stop-color="#FFFC9F"/>
        </radialGradient>
        <radialGradient id="paint35_radial" cx="0" cy="0" r="1" gradientUnits="userSpaceOnUse" gradientTransform="translate(444.716 141.95) scale(117.624 117.556)">
            <stop offset="0.00055627" stop-color="#7929B7"/>
            <stop offset="0.0501306" stop-color="#7628B5"/>
            <stop offset="1" stop-color="#310B7A"/>
        </radialGradient>
        <radialGradient id="paint36_radial" cx="0" cy="0" r="1" gradientUnits="userSpaceOnUse" gradientTransform="translate(467.096 124.633) scale(84.0823 84.034)">
            <stop offset="0.00055627" stop-color="#7929B7"/>
            <stop offset="0.0501306" stop-color="#7628B5"/>
            <stop offset="1" stop-color="#310B7A"/>
        </radialGradient>
        <linearGradient id="paint37_linear" x1="556.017" y1="102.262" x2="533.406" y2="119.11" gradientUnits="userSpaceOnUse">
            <stop stop-color="#FFF8DC"/>
            <stop offset="0.9991" stop-color="#F2C39E"/>
        </linearGradient>
        <linearGradient id="paint38_linear" x1="498.737" y1="96.8764" x2="537.24" y2="97.3579" gradientUnits="userSpaceOnUse">
            <stop stop-color="#FFF8DC"/>
            <stop offset="0.9991" stop-color="#F2C39E"/>
        </linearGradient>
        <linearGradient id="paint39_linear" x1="557.829" y1="69.029" x2="521.266" y2="95.5044" gradientUnits="userSpaceOnUse">
            <stop stop-color="#FFE75C"/>
            <stop offset="1" stop-color="#FF2A00"/>
        </linearGradient>
        <linearGradient id="paint40_linear" x1="493.864" y1="66.7382" x2="582.881" y2="111.994" gradientUnits="userSpaceOnUse">
            <stop stop-color="#FFE75C"/>
            <stop offset="1" stop-color="#FF2A00"/>
        </linearGradient>
        <linearGradient id="paint41_linear" x1="547.693" y1="76.1408" x2="527.492" y2="97.7975" gradientUnits="userSpaceOnUse">
            <stop stop-color="#FFF8DC"/>
            <stop offset="0.9991" stop-color="#F2C39E"/>
        </linearGradient>
        <radialGradient id="paint42_radial" cx="0" cy="0" r="1" gradientUnits="userSpaceOnUse" gradientTransform="translate(444.716 141.949) scale(117.624 117.556)">
            <stop offset="0.00055627" stop-color="#7929B7"/>
            <stop offset="0.0501306" stop-color="#7628B5"/>
            <stop offset="1" stop-color="#310B7A"/>
        </radialGradient>
        <radialGradient id="paint43_radial" cx="0" cy="0" r="1" gradientUnits="userSpaceOnUse" gradientTransform="translate(482.978 118.861) scale(73.1971 73.1548)">
            <stop offset="0.00055627" stop-color="#7929B7"/>
            <stop offset="0.0501306" stop-color="#7628B5"/>
            <stop offset="1" stop-color="#310B7A"/>
        </radialGradient>
        <radialGradient id="paint44_radial" cx="0" cy="0" r="1" gradientUnits="userSpaceOnUse" gradientTransform="translate(425.997 285.597) scale(24.7888 24.7746)">
            <stop stop-color="#FFFFAB"/>
            <stop offset="0.5498" stop-color="#CD00FF"/>
            <stop offset="1" stop-color="#5739D8"/>
        </radialGradient>
        <radialGradient id="paint45_radial" cx="0" cy="0" r="1" gradientUnits="userSpaceOnUse" gradientTransform="translate(471.158 308.085) scale(17.4938 17.4838)">
            <stop stop-color="#FFFFAB"/>
            <stop offset="0.5498" stop-color="#CD00FF"/>
            <stop offset="1" stop-color="#5739D8"/>
        </radialGradient>
        <radialGradient id="paint46_radial" cx="0" cy="0" r="1" gradientUnits="userSpaceOnUse" gradientTransform="translate(394.359 253.442) scale(54.1358 54.1044)">
            <stop stop-color="#FFFFAB"/>
            <stop offset="0.5498" stop-color="#CD00FF"/>
            <stop offset="1" stop-color="#5739D8"/>
        </radialGradient>
        <linearGradient id="paint47_linear" x1="464.092" y1="292.452" x2="473.202" y2="280.478" gradientUnits="userSpaceOnUse">
            <stop stop-color="#FFF8DC"/>
            <stop offset="0.9997" stop-color="#E2BE8D"/>
        </linearGradient>
        <linearGradient id="paint48_linear" x1="441.682" y1="276.099" x2="459.641" y2="266.175" gradientUnits="userSpaceOnUse">
            <stop stop-color="#FFF8DC"/>
            <stop offset="0.9997" stop-color="#E2BE8D"/>
        </linearGradient>
        <radialGradient id="paint49_radial" cx="0" cy="0" r="1" gradientUnits="userSpaceOnUse" gradientTransform="translate(432.431 243.259) scale(70.7871 70.7464)">
            <stop stop-color="#FFFFAB"/>
            <stop offset="0.5498" stop-color="#CD00FF"/>
            <stop offset="1" stop-color="#5739D8"/>
        </radialGradient>
        <linearGradient id="paint50_linear" x1="493.287" y1="321.268" x2="477.27" y2="302.427" gradientUnits="userSpaceOnUse">
            <stop stop-color="#FFE75C"/>
            <stop offset="1" stop-color="#FF2A00"/>
        </linearGradient>
        <radialGradient id="paint51_radial" cx="0" cy="0" r="1" gradientUnits="userSpaceOnUse" gradientTransform="translate(445.301 285.061) scale(43.2327 43.2078)">
            <stop stop-color="#FFFFAB"/>
            <stop offset="0.5498" stop-color="#CD00FF"/>
            <stop offset="1" stop-color="#5739D8"/>
        </radialGradient>
        <radialGradient id="paint52_radial" cx="0" cy="0" r="1" gradientUnits="userSpaceOnUse" gradientTransform="translate(400.823 333.514) scale(735.814 735.391)">
            <stop stop-color="#E20081"/>
            <stop offset="0.5464" stop-color="#FFB048"/>
            <stop offset="1" stop-color="#FFFC9F"/>
        </radialGradient>
        <radialGradient id="paint53_radial" cx="0" cy="0" r="1" gradientUnits="userSpaceOnUse" gradientTransform="translate(709.943 363.392) scale(735.813 735.39)">
            <stop stop-color="#E20081"/>
            <stop offset="0.5464" stop-color="#FFB048"/>
            <stop offset="1" stop-color="#FFFC9F"/>
        </radialGradient>
        <radialGradient id="paint54_radial" cx="0" cy="0" r="1" gradientUnits="userSpaceOnUse" gradientTransform="translate(454.778 338.496) scale(576.138 575.807)">
            <stop stop-color="#E20081"/>
            <stop offset="0.5464" stop-color="#FFB048"/>
            <stop offset="1" stop-color="#FFFC9F"/>
        </radialGradient>
        <radialGradient id="paint55_radial" cx="0" cy="0" r="1" gradientUnits="userSpaceOnUse" gradientTransform="translate(547.15 454.019) scale(385.183 384.962)">
            <stop stop-color="#E20081"/>
            <stop offset="0.5464" stop-color="#FFB048"/>
            <stop offset="1" stop-color="#FFFC9F"/>
        </radialGradient>
        <radialGradient id="paint56_radial" cx="0" cy="0" r="1" gradientUnits="userSpaceOnUse" gradientTransform="translate(42.8327 412.686) rotate(20.318) scale(210.874 210.782)">
            <stop stop-color="#E20081"/>
            <stop offset="0.5464" stop-color="#FFB048"/>
            <stop offset="1" stop-color="#FFFC9F"/>
        </radialGradient>
        <radialGradient id="paint57_radial" cx="0" cy="0" r="1" gradientUnits="userSpaceOnUse" gradientTransform="translate(109.624 304.954) rotate(-5.20079) scale(57.1347 57.1023)">
            <stop offset="0.00055627" stop-color="#7929B7"/>
            <stop offset="0.0501306" stop-color="#7628B5"/>
            <stop offset="1" stop-color="#310B7A"/>
        </radialGradient>
        <radialGradient id="paint58_radial" cx="0" cy="0" r="1" gradientUnits="userSpaceOnUse" gradientTransform="translate(43.816 425.51) scale(259.76 259.611)">
            <stop stop-color="#E20081"/>
            <stop offset="0.5464" stop-color="#FFB048"/>
            <stop offset="1" stop-color="#FFFC9F"/>
        </radialGradient>
        <radialGradient id="paint59_radial" cx="0" cy="0" r="1" gradientUnits="userSpaceOnUse" gradientTransform="translate(89.0502 266.453) scale(164.393 164.299)">
            <stop offset="0.00055627" stop-color="#7929B7"/>
            <stop offset="0.0501306" stop-color="#7628B5"/>
            <stop offset="1" stop-color="#310B7A"/>
        </radialGradient>
        <radialGradient id="paint60_radial" cx="0" cy="0" r="1" gradientUnits="userSpaceOnUse" gradientTransform="translate(48.016 420.866) rotate(-24.0741) scale(176.898 176.83)">
            <stop stop-color="#E20081"/>
            <stop offset="0.5464" stop-color="#FFB048"/>
            <stop offset="1" stop-color="#FFFC9F"/>
        </radialGradient>
        <radialGradient id="paint61_radial" cx="0" cy="0" r="1" gradientUnits="userSpaceOnUse" gradientTransform="translate(-11.0723 330.754) rotate(-24.0741) scale(93.7702 93.7342)">
            <stop offset="0.00055627" stop-color="#7929B7"/>
            <stop offset="0.0501306" stop-color="#7628B5"/>
            <stop offset="1" stop-color="#310B7A"/>
        </radialGradient>
        <radialGradient id="paint62_radial" cx="0" cy="0" r="1" gradientUnits="userSpaceOnUse" gradientTransform="translate(118.292 411.722) scale(147.529 147.445)">
            <stop stop-color="#E20081"/>
            <stop offset="0.5464" stop-color="#FFB048"/>
            <stop offset="1" stop-color="#FFFC9F"/>
        </radialGradient>
        <radialGradient id="paint63_radial" cx="0" cy="0" r="1" gradientUnits="userSpaceOnUse" gradientTransform="translate(113.756 417.895) scale(192.032 191.922)">
            <stop stop-color="#E20081"/>
            <stop offset="0.5464" stop-color="#FFB048"/>
            <stop offset="1" stop-color="#FFFC9F"/>
        </radialGradient>
        <clipPath id="clip0">
            <rect width="701" height="433" fill="white"/>
        </clipPath>
    </defs>
</svg>
