<svg width="815" height="525" viewBox="0 0 815 525" fill="none" xmlns="http://www.w3.org/2000/svg" style="background-color: #333;">
 <style>
    .dark-theme {
      fill: #78909c;
    }
  </style>
  <circle cx="50" cy="50" r="40" class="dark-theme" />
    <g clip-path="url(#clip0)">
        <path d="M101.942 168.574C101.404 156.469 92.0711 146.157 79.5078 146.157C67.7521 146.157 56.5349 156.469 57.0733 168.574C57.6117 180.679 66.9445 190.991 79.5078 190.991C91.2635 190.991 102.481 180.679 101.942 168.574Z" fill="#E0F2F5"/>
        <path d="M685.508 297.156V190.273C685.508 182.741 680.213 173.595 673.662 169.829L487.187 62.2289C476.598 56.1315 463.406 63.7532 463.406 75.9479V187.314C463.406 192.963 466.457 198.164 471.303 201.033L661.637 310.875C672.316 316.973 685.508 309.351 685.508 297.156Z" fill="#8DA8B2"/>
        <path d="M669.625 304.061C668.458 304.061 667.292 303.702 666.215 303.074L475.881 193.322C473.727 192.067 472.471 189.825 472.471 187.404V76.0376C472.471 71.8232 476.06 69.1332 479.381 69.1332C480.547 69.1332 481.714 69.4919 482.791 70.1195L669.266 177.72C672.945 179.872 676.625 186.149 676.625 190.363V297.246C676.625 299.667 675.548 301.281 674.561 302.178C673.125 303.343 671.42 304.061 669.625 304.061Z" fill="#2A494E"/>
        <path d="M455.69 209.821L378.694 254.206C374.387 256.716 374.387 260.662 378.694 263.172L573.426 375.705C577.733 378.215 584.733 378.215 589.04 375.794L667.022 331.857C671.33 329.436 671.33 325.401 667.022 322.98L471.214 209.821C466.907 207.31 459.997 207.31 455.69 209.821Z" fill="#8DA8B2"/>
        <path d="M147.439 449.5L260.778 514.868L341.722 468.151L228.383 402.784L147.439 449.5Z" fill="#2F8DAF"/>
        <path d="M325.569 434.795V468.151L254.766 509.219C254.766 509.219 165.297 451.025 165.925 451.204C166.643 451.294 184.142 415.158 184.142 415.158L325.569 434.795Z" fill="white"/>
        <path d="M325.569 440.175L301.07 431.388L184.052 415.068C184.052 415.068 172.476 439.009 167.72 447.886L249.022 494.782L325.479 450.666V440.175H325.569Z" fill="#D1D3D4"/>
        <path d="M147.439 412.109L260.778 477.477L341.722 430.85L228.383 365.393L147.439 412.109Z" fill="#3AA1C4"/>
        <path d="M147.439 412.109C147.439 412.109 125.902 431.298 147.439 449.5C179.835 468.151 260.778 514.868 260.778 514.868C248.843 502.763 246.061 490.837 260.778 477.477L147.439 412.109Z" fill="#3AA1C4"/>
        <path d="M138.914 425.38C136.76 432.284 137.389 440.982 147.529 449.411C179.924 468.061 260.868 514.778 260.868 514.778C252.971 506.708 249.112 498.728 251.715 490.389L138.914 425.38Z" fill="#2F8DAF"/>
        <path d="M147.439 412.109L260.778 477.477L341.722 430.85L228.383 365.393L147.439 412.109Z" fill="#006DA6"/>
        <path d="M325.569 397.494V430.85L254.766 471.917C254.766 471.917 165.297 413.723 165.925 413.903C166.643 413.992 184.142 377.857 184.142 377.857L325.569 397.494Z" fill="white"/>
        <path d="M325.569 402.784L301.07 393.997L184.052 377.677C184.052 377.677 172.476 401.618 167.72 410.495L249.022 457.391L325.479 413.275V402.784H325.569Z" fill="#D1D3D4"/>
        <path d="M147.439 374.808L260.778 440.175L341.722 393.459L228.383 328.091L147.439 374.808Z" fill="#3AA1C4"/>
        <path d="M147.439 374.808C147.439 374.808 125.902 393.997 147.439 412.199C179.835 430.85 260.778 477.566 260.778 477.566C248.843 465.461 246.061 453.535 260.778 440.175L147.439 374.808Z" fill="#3AA1C4"/>
        <path d="M147.439 412.109L260.778 477.477L341.722 430.85L228.383 365.393L147.439 412.109Z" fill="#2F8DAF"/>
        <path d="M325.569 397.494V430.85L254.766 471.917C254.766 471.917 165.297 413.723 165.925 413.903C166.643 413.992 184.142 377.857 184.142 377.857L325.569 397.494Z" fill="white"/>
        <path d="M325.569 402.784L301.07 393.997L184.052 377.677C184.052 377.677 172.476 401.618 167.72 410.495L249.022 457.391L325.479 413.275V402.784H325.569Z" fill="#D1D3D4"/>
        <path d="M147.439 374.808L260.778 440.175L341.722 393.459L228.383 328.091L147.439 374.808Z" fill="#3AA1C4"/>
        <path d="M147.439 374.808C147.439 374.808 125.902 393.997 147.439 412.199C179.835 430.85 260.778 477.566 260.778 477.566C248.843 465.461 246.061 453.535 260.778 440.175L147.439 374.808Z" fill="#3AA1C4"/>
        <path d="M138.914 388.079C136.76 394.983 137.389 403.681 147.529 412.109C179.924 430.76 260.868 477.477 260.868 477.477C252.971 469.407 249.112 461.426 251.715 453.087L138.914 388.079Z" fill="#2F8DAF"/>
        <path d="M147.439 374.808L260.778 440.175L341.722 393.459L228.383 328.091L147.439 374.808Z" fill="#2F8DAF"/>
        <path d="M325.569 360.102V393.459L254.766 434.526C254.766 434.526 165.297 376.332 165.925 376.512C166.643 376.601 184.142 340.465 184.142 340.465L325.569 360.102Z" fill="white"/>
        <path d="M325.569 365.393L301.07 356.605L184.052 340.286C184.052 340.286 172.476 364.227 167.72 373.104L249.022 420L325.479 375.884V365.393H325.569Z" fill="#D1D3D4"/>
        <path d="M260.778 402.784L341.722 356.067L228.383 290.7L147.439 337.417C147.439 337.417 125.902 356.605 147.439 374.808C179.835 393.459 260.778 440.175 260.778 440.175C248.843 427.98 246.061 416.144 260.778 402.784Z" fill="#3AA1C4"/>
        <path d="M138.914 350.687C136.76 357.592 137.389 366.289 147.529 374.718C179.924 393.369 260.868 440.085 260.868 440.085C252.971 432.015 249.112 424.035 251.715 415.696L138.914 350.687Z" fill="#2F8DAF"/>
        <path d="M361.643 159.248C348.272 159.248 337.504 148.399 337.504 135.128V120.064C337.504 106.704 348.362 95.9436 361.643 95.9436C375.014 95.9436 385.783 106.793 385.783 120.064V135.128C385.873 148.488 375.014 159.248 361.643 159.248Z" fill="#0C2428"/>
        <path d="M397.898 70.8369C397.898 50.0342 380.399 33.3561 359.31 34.7908C341.273 35.9564 326.736 50.5722 325.659 68.5952C325.21 75.7686 326.825 82.4936 330.056 88.3219C334.184 95.7643 336.248 104.103 336.248 112.532C336.248 126.61 347.645 138.087 361.823 138.087C375.912 138.087 387.398 126.699 387.398 112.532C387.398 103.834 389.821 95.4953 393.86 87.7839C396.372 82.7626 397.898 77.0239 397.898 70.8369Z" fill="#FCAF17"/>
        <path d="M361.643 95.9436C348.272 95.9436 337.504 106.793 337.504 120.064V120.781C341.004 130.914 350.516 138.087 361.643 138.087C372.861 138.087 382.373 130.914 385.783 120.871V120.154C385.873 106.793 375.014 95.9436 361.643 95.9436Z" fill="#F58220"/>
        <path d="M361.644 110.47C355.721 110.47 350.875 115.312 350.875 121.23V135.756C354.106 137.28 357.785 138.177 361.644 138.177C365.502 138.177 369.182 137.28 372.412 135.756V121.23C372.412 115.222 367.656 110.47 361.644 110.47Z" fill="#FAA61A"/>
        <path d="M368.105 117.015C368.105 118.719 365.233 120.154 361.644 120.154C358.054 120.154 355.183 118.809 355.183 117.015C355.183 115.312 358.054 113.877 361.644 113.877C365.233 113.967 368.105 115.312 368.105 117.015Z" fill="#F58220"/>
        <path d="M343.247 137.19C345.67 138.804 347.913 140.329 350.606 141.405C354.105 142.75 357.785 143.646 361.643 143.646C365.412 143.646 369.092 142.839 372.681 141.405C375.373 140.329 377.706 138.715 380.04 137.19C375.553 142.75 368.822 145.978 361.643 145.978C354.464 145.978 347.824 142.66 343.247 137.19Z" fill="#2A494E"/>
        <path d="M343.247 144.812C345.67 146.426 347.913 147.95 350.606 149.026C354.105 150.371 357.785 151.268 361.643 151.268C365.412 151.268 369.092 150.461 372.681 149.026C375.373 147.95 377.706 146.336 380.04 144.812C375.553 150.371 368.822 153.599 361.643 153.599C354.464 153.599 347.824 150.282 343.247 144.812Z" fill="#2A494E"/>
        <path d="M366.4 117.553H364.066V110.29C364.066 97.6473 370.797 85.6319 381.565 78.9966L382.822 80.9693C372.681 87.1563 366.4 98.4543 366.4 110.29V117.553Z" fill="#FFF200"/>
        <path d="M360.567 117.553H358.234V110.29C358.234 98.4543 351.952 87.1563 341.812 80.9693L343.068 78.9966C353.836 85.6319 360.567 97.6473 360.567 110.29V117.553Z" fill="#FFF200"/>
        <path d="M372.233 78.3689L367.477 70.8369L362.631 78.3689L357.875 70.8369L353.029 78.3689L348.273 70.8369L344.324 77.0239L342.619 75.9479L348.273 67.0709L353.029 74.5132L357.875 67.0709L362.631 74.5132L367.477 67.0709L372.233 74.5132L377.079 67.0709L382.732 75.9479L381.027 77.0239L377.079 70.8369L372.233 78.3689Z" fill="#FFF200"/>
        <path d="M378.873 170.098C378.873 172.34 371.694 174.223 362.81 174.223C353.926 174.223 346.747 172.34 346.747 170.098C346.747 167.857 353.926 165.974 362.81 165.974C371.694 165.974 378.873 167.857 378.873 170.098Z" fill="#B6D1D3"/>
        <path d="M642.703 520.875C642.703 523.117 631.396 525 617.397 525C603.398 525 592.091 523.117 592.091 520.875C592.091 518.634 603.398 516.751 617.397 516.751C631.396 516.751 642.703 518.634 642.703 520.875Z" fill="#B6D1D3"/>
        <path d="M36.2541 377.767C36.2541 379.381 28.088 380.726 18.1271 380.726C8.07642 380.726 0 379.381 0 377.767C0 376.153 8.16615 374.808 18.1271 374.808C28.1777 374.808 36.2541 376.063 36.2541 377.767Z" fill="#B6D1D3"/>
        <path d="M804.052 192.605C809.652 192.605 814.192 191.882 814.192 190.991C814.192 190.099 809.652 189.377 804.052 189.377C798.451 189.377 793.911 190.099 793.911 190.991C793.911 191.882 798.451 192.605 804.052 192.605Z" fill="#B6D1D3"/>
        <path d="M331.223 493.975L333.825 493.437L307.532 360.013L304.929 360.551L308.339 378.036L292.276 387.272L289.046 370.683L286.443 371.221L312.737 504.646L315.339 504.108L311.749 485.905L327.813 476.669L331.223 493.975ZM314.352 408.164L316.506 419.103L300.442 428.339L298.289 417.4L314.352 408.164ZM297.75 414.62L295.597 403.681L311.66 394.445L313.813 405.384L297.75 414.62ZM317.044 421.883L319.198 432.822L303.135 442.058L300.981 431.119L317.044 421.883ZM319.736 435.602L321.89 446.541L305.827 455.777L303.673 444.838L319.736 435.602ZM322.428 449.321L324.582 460.26L308.519 469.496L306.365 458.557L322.428 449.321ZM308.968 380.816L311.121 391.755L295.058 400.991L292.904 390.051L308.968 380.816ZM311.211 483.125L309.057 472.186L325.12 462.95L327.274 473.89L311.211 483.125Z" fill="#0C2428"/>
        <path d="M600.885 189.915L526.852 147.233V137.728L600.885 180.41V189.915Z" fill="#FCAF17"/>
        <path d="M600.885 208.476L526.852 165.794V156.289L600.885 198.971V208.476Z" fill="#FCAF17"/>
        <path d="M600.885 226.947L526.852 184.355V174.761L600.885 217.442V226.947Z" fill="#FCAF17"/>
        <path d="M563.913 224.167L526.852 202.827V193.322L563.913 214.663V224.167Z" fill="#FCAF17"/>
        <path d="M245.882 340.376C246.331 353.108 273.521 359.654 285.905 348.804C298.289 337.955 302.327 334.189 302.327 334.189L316.775 342.528C316.775 342.528 309.775 321.994 293.263 324.325C284.469 314.103 270.56 319.483 250.638 324.325C250.638 324.415 245.882 330.512 245.882 340.376Z" fill="#0C2428"/>
        <path d="M273.432 319.035C273.791 322.173 275.406 327.374 280.88 330.602C285.546 326.746 290.123 325.043 293.264 324.325H293.174C288.328 318.676 281.777 317.78 273.432 319.035Z" fill="#0A1516"/>
        <path d="M283.662 311.144L275.047 315.986L297.571 328.719L305.827 323.698L283.662 311.144Z" fill="#8DA8B2"/>
        <path d="M306.096 323.16L284.11 310.875L288.508 294.108L310.404 306.392L306.096 323.16Z" fill="#8DA8B2"/>
        <path d="M286.175 309.979L289.675 296.798L308.34 307.289L304.93 320.47L286.175 309.979Z" fill="#2A494E"/>
        <path d="M292.096 319.752L291.647 319.483C291.558 319.394 291.378 319.394 291.378 319.483L290.75 319.842C290.66 319.932 290.66 319.932 290.75 320.021L291.199 320.29C291.288 320.38 291.468 320.38 291.468 320.29L292.096 319.932C292.186 319.932 292.186 319.842 292.096 319.752Z" fill="#E0F2F5"/>
        <path d="M293.173 320.38L292.724 320.111C292.635 320.021 292.455 320.021 292.455 320.111L291.827 320.47C291.737 320.559 291.737 320.559 291.827 320.649L292.276 320.918C292.365 321.008 292.545 321.008 292.545 320.918L293.173 320.559C293.263 320.559 293.263 320.47 293.173 320.38Z" fill="#E0F2F5"/>
        <path d="M294.16 321.008L293.712 320.739C293.622 320.649 293.443 320.649 293.443 320.739L292.814 321.097C292.725 321.187 292.725 321.187 292.814 321.277L293.263 321.546C293.353 321.635 293.532 321.635 293.532 321.546L294.16 321.187C294.25 321.097 294.25 321.008 294.16 321.008Z" fill="#E0F2F5"/>
        <path d="M295.238 321.635L294.789 321.366C294.699 321.277 294.52 321.277 294.52 321.366L293.892 321.725C293.802 321.815 293.802 321.815 293.892 321.904L294.34 322.173C294.43 322.263 294.609 322.263 294.609 322.173L295.238 321.815C295.327 321.725 295.327 321.635 295.238 321.635Z" fill="#E0F2F5"/>
        <path d="M298.378 323.429L297.93 323.16C297.84 323.07 297.66 323.07 297.66 323.16L297.032 323.518C296.942 323.608 296.942 323.608 297.032 323.698L297.481 323.967C297.571 324.056 297.75 324.056 297.75 323.967L298.378 323.608C298.468 323.518 298.468 323.429 298.378 323.429Z" fill="#E0F2F5"/>
        <path d="M291.11 319.214L290.661 318.945C290.571 318.856 290.392 318.856 290.392 318.945L289.764 319.304C289.674 319.394 289.674 319.394 289.764 319.483L290.212 319.752C290.302 319.842 290.482 319.842 290.482 319.752L291.11 319.394C291.11 319.304 291.11 319.214 291.11 319.214Z" fill="#E0F2F5"/>
        <path d="M298.827 322.622L299.276 322.891C299.366 322.98 299.545 322.98 299.545 322.891L300.173 322.532C300.263 322.442 300.263 322.442 300.173 322.353L299.724 322.084C299.635 321.994 299.455 321.994 299.455 322.084L298.827 322.442C298.737 322.442 298.737 322.532 298.827 322.622Z" fill="#E0F2F5"/>
        <path d="M296.315 322.173L295.866 321.904C295.776 321.815 295.597 321.815 295.597 321.904L294.969 322.263C294.879 322.353 294.879 322.353 294.969 322.442L295.417 322.711C295.507 322.801 295.687 322.801 295.687 322.711L296.315 322.353C296.404 322.353 296.404 322.263 296.315 322.173Z" fill="#E0F2F5"/>
        <path d="M297.301 322.801L296.852 322.532C296.763 322.442 296.583 322.442 296.583 322.532L295.955 322.891C295.865 322.98 295.865 322.98 295.955 323.07L296.404 323.339C296.493 323.429 296.673 323.429 296.673 323.339L297.301 322.98C297.391 322.98 297.391 322.891 297.301 322.801Z" fill="#E0F2F5"/>
        <path d="M283.751 315L283.303 314.731C283.213 314.641 283.033 314.641 283.033 314.731L282.405 315.09C282.315 315.179 282.315 315.179 282.405 315.269L282.854 315.538C282.944 315.628 283.123 315.628 283.123 315.538L283.751 315.179C283.841 315.09 283.841 315 283.751 315Z" fill="#E0F2F5"/>
        <path d="M297.84 321.994L298.288 322.263C298.378 322.353 298.558 322.353 298.558 322.263L299.186 321.904C299.276 321.815 299.276 321.815 299.186 321.725L298.737 321.456C298.647 321.366 298.468 321.366 298.468 321.456L297.84 321.815C297.75 321.904 297.75 321.994 297.84 321.994Z" fill="#E0F2F5"/>
        <path d="M298.019 324.325L298.468 324.594C298.558 324.684 298.737 324.684 298.737 324.594L299.365 324.236C299.455 324.146 299.455 324.146 299.365 324.056L298.917 323.787C298.827 323.698 298.648 323.698 298.648 323.787L298.019 324.146C297.93 324.146 297.93 324.236 298.019 324.325Z" fill="#E0F2F5"/>
        <path d="M299.904 323.249L300.353 323.518C300.443 323.608 300.622 323.608 300.622 323.518L301.25 323.16C301.34 323.07 301.34 323.07 301.25 322.98L300.802 322.711C300.712 322.622 300.532 322.622 300.532 322.711L299.904 323.07C299.814 323.07 299.814 323.16 299.904 323.249Z" fill="#E0F2F5"/>
        <path d="M284.828 315.538L284.38 315.269C284.29 315.179 284.111 315.179 284.111 315.269L283.482 315.628C283.393 315.717 283.393 315.717 283.482 315.807L283.931 316.076C284.021 316.166 284.2 316.166 284.2 316.076L284.828 315.717C284.918 315.717 284.918 315.628 284.828 315.538Z" fill="#E0F2F5"/>
        <path d="M287.969 317.421L287.52 317.152C287.431 317.062 287.251 317.062 287.251 317.152L286.623 317.511C286.533 317.6 286.533 317.6 286.623 317.69L287.072 317.959C287.161 318.049 287.341 318.049 287.341 317.959L287.969 317.6C288.059 317.511 288.059 317.421 287.969 317.421Z" fill="#E0F2F5"/>
        <path d="M290.032 318.587L289.584 318.318C289.494 318.228 289.315 318.228 289.315 318.318L288.686 318.676C288.597 318.766 288.597 318.766 288.686 318.856L289.135 319.125C289.225 319.214 289.404 319.214 289.404 319.125L290.032 318.766C290.122 318.676 290.122 318.676 290.032 318.587Z" fill="#E0F2F5"/>
        <path d="M285.815 316.166L285.366 315.897C285.276 315.807 285.097 315.807 285.097 315.897L284.469 316.255C284.379 316.345 284.379 316.345 284.469 316.435L284.917 316.704C285.007 316.793 285.187 316.793 285.187 316.704L285.815 316.345C285.904 316.345 285.904 316.255 285.815 316.166Z" fill="#E0F2F5"/>
        <path d="M288.955 317.959L288.507 317.69C288.417 317.6 288.237 317.6 288.237 317.69L287.609 318.049C287.52 318.138 287.52 318.138 287.609 318.228L288.058 318.497C288.148 318.587 288.327 318.587 288.327 318.497L288.955 318.138C289.045 318.138 289.045 318.049 288.955 317.959Z" fill="#E0F2F5"/>
        <path d="M286.892 316.793L286.443 316.524C286.353 316.435 286.174 316.435 286.174 316.524L285.546 316.883C285.456 316.973 285.456 316.973 285.546 317.062L285.995 317.331C286.084 317.421 286.264 317.421 286.264 317.331L286.892 316.973C286.982 316.883 286.982 316.793 286.892 316.793Z" fill="#E0F2F5"/>
        <path d="M284.2 314.193L284.649 314.462C284.739 314.552 284.918 314.552 284.918 314.462L285.546 314.103C285.636 314.014 285.636 314.014 285.546 313.924L285.097 313.655C285.008 313.565 284.828 313.565 284.828 313.655L284.2 314.014C284.11 314.014 284.11 314.103 284.2 314.193Z" fill="#E0F2F5"/>
        <path d="M282.944 316.614L282.495 316.345C282.405 316.255 282.226 316.255 282.226 316.345L281.598 316.704C281.508 316.793 281.508 316.793 281.598 316.883L282.046 317.152C282.136 317.242 282.316 317.242 282.316 317.152L282.944 316.793C283.033 316.793 283.033 316.704 282.944 316.614Z" fill="#E0F2F5"/>
        <path d="M284.02 317.242L283.571 316.973C283.481 316.883 283.302 316.883 283.302 316.973L282.674 317.331C282.584 317.421 282.584 317.421 282.674 317.511L283.122 317.78C283.212 317.869 283.392 317.869 283.392 317.78L284.02 317.421C284.11 317.421 284.11 317.331 284.02 317.242Z" fill="#E0F2F5"/>
        <path d="M281.866 316.076L281.418 315.807C281.328 315.717 281.149 315.717 281.149 315.807L280.52 316.166C280.431 316.255 280.431 316.255 280.52 316.345L280.969 316.614C281.059 316.704 281.238 316.704 281.238 316.614L281.866 316.255C281.956 316.166 281.956 316.076 281.866 316.076Z" fill="#E0F2F5"/>
        <path d="M285.276 314.731L285.725 315C285.815 315.09 285.994 315.09 285.994 315L286.622 314.641C286.712 314.552 286.712 314.552 286.622 314.462L286.174 314.193C286.084 314.103 285.904 314.103 285.904 314.193L285.276 314.552C285.187 314.641 285.187 314.731 285.276 314.731Z" fill="#E0F2F5"/>
        <path d="M297.571 325.132L297.122 324.863C297.032 324.774 296.853 324.774 296.853 324.863L296.225 325.222C296.135 325.312 296.135 325.312 296.225 325.401L296.673 325.67C296.763 325.76 296.942 325.76 296.942 325.67L297.571 325.312C297.66 325.222 297.66 325.132 297.571 325.132Z" fill="#E0F2F5"/>
        <path d="M294.43 323.249L284.558 317.511C284.469 317.421 284.289 317.421 284.289 317.511L283.661 317.869C283.571 317.959 283.571 317.959 283.661 318.049L293.532 323.787C293.622 323.877 293.801 323.877 293.801 323.787L294.43 323.429C294.519 323.429 294.519 323.339 294.43 323.249Z" fill="#E0F2F5"/>
        <path d="M286.264 315.359L286.712 315.628C286.802 315.717 286.982 315.717 286.982 315.628L287.61 315.269C287.7 315.179 287.7 315.179 287.61 315.09L287.161 314.821C287.071 314.731 286.892 314.731 286.892 314.821L286.264 315.179C286.264 315.269 286.264 315.359 286.264 315.359Z" fill="#E0F2F5"/>
        <path d="M296.493 324.505L296.045 324.236C295.955 324.146 295.776 324.146 295.776 324.236L295.147 324.594C295.058 324.684 295.058 324.684 295.147 324.774L295.596 325.043C295.686 325.132 295.865 325.132 295.865 325.043L296.493 324.684C296.583 324.594 296.583 324.505 296.493 324.505Z" fill="#E0F2F5"/>
        <path d="M295.507 323.877L295.058 323.608C294.969 323.518 294.789 323.518 294.789 323.608L294.161 323.967C294.071 324.056 294.071 324.056 294.161 324.146L294.61 324.415C294.699 324.505 294.879 324.505 294.879 324.415L295.507 324.056C295.597 324.056 295.597 323.967 295.507 323.877Z" fill="#E0F2F5"/>
        <path d="M291.559 318.407L292.007 318.676C292.097 318.766 292.276 318.766 292.276 318.676L292.905 318.318C292.994 318.228 292.994 318.228 292.905 318.138L292.456 317.869C292.366 317.78 292.187 317.78 292.187 317.869L291.559 318.228C291.469 318.228 291.469 318.318 291.559 318.407Z" fill="#E0F2F5"/>
        <path d="M294.699 320.201L295.148 320.47C295.238 320.559 295.417 320.559 295.417 320.47L296.045 320.111C296.135 320.021 296.135 320.021 296.045 319.932L295.596 319.663C295.507 319.573 295.327 319.573 295.327 319.663L294.699 320.021C294.609 320.111 294.609 320.111 294.699 320.201Z" fill="#E0F2F5"/>
        <path d="M293.622 319.573L294.071 319.842C294.16 319.932 294.34 319.932 294.34 319.842L294.968 319.483C295.058 319.394 295.058 319.394 294.968 319.304L294.519 319.035C294.43 318.945 294.25 318.945 294.25 319.035L293.622 319.394C293.532 319.483 293.532 319.573 293.622 319.573Z" fill="#E0F2F5"/>
        <path d="M292.545 319.035L292.994 319.304C293.083 319.394 293.263 319.394 293.263 319.304L293.891 318.945C293.981 318.856 293.981 318.856 293.891 318.766L293.442 318.497C293.352 318.407 293.173 318.407 293.173 318.497L292.545 318.856C292.455 318.856 292.455 318.945 292.545 319.035Z" fill="#E0F2F5"/>
        <path d="M295.686 320.828L296.135 321.097C296.225 321.187 296.404 321.187 296.404 321.097L297.032 320.739C297.122 320.649 297.122 320.649 297.032 320.559L296.584 320.29C296.494 320.201 296.315 320.201 296.315 320.29L295.686 320.649C295.597 320.649 295.597 320.739 295.686 320.828Z" fill="#E0F2F5"/>
        <path d="M287.341 315.986L287.789 316.255C287.879 316.345 288.059 316.345 288.059 316.255L288.687 315.897C288.777 315.807 288.777 315.807 288.687 315.717L288.238 315.448C288.148 315.359 287.969 315.359 287.969 315.448L287.341 315.807C287.251 315.807 287.251 315.897 287.341 315.986Z" fill="#E0F2F5"/>
        <path d="M288.417 316.614L288.866 316.883C288.955 316.973 289.135 316.973 289.135 316.883L289.763 316.524C289.853 316.435 289.853 316.435 289.763 316.345L289.314 316.076C289.225 315.986 289.045 315.986 289.045 316.076L288.417 316.435C288.327 316.435 288.327 316.524 288.417 316.614Z" fill="#E0F2F5"/>
        <path d="M296.764 321.366L297.212 321.635C297.302 321.725 297.481 321.725 297.481 321.635L298.11 321.277C298.199 321.187 298.199 321.187 298.11 321.097L297.661 320.828C297.571 320.739 297.392 320.739 297.392 320.828L296.764 321.187C296.674 321.277 296.674 321.366 296.764 321.366Z" fill="#E0F2F5"/>
        <path d="M289.404 317.152L289.853 317.421C289.943 317.511 290.122 317.511 290.122 317.421L290.75 317.062C290.84 316.973 290.84 316.973 290.75 316.883L290.302 316.614C290.212 316.524 290.032 316.524 290.032 316.614L289.404 316.973C289.314 317.062 289.314 317.152 289.404 317.152Z" fill="#E0F2F5"/>
        <path d="M290.481 317.78L290.93 318.049C291.02 318.138 291.199 318.138 291.199 318.049L291.827 317.69C291.917 317.6 291.917 317.6 291.827 317.511L291.379 317.242C291.289 317.152 291.11 317.152 291.11 317.242L290.481 317.6C290.392 317.69 290.392 317.78 290.481 317.78Z" fill="#E0F2F5"/>
        <path d="M257.548 282.182C257.548 282.182 261.317 282.81 261.586 280.299C261.945 277.788 260.061 274.65 260.958 271.153C261.766 267.746 264.547 262.545 270.56 263.98C276.572 265.414 277.829 268.284 275.854 275.457C275.226 277.788 272.265 281.016 270.919 280.389C269.483 279.761 268.675 285.679 273.88 286.486C275.316 291.418 267.06 295.184 266.701 294.735C266.342 294.287 258.176 289.266 257.458 288.459C256.651 287.472 257.548 282.182 257.548 282.182Z" fill="#F0CB9A"/>
        <path d="M284.2 298.322C284.2 298.322 287.43 307.378 288.328 310.158C289.404 313.655 290.571 317.6 290.571 317.6C290.571 317.6 291.648 316.345 293.532 317.331C294.161 317.69 295.327 318.587 295.327 319.214C294.878 319.752 294.34 318.587 293.622 318.766C292.904 318.945 292.097 320.201 290.392 320.021C288.776 319.842 284.379 314.91 283.482 313.476C282.584 312.041 279.443 305.316 279.443 305.316C279.443 305.316 279.354 296.708 284.2 298.322Z" fill="#F0CB9A"/>
        <path d="M269.124 293.659C269.124 293.659 272.355 302.716 273.252 305.495C274.329 308.992 278.637 314.103 278.637 314.103C278.637 314.103 279.713 312.848 281.598 313.834C282.226 314.193 283.393 315.09 283.393 315.717C282.944 316.255 282.405 315.09 281.688 315.269C280.97 315.448 280.162 316.704 278.457 316.524C276.842 316.345 269.304 310.337 268.406 308.903C267.509 307.468 264.368 300.743 264.368 300.743C264.368 300.743 264.368 292.135 269.124 293.659Z" fill="#F0CB9A"/>
        <path d="M258.086 282.361C255.125 289.086 269.303 291.866 271.008 289.176C273.701 284.962 274.239 285.679 281.418 291.418C283.751 293.301 284.11 295.811 285.008 298.412C282.674 300.115 280.162 302.536 279.623 306.302C278.636 305.944 278.367 305.316 277.918 304.15C277.918 304.15 277.739 303.433 277.47 311.234C277.2 319.035 279.713 326.477 280.341 330.333C280.969 334.189 270.47 342.707 256.022 342.707C247.228 342.707 238.523 334.278 238.434 333.292C254.048 313.924 249.112 292.404 249.112 292.404C248.395 284.693 252.343 280.12 257.638 282.272" fill="#FCAF17"/>
        <path d="M271.278 275.188C271.278 275.188 269.663 274.829 269.842 273.753C270.022 272.677 270.201 272.05 271.278 272.319C272.355 272.498 272.445 272.946 272.445 272.946C272.445 272.946 272.445 272.229 272.534 271.422C272.804 269.629 274.239 268.463 275.944 268.014C276.483 267.835 276.662 267.387 276.662 266.49C276.662 265.773 276.393 264.607 274.957 263.89C270.47 261.558 264.548 260.034 261.856 263.89C259.163 267.745 256.83 274.202 261.586 279.94C264.368 278.595 267.509 280.568 267.509 280.568C267.509 280.568 268.945 278.864 271.278 275.188Z" fill="#2A494E"/>
        <path d="M257.099 284.244C254.407 275.367 256.561 260.662 266.881 261.379L269.304 268.015C268.586 271.691 269.124 274.202 271.098 275.547C271.098 275.547 266.522 282.272 273.611 284.962C270.291 288.548 259.343 288.638 257.099 284.244Z" fill="#2A494E"/>
        <path d="M481.982 176.016L489.969 171.443L497.956 176.016V188.57L489.969 193.232L481.982 188.57V176.016Z" fill="#0095DA"/>
        <path d="M497.955 176.016L489.969 180.679V193.232L497.955 188.57V176.016Z" fill="#0077AE"/>
        <path d="M493.11 158.8L501.097 154.227L509.084 158.8V194.936L501.097 199.599L493.11 194.936V158.8Z" fill="#0095DA"/>
        <path d="M509.083 194.936V158.8L501.097 163.463V199.599L509.083 194.936Z" fill="#0077AE"/>
        <path d="M505.314 133.693L513.301 129.12L521.288 133.693V202.02L513.301 206.593L505.314 202.02V133.693Z" fill="#0095DA"/>
        <path d="M521.287 202.02V133.693L513.301 138.356V206.593L521.287 202.02Z" fill="#0077AE"/>
        <path d="M634.987 197.895V216.008L630.32 195.922C631.846 196.371 633.371 197.088 634.987 197.895Z" fill="#E0F2F5"/>
        <path d="M634.986 229.189V248.915C629.602 245.508 624.576 240.666 620.628 235.286L634.986 229.189Z" fill="#E0F2F5"/>
        <path d="M633.819 220.939L617.936 195.922C620.628 194.667 624.038 194.398 627.897 195.205L633.819 220.939Z" fill="#E0F2F5"/>
        <path d="M631.934 221.746L611.384 204.351C612.191 201.033 613.896 198.523 616.23 196.909L631.934 221.746Z" fill="#F04E23"/>
        <path d="M633.82 225.961L618.654 232.327C613.808 224.885 610.757 216.635 610.757 209.372C610.757 208.386 610.847 207.489 610.936 206.593L633.82 225.961Z" fill="#E0F2F5"/>
        <path d="M637.679 224.347V199.419C644.409 203.634 650.422 210.09 654.819 217.084L637.679 224.347Z" fill="#F68B1F"/>
        <path d="M637.679 229.099L661.729 236.093C661.818 237.079 661.908 237.976 661.908 238.873C661.908 252.502 651.139 257.523 637.679 250.35V229.099Z" fill="#0095DA"/>
        <path d="M640.102 227.037L656.524 220.132C658.857 224.436 660.562 228.92 661.37 233.224L640.102 227.037Z" fill="#E0F2F5"/>
        <path d="M716.378 354.812C716.378 354.812 724.454 348.625 729.569 352.032C734.684 355.44 741.594 373.911 731.095 392.741C733.428 408.523 731.095 426.725 726.787 434.795H723.557L716.019 407.178C713.416 397.763 712.698 387.989 713.775 378.305L716.378 354.812Z" fill="#5E91A5"/>
        <path d="M716.378 354.812C716.378 354.812 735.313 349.881 740.697 353.467C746.171 357.054 748.055 366.828 742.312 396.507C744.825 413.185 742.312 432.464 737.825 440.982H734.415L719.429 399.018C716.737 389.065 716.109 381.085 717.275 370.863L716.378 354.812Z" fill="#8DA8B2"/>
        <path d="M708.929 292.942C708.929 292.942 696.007 278.237 693.943 275.816C691.879 273.395 686.764 260.034 683.175 264.338C679.585 268.642 683.982 272.767 688.29 275.816C691.251 282.003 699.507 299.308 705.968 303.254C712.429 307.109 708.929 292.942 708.929 292.942Z" fill="#F0CB9A"/>
        <path d="M741.953 324.505C744.017 330.243 748.056 339.031 747.786 340.824C747.517 342.617 742.492 357.861 741.594 358.578C740.697 359.295 739.441 365.393 744.825 363.241C749.402 361.358 746.44 357.233 747.517 355.44C748.594 353.646 755.773 343.245 754.427 337.775C753.081 332.306 748.863 317.421 748.863 317.421L741.953 324.505Z" fill="#F0CB9A"/>
        <path d="M720.506 299.219C720.506 299.219 724.096 299.757 723.019 295.363C721.314 296.529 716.199 289.804 719.788 281.016C725.173 279.671 732.89 281.823 732.89 286.486C732.89 291.059 730.377 295.632 728.672 296.17C727.147 297.784 731.903 301.46 735.941 302.536C732.262 306.302 727.326 307.199 725.262 306.84C717.724 305.585 720.506 299.219 720.506 299.219Z" fill="#F0CB9A"/>
        <path d="M715.032 357.771C715.032 357.771 742.851 362.613 742.043 354.274C741.236 345.845 740.159 326.567 741.146 326.657C742.223 326.746 742.043 330.064 742.043 330.064L752.453 324.684L746.441 307.827L735.941 302.447L727.147 303.254C724.186 304.778 720.596 302.626 720.596 299.219L707.943 290.252L705.969 303.164L713.776 313.207C713.776 313.207 712.609 321.815 715.032 357.771Z" fill="white"/>
        <path d="M689.636 273.305L647.549 223.181" stroke="#603913" stroke-width="2" stroke-miterlimit="10" stroke-linecap="round"/>
        <path d="M683.533 263.979C683.533 263.979 682.367 264.876 682.008 266.58C682.995 269.18 684.431 271.153 685.956 270.974C687.482 270.794 690.802 271.781 689.636 269.898C688.559 267.925 683.533 263.979 683.533 263.979Z" fill="#F0CB9A"/>
        <path d="M729.12 435.871C730.287 437.216 732.171 441.61 730.197 442.148C728.223 442.775 725.71 442.865 725.71 442.865L724.992 441.43C724.992 441.43 715.839 445.107 710.634 444.658C710.096 441.699 716.378 435.064 729.12 435.871Z" fill="#603913"/>
        <path d="M739.351 442.237C740.518 443.582 742.402 447.976 740.428 448.514C738.454 449.142 735.941 449.231 735.941 449.231L735.223 447.797C735.223 447.797 726.07 451.473 720.865 451.025C720.326 448.066 726.608 441.43 739.351 442.237Z" fill="#603913"/>
        <path d="M718.083 278.416C716.827 280.12 718.083 285.5 722.749 285.679C727.416 285.858 728.582 286.486 728.582 286.486C728.582 286.486 728.672 289.086 728.044 290.342C729.21 289.176 730.198 291.507 728.313 291.956C726.429 292.494 728.134 296.618 730.915 295.542C733.697 294.466 736.12 285.769 733.518 281.913C730.915 278.057 718.262 281.375 718.083 278.416Z" fill="#2A494E"/>
        <path d="M772.823 239.231L719.878 208.655C713.955 205.248 709.199 207.31 709.199 213.138V235.734C709.199 241.652 713.955 249.095 719.878 252.502L737.197 262.545C743.12 265.952 747.876 273.484 747.876 279.313V292.135L764.747 282.092C766.811 280.927 769.772 281.196 772.823 283.079C778.746 286.486 783.502 284.424 783.502 278.595V255.999C783.502 250.081 778.746 242.549 772.823 239.231Z" fill="#FCAF17"/>
        <path d="M256.202 204.351H316.685C320.095 204.351 322.877 207.131 322.877 210.538V241.204C322.877 244.611 320.095 247.391 316.685 247.391H310.493C308.698 247.391 306.993 248.198 305.737 249.543L287.879 270.436V253.578C287.879 250.171 285.097 247.391 281.687 247.391H256.202C252.792 247.391 250.01 244.611 250.01 241.204V210.538C250.01 207.131 252.792 204.351 256.202 204.351Z" fill="#FCAF17"/>
        <path d="M723.557 230.534C721.762 228.382 720.596 225.781 720.596 223.54C720.596 220.132 723.377 218.967 726.788 220.939C730.198 222.912 732.979 227.306 732.979 230.713C732.979 232.955 731.813 234.21 730.018 234.3C733.249 237.438 735.582 241.921 735.582 245.598V251.336L717.993 241.204V235.465C717.993 231.789 720.326 229.996 723.557 230.534Z" fill="white"/>
        <path d="M535.735 289.714L531.158 287.024C530.261 286.486 528.915 286.486 528.017 287.024L521.915 290.611C521.018 291.149 521.018 291.866 521.915 292.404L526.492 295.094C527.389 295.632 528.735 295.632 529.633 295.094L535.735 291.507C536.542 290.969 536.542 290.162 535.735 289.714Z" fill="#E0F2F5"/>
        <path d="M546.145 295.722L541.568 293.032C540.671 292.494 539.325 292.494 538.428 293.032L532.325 296.618C531.428 297.156 531.428 297.874 532.325 298.412L536.902 301.102C537.799 301.64 539.145 301.64 540.043 301.102L546.145 297.515C546.953 296.977 546.953 296.17 546.145 295.722Z" fill="#E0F2F5"/>
        <path d="M556.554 301.729L551.978 299.039C551.08 298.501 549.734 298.501 548.837 299.039L542.735 302.626C541.837 303.164 541.837 303.881 542.735 304.419L547.311 307.109C548.209 307.647 549.555 307.647 550.452 307.109L556.554 303.523C557.362 302.985 557.362 302.178 556.554 301.729Z" fill="#E0F2F5"/>
        <path d="M566.963 307.737L562.387 305.047C561.489 304.509 560.143 304.509 559.246 305.047L553.144 308.634C552.246 309.172 552.246 309.889 553.144 310.427L557.72 313.117C558.618 313.655 559.964 313.655 560.861 313.117L566.963 309.53C567.771 308.992 567.771 308.185 566.963 307.737Z" fill="#E0F2F5"/>
        <path d="M598.193 325.76L593.616 323.07C592.719 322.532 591.373 322.532 590.475 323.07L584.373 326.657C583.476 327.195 583.476 327.912 584.373 328.45L588.95 331.14C589.847 331.678 591.193 331.678 592.091 331.14L598.193 327.553C599 327.015 599 326.208 598.193 325.76Z" fill="#E0F2F5"/>
        <path d="M525.326 283.706L520.749 281.016C519.852 280.478 518.506 280.478 517.608 281.016L511.506 284.603C510.609 285.141 510.609 285.858 511.506 286.396L516.083 289.086C516.98 289.624 518.326 289.624 519.223 289.086L525.326 285.5C526.223 284.962 526.223 284.244 525.326 283.706Z" fill="#E0F2F5"/>
        <path d="M602.859 317.78L607.435 320.47C608.333 321.008 609.679 321.008 610.576 320.47L616.678 316.883C617.576 316.345 617.576 315.628 616.678 315.09L612.102 312.4C611.204 311.862 609.858 311.862 608.961 312.4L602.859 315.986C601.961 316.435 601.961 317.242 602.859 317.78Z" fill="#E0F2F5"/>
        <path d="M577.374 313.745L572.797 311.055C571.899 310.517 570.553 310.517 569.656 311.055L563.554 314.641C562.657 315.179 562.657 315.897 563.554 316.435L568.13 319.125C569.028 319.663 570.374 319.663 571.271 319.125L577.374 315.538C578.181 315 578.181 314.193 577.374 313.745Z" fill="#E0F2F5"/>
        <path d="M587.783 319.752L583.206 317.062C582.309 316.524 580.963 316.524 580.065 317.062L573.963 320.649C573.066 321.187 573.066 321.904 573.963 322.442L578.54 325.132C579.437 325.67 580.783 325.67 581.681 325.132L587.783 321.546C588.59 321.008 588.59 320.201 587.783 319.752Z" fill="#E0F2F5"/>
        <path d="M452.459 241.652L447.882 238.962C446.985 238.424 445.638 238.424 444.741 238.962L438.639 242.549C437.741 243.087 437.741 243.804 438.639 244.342L443.215 247.032C444.113 247.57 445.459 247.57 446.356 247.032L452.459 243.446C453.356 242.997 453.356 242.19 452.459 241.652Z" fill="#E0F2F5"/>
        <path d="M592.449 311.772L597.026 314.462C597.923 315 599.27 315 600.167 314.462L606.269 310.875C607.166 310.337 607.166 309.62 606.269 309.082L601.692 306.392C600.795 305.854 599.449 305.854 598.552 306.392L592.449 309.979C591.552 310.427 591.552 311.234 592.449 311.772Z" fill="#E0F2F5"/>
        <path d="M594.693 334.458L599.269 337.148C600.167 337.686 601.513 337.686 602.41 337.148L608.512 333.561C609.41 333.023 609.41 332.306 608.512 331.768L603.936 329.078C603.038 328.54 601.692 328.54 600.795 329.078L594.693 332.664C593.885 333.113 593.885 333.92 594.693 334.458Z" fill="#E0F2F5"/>
        <path d="M613.269 323.787L617.845 326.477C618.743 327.015 620.089 327.015 620.986 326.477L627.088 322.891C627.986 322.353 627.986 321.635 627.088 321.097L622.512 318.407C621.614 317.869 620.268 317.869 619.371 318.407L613.269 321.994C612.371 322.442 612.371 323.249 613.269 323.787Z" fill="#E0F2F5"/>
        <path d="M462.868 247.66L458.291 244.97C457.394 244.432 456.048 244.432 455.15 244.97L449.048 248.557C448.151 249.095 448.151 249.812 449.048 250.35L453.625 253.04C454.522 253.578 455.868 253.578 456.766 253.04L462.868 249.453C463.765 249.005 463.765 248.198 462.868 247.66Z" fill="#E0F2F5"/>
        <path d="M494.096 265.683L489.52 262.993C488.622 262.455 487.276 262.455 486.379 262.993L480.277 266.58C479.379 267.118 479.379 267.835 480.277 268.373L484.853 271.063C485.751 271.601 487.097 271.601 487.994 271.063L494.096 267.477C494.994 267.028 494.994 266.221 494.096 265.683Z" fill="#E0F2F5"/>
        <path d="M514.916 277.699L510.339 275.009C509.442 274.471 508.095 274.471 507.198 275.009L501.096 278.595C500.199 279.133 500.199 279.851 501.096 280.389L505.673 283.079C506.57 283.617 507.916 283.617 508.813 283.079L514.916 279.492C515.813 278.954 515.813 278.237 514.916 277.699Z" fill="#E0F2F5"/>
        <path d="M473.278 253.668L468.701 250.978C467.804 250.44 466.458 250.44 465.56 250.978L459.458 254.564C458.561 255.102 458.561 255.82 459.458 256.358L464.035 259.048C464.932 259.586 466.278 259.586 467.176 259.048L473.278 255.461C474.175 255.013 474.175 254.206 473.278 253.668Z" fill="#E0F2F5"/>
        <path d="M504.506 271.691L499.93 269.001C499.032 268.463 497.686 268.463 496.789 269.001L490.687 272.588C489.789 273.126 489.789 273.843 490.687 274.381L495.263 277.071C496.161 277.609 497.507 277.609 498.404 277.071L504.506 273.484C505.404 273.036 505.404 272.229 504.506 271.691Z" fill="#E0F2F5"/>
        <path d="M483.687 259.675L479.11 256.985C478.213 256.447 476.867 256.447 475.97 256.985L469.867 260.572C468.97 261.11 468.97 261.827 469.867 262.365L474.444 265.055C475.341 265.593 476.687 265.593 477.585 265.055L483.687 261.469C484.584 261.02 484.584 260.213 483.687 259.675Z" fill="#E0F2F5"/>
        <path d="M457.124 233.672L461.701 236.362C462.598 236.9 463.944 236.9 464.842 236.362L470.944 232.775C471.841 232.237 471.841 231.52 470.944 230.982L466.367 228.292C465.47 227.754 464.124 227.754 463.226 228.292L457.124 231.879C456.227 232.417 456.227 233.224 457.124 233.672Z" fill="#E0F2F5"/>
        <path d="M444.381 258.33L439.805 255.64C438.907 255.102 437.561 255.102 436.664 255.64L430.562 259.227C429.664 259.765 429.664 260.482 430.562 261.02L435.138 263.711C436.036 264.249 437.382 264.249 438.279 263.711L444.381 260.124C445.189 259.675 445.189 258.868 444.381 258.33Z" fill="#E0F2F5"/>
        <path d="M454.791 264.338L450.215 261.648C449.317 261.11 447.971 261.11 447.074 261.648L440.972 265.235C440.074 265.773 440.074 266.49 440.972 267.028L445.548 269.718C446.446 270.256 447.792 270.256 448.689 269.718L454.791 266.131C455.599 265.683 455.599 264.876 454.791 264.338Z" fill="#E0F2F5"/>
        <path d="M433.972 252.323L429.396 249.633C428.498 249.095 427.152 249.095 426.255 249.633L420.153 253.219C419.255 253.757 419.255 254.475 420.153 255.013L424.729 257.703C425.627 258.241 426.973 258.241 427.87 257.703L433.972 254.116C434.78 253.668 434.78 252.861 433.972 252.323Z" fill="#E0F2F5"/>
        <path d="M467.534 239.68L472.111 242.37C473.008 242.908 474.354 242.908 475.252 242.37L481.354 238.783C482.251 238.245 482.251 237.528 481.354 236.99L476.777 234.3C475.88 233.762 474.534 233.762 473.637 234.3L467.534 237.886C466.637 238.424 466.637 239.142 467.534 239.68Z" fill="#E0F2F5"/>
        <path d="M590.116 342.438L585.539 339.748C584.642 339.21 583.296 339.21 582.398 339.748L576.296 343.335C575.399 343.873 575.399 344.59 576.296 345.128L580.873 347.818C581.77 348.356 583.116 348.356 584.014 347.818L590.116 344.231C590.923 343.693 590.923 342.886 590.116 342.438Z" fill="#E0F2F5"/>
        <path d="M558.887 324.415L460.624 267.745C459.727 267.207 458.381 267.207 457.483 267.745L451.381 271.332C450.484 271.87 450.484 272.587 451.381 273.125L549.644 329.795C550.541 330.333 551.888 330.333 552.785 329.795L558.887 326.208C559.695 325.67 559.695 324.863 558.887 324.415Z" fill="#E0F2F5"/>
        <path d="M477.944 245.687L482.52 248.377C483.418 248.915 484.764 248.915 485.661 248.377L491.763 244.791C492.661 244.253 492.661 243.535 491.763 242.997L487.187 240.307C486.289 239.769 484.943 239.769 484.046 240.307L477.944 243.894C477.046 244.432 477.046 245.149 477.944 245.687Z" fill="#E0F2F5"/>
        <path d="M579.707 336.43L575.13 333.74C574.233 333.202 572.886 333.202 571.989 333.74L565.887 337.327C564.99 337.865 564.99 338.582 565.887 339.12L570.464 341.81C571.361 342.348 572.707 342.348 573.604 341.81L579.707 338.224C580.514 337.686 580.514 336.879 579.707 336.43Z" fill="#E0F2F5"/>
        <path d="M569.297 330.423L564.721 327.733C563.823 327.195 562.477 327.195 561.58 327.733L555.478 331.319C554.58 331.857 554.58 332.575 555.478 333.113L560.054 335.803C560.952 336.341 562.298 336.341 563.195 335.803L569.297 332.216C570.105 331.678 570.105 330.871 569.297 330.423Z" fill="#E0F2F5"/>
        <path d="M529.991 275.726L534.568 278.416C535.465 278.954 536.812 278.954 537.709 278.416L543.811 274.829C544.708 274.291 544.708 273.574 543.811 273.036L539.234 270.346C538.337 269.808 536.991 269.808 536.094 270.346L529.991 273.933C529.094 274.381 529.094 275.188 529.991 275.726Z" fill="#E0F2F5"/>
        <path d="M561.221 293.749L565.797 296.439C566.695 296.977 568.041 296.977 568.938 296.439L575.04 292.852C575.938 292.314 575.938 291.597 575.04 291.059L570.464 288.369C569.566 287.831 568.22 287.831 567.323 288.369L561.221 291.956C560.324 292.404 560.324 293.211 561.221 293.749Z" fill="#E0F2F5"/>
        <path d="M550.811 287.741L555.387 290.431C556.285 290.969 557.631 290.969 558.528 290.431L564.63 286.845C565.528 286.307 565.528 285.589 564.63 285.051L560.054 282.361C559.156 281.823 557.81 281.823 556.913 282.361L550.811 285.948C549.913 286.396 549.913 287.203 550.811 287.741Z" fill="#E0F2F5"/>
        <path d="M540.402 281.734L544.978 284.424C545.876 284.962 547.222 284.962 548.119 284.424L554.221 280.837C555.119 280.299 555.119 279.582 554.221 279.044L549.645 276.354C548.747 275.816 547.401 275.816 546.504 276.354L540.402 279.94C539.504 280.389 539.504 281.196 540.402 281.734Z" fill="#E0F2F5"/>
        <path d="M571.63 299.757L576.207 302.447C577.104 302.985 578.45 302.985 579.348 302.447L585.45 298.86C586.347 298.322 586.347 297.605 585.45 297.067L580.873 294.377C579.976 293.839 578.63 293.839 577.732 294.377L571.63 297.963C570.733 298.412 570.733 299.219 571.63 299.757Z" fill="#E0F2F5"/>
        <path d="M488.354 251.695L492.93 254.385C493.828 254.923 495.174 254.923 496.071 254.385L502.173 250.798C503.071 250.26 503.071 249.543 502.173 249.005L497.597 246.315C496.699 245.777 495.353 245.777 494.456 246.315L488.354 249.902C487.456 250.35 487.456 251.157 488.354 251.695Z" fill="#E0F2F5"/>
        <path d="M498.763 257.703L503.34 260.393C504.237 260.931 505.583 260.931 506.48 260.393L512.583 256.806C513.48 256.268 513.48 255.551 512.583 255.013L508.006 252.323C507.109 251.785 505.762 251.785 504.865 252.323L498.763 255.909C497.865 256.358 497.865 257.165 498.763 257.703Z" fill="#E0F2F5"/>
        <path d="M582.039 305.764L586.616 308.454C587.513 308.992 588.859 308.992 589.757 308.454L595.859 304.868C596.756 304.33 596.756 303.612 595.859 303.074L591.282 300.384C590.385 299.846 589.039 299.846 588.141 300.384L582.039 303.971C581.142 304.419 581.142 305.226 582.039 305.764Z" fill="#E0F2F5"/>
        <path d="M509.173 263.71L513.75 266.4C514.647 266.938 515.993 266.938 516.891 266.4L522.993 262.814C523.89 262.276 523.89 261.558 522.993 261.02L518.416 258.33C517.519 257.792 516.173 257.792 515.275 258.33L509.173 261.917C508.276 262.365 508.276 263.172 509.173 263.71Z" fill="#E0F2F5"/>
        <path d="M519.582 269.718L524.159 272.408C525.056 272.946 526.402 272.946 527.3 272.408L533.402 268.821C534.299 268.283 534.299 267.566 533.402 267.028L528.825 264.338C527.928 263.8 526.582 263.8 525.684 264.338L519.582 267.925C518.685 268.373 518.685 269.18 519.582 269.718Z" fill="#E0F2F5"/>
        <path d="M776.233 250.35L739.8 229.278V232.327L776.233 253.399V250.35Z" fill="white"/>
        <path d="M776.233 257.344L739.8 236.362V239.411L776.233 260.482V257.344Z" fill="white"/>
        <path d="M776.233 264.428L739.8 243.356V246.494L776.233 267.476V264.428Z" fill="white"/>
        <path d="M760.619 262.455L739.8 250.44V253.488L760.619 265.504V262.455Z" fill="white"/>
        <path d="M650.954 243.827C657.093 239.213 655.453 226.682 647.29 215.837C639.127 204.993 627.533 199.942 621.394 204.556C615.254 209.17 616.895 221.702 625.057 232.546C633.22 243.39 644.814 248.441 650.954 243.827Z" fill="#2A494E"/>
        <path d="M538.787 431.029V420.628H534.838C534.39 418.834 533.672 417.131 532.684 415.517L535.466 412.737L528.108 405.384L525.326 408.164C523.711 407.267 522.006 406.55 520.211 406.012V402.067H509.801V406.012C508.007 406.46 506.302 407.178 504.686 408.164L501.904 405.384L494.546 412.737L497.328 415.517C496.43 417.131 495.712 418.834 495.174 420.628H491.226V431.029H495.174C495.623 432.822 496.341 434.526 497.328 436.14L494.456 439.009L501.815 446.362L504.686 443.493C506.302 444.389 508.007 445.107 509.801 445.645V449.68H520.211V445.645C522.006 445.196 523.711 444.479 525.326 443.493L528.198 446.362L535.556 439.009L532.684 436.14C533.582 434.526 534.3 432.822 534.838 431.029H538.787ZM515.006 434.974C509.981 434.974 505.853 430.85 505.853 425.828C505.853 420.807 509.981 416.682 515.006 416.682C520.031 416.682 524.159 420.807 524.159 425.828C524.159 430.85 520.031 434.974 515.006 434.974Z" fill="#2A494E"/>
        <path d="M290.93 234.479H286.443V241.832H290.93V234.479Z" fill="white"/>
        <path d="M300.622 225.512H296.135V241.832H300.622V225.512Z" fill="white"/>
        <path d="M310.403 216.546H305.916V241.832H310.403V216.546Z" fill="white"/>
        <path d="M304.032 208.745C300.622 210.807 295.955 212.869 292.276 213.587L296.763 215.111C294.161 217.98 291.289 220.491 288.059 222.553C284.2 224.974 279.982 226.588 275.585 227.664C280.251 227.126 284.828 226.05 289.046 224.078C292.815 222.284 296.225 219.953 299.366 217.173L301.878 221.298C301.699 217.532 302.776 212.511 304.032 208.745Z" fill="white"/>
        <path d="M270.291 233.582C269.483 236.272 267.06 238.155 264.099 238.155C260.599 238.155 257.727 235.286 257.727 231.789C257.727 228.92 259.702 226.409 262.304 225.602V223.719C258.625 224.526 255.933 227.844 255.933 231.699C255.933 236.183 259.612 239.859 264.099 239.859C268.047 239.859 271.278 237.079 272.085 233.493H270.291V233.582Z" fill="white"/>
        <path d="M273.252 231.789H269.663C269.663 228.74 267.15 226.319 264.188 226.319V222.733C269.124 222.643 273.252 226.768 273.252 231.789Z" fill="white"/>
        <path d="M765.644 59.7182H648.536V131.81H765.644V59.7182Z" fill="white"/>
        <path d="M758.41 124.614V75.8355L655.66 75.8355V124.614L758.41 124.614Z" fill="#ED1C24"/>
        <path d="M701.212 91.3706L714.314 98.9026C715.301 99.4406 715.301 100.875 714.314 101.413L701.212 108.945C700.225 109.483 699.058 108.766 699.058 107.69V92.5363C698.969 91.5499 700.225 90.8326 701.212 91.3706Z" fill="white"/>
        <path d="M657.33 69.8506C658.222 69.8506 658.945 69.1279 658.945 68.2366C658.945 67.3452 658.222 66.6226 657.33 66.6226C656.438 66.6226 655.715 67.3452 655.715 68.2366C655.715 69.1279 656.438 69.8506 657.33 69.8506Z" fill="#ED1C24"/>
        <path d="M663.971 69.8506C664.863 69.8506 665.586 69.1279 665.586 68.2366C665.586 67.3452 664.863 66.6226 663.971 66.6226C663.079 66.6226 662.355 67.3452 662.355 68.2366C662.355 69.1279 663.079 69.8506 663.971 69.8506Z" fill="#FDB913"/>
        <path d="M670.701 69.8506C671.593 69.8506 672.317 69.1279 672.317 68.2366C672.317 67.3452 671.593 66.6226 670.701 66.6226C669.809 66.6226 669.086 67.3452 669.086 68.2366C669.086 69.1279 669.809 69.8506 670.701 69.8506Z" fill="#72BF44"/>
        <path d="M499.571 13.6294C489.251 3.31768 472.47 3.31768 462.15 13.6294L457.933 9.41504C470.586 -3.22801 491.136 -3.22801 503.789 9.41504L499.571 13.6294Z" fill="white"/>
        <path d="M492.033 28.4244C485.841 22.2374 475.791 22.2374 469.688 28.4244L465.471 24.2101C473.996 15.6917 487.726 15.6917 496.251 24.2101L492.033 28.4244Z" fill="white"/>
        <path d="M484.495 43.2195C482.521 41.2468 479.201 41.2468 477.226 43.2195L473.009 39.0051C477.316 34.7011 484.405 34.7011 488.713 39.0051L484.495 43.2195Z" fill="white"/>
        <path d="M329.697 39.4535L315.609 25.3757L314.891 26.0931L328.98 40.1708C329.249 39.9018 329.428 39.7225 329.697 39.4535Z" fill="#FCAF17"/>
        <path d="M393.053 41.5158L408.398 26.1827L407.68 25.4654L392.335 40.7985C392.514 40.9778 392.784 41.2468 393.053 41.5158Z" fill="#FCAF17"/>
        <path d="M362.182 27.1691V6.54568H361.105V27.1691C361.464 27.1691 361.823 27.1691 362.182 27.1691Z" fill="#FCAF17"/>
        <path d="M315.968 71.5542H296.046V72.6302H315.968C315.968 72.2716 315.968 71.9129 315.968 71.5542Z" fill="#FCAF17"/>
        <path d="M329.518 103.476L314.891 118.091L315.609 118.809L330.236 104.193C329.967 103.924 329.787 103.745 329.518 103.476Z" fill="#FCAF17"/>
        <path d="M404.809 71.5542C404.809 71.9129 404.809 72.2716 404.809 72.6302H427.243V71.5542H404.809Z" fill="#FCAF17"/>
        <path d="M391.796 102.938L407.679 118.809L408.397 118.091L392.514 102.22C392.245 102.4 392.065 102.669 391.796 102.938Z" fill="#FCAF17"/>
        <path d="M257.548 128.403H204.692V181.217H257.548V128.403Z" fill="#3AA1C4"/>
        <path d="M221.473 166.96H219.14C217.973 166.96 216.986 165.974 216.986 164.808V152.703C216.986 151.537 217.973 150.551 219.14 150.551H221.473C222.64 150.551 223.627 151.537 223.627 152.703V164.808C223.627 165.974 222.64 166.96 221.473 166.96Z" fill="white"/>
        <path d="M242.562 150.192H239.331V143.736C239.331 143.108 238.883 142.66 238.254 142.66C236.729 142.66 235.293 143.557 234.665 144.902L233.319 147.861C232.691 149.295 231.255 150.192 229.64 150.192C228.204 150.192 227.037 151.358 227.037 152.792V161.67C227.037 163.104 228.204 164.27 229.64 164.27H231.793C232.332 164.27 232.78 164.449 233.139 164.808L234.485 166.243C234.844 166.601 235.293 166.781 235.831 166.781H242.203C243.818 166.781 245.164 165.436 245.164 163.822V161.67V154.675V152.792C245.164 151.447 243.998 150.192 242.562 150.192Z" fill="white"/>
        <path d="M648.267 461.067C648.267 476.58 620.179 512.626 620.179 512.626C620.179 512.626 592.091 476.49 592.091 461.067C592.091 445.555 604.654 433.002 620.179 433.002C635.703 433.002 648.267 445.555 648.267 461.067Z" fill="#3AA1C4"/>
        <path d="M815 166.87C815 172.878 804.052 186.956 804.052 186.956C804.052 186.956 793.104 172.878 793.104 166.87C793.104 160.863 798.039 155.931 804.052 155.931C810.064 155.931 815 160.773 815 166.87Z" fill="#FCAF17"/>
        <path d="M35.7152 339.3C35.7152 348.804 18.4855 370.952 18.4855 370.952C18.4855 370.952 1.25586 348.804 1.25586 339.3C1.25586 329.795 8.97332 322.084 18.4855 322.084C27.9978 322.084 35.7152 329.795 35.7152 339.3Z" fill="#ED1C24"/>
        <path d="M809.347 166.063C809.347 169.022 806.924 171.443 803.962 171.443C801.001 171.443 798.578 169.022 798.578 166.063C798.578 163.104 801.001 160.683 803.962 160.683C807.014 160.773 809.347 163.104 809.347 166.063Z" fill="white"/>
        <path d="M620.179 473.173C627.712 473.173 633.819 467.07 633.819 459.543C633.819 452.016 627.712 445.914 620.179 445.914C612.646 445.914 606.539 452.016 606.539 459.543C606.539 467.07 612.646 473.173 620.179 473.173Z" fill="white"/>
        <path d="M26.3379 344.436C29.4815 340.107 28.5177 334.051 24.1853 330.91C19.853 327.769 13.7925 328.732 10.649 333.061C7.5054 337.39 8.46911 343.445 12.8015 346.586C17.1339 349.728 23.1943 348.765 26.3379 344.436Z" fill="white"/>
        <path d="M521.287 488.416V472.366H515.095C514.378 469.586 513.211 466.896 511.775 464.475L516.083 460.171L504.686 448.783L500.378 453.087C497.955 451.652 495.263 450.487 492.481 449.769V443.672H476.508V449.769C473.726 450.487 471.034 451.652 468.611 453.087L464.304 448.783L452.907 460.171L457.214 464.475C455.779 466.896 454.702 469.586 453.894 472.366H447.792V488.416H453.984C454.702 491.196 455.868 493.886 457.304 496.307L452.907 500.7L464.304 512.088L468.701 507.694C471.124 509.129 473.816 510.205 476.598 510.922V517.109H492.661V510.922C495.443 510.205 498.135 509.039 500.558 507.694L504.955 512.088L516.352 500.7L511.955 496.307C513.39 493.886 514.467 491.196 515.275 488.416H521.287ZM484.585 494.513C476.777 494.513 470.406 488.147 470.406 480.346C470.406 472.545 476.777 466.179 484.585 466.179C492.392 466.179 498.763 472.545 498.763 480.346C498.763 488.147 492.392 494.513 484.585 494.513Z" fill="#8DA8B2"/>
        <path d="M392.155 336.789C390.181 336.789 388.296 337.506 386.861 338.672L374.207 332.037C374.207 331.857 374.207 331.678 374.207 331.499C374.207 331.14 374.207 330.781 374.118 330.512L387.13 322.801C388.566 323.787 390.271 324.415 392.065 324.415C396.821 324.415 400.59 320.559 400.59 315.897C400.59 311.144 396.732 307.378 392.065 307.378C387.309 307.378 383.54 311.234 383.54 315.897C383.54 316.255 383.54 316.614 383.63 316.883L370.618 324.594C369.182 323.608 367.477 322.98 365.682 322.98C360.926 322.98 357.157 326.836 357.157 331.499C357.157 336.251 361.016 340.017 365.682 340.017C367.657 340.017 369.541 339.3 370.977 338.134L383.63 344.769C383.63 344.949 383.63 345.128 383.63 345.307C383.63 350.06 387.489 353.826 392.155 353.826C396.911 353.826 400.68 349.97 400.68 345.307C400.68 340.645 396.911 336.789 392.155 336.789Z" fill="#ED1C24"/>
    </g>
 

    <defs>
        <clipPath id="clip0">
            <rect width="815" height="525" fill="white"/>
        </clipPath>
    </defs>
</svg>
