<svg width="815" height="525" viewBox="0 0 815 525" fill="none" xmlns="http://www.w3.org/2000/svg" style="background-color: #333;">
<style>
    .dark-theme {
      fill: #78909c;
    }
  </style>
    <path d="M298.254 7.45062C296.108 -0.649313 284.823 -0.857004 276.585 0.87375C238.37 8.83522 195.585 22.6813 158.34 34.4504C136.255 41.7196 114.794 50.8579 94.2324 61.6578C88.0017 64.9117 80.871 71.4885 84.3325 77.5808C86.8248 81.9423 93.0555 82.0807 98.1093 81.5269C151.001 75.9885 203.062 63.1117 252.423 43.3118C266.339 37.7042 280.254 31.4735 291.469 21.5736C295.623 17.9736 299.638 12.7813 298.254 7.45062Z" fill="#F7F9FB"/>
    <path d="M496.876 304.656C497.499 315.802 496.045 327.709 490.576 338.579C490.437 338.786 490.368 338.994 490.23 339.202C490.161 339.34 490.091 339.409 490.022 339.548C489.676 340.24 489.33 340.863 488.914 341.555C486.976 344.809 484.691 347.994 481.991 350.971C478.599 354.709 474.376 358.032 469.53 361.078C468.907 361.494 468.284 361.84 467.661 362.186C466.276 363.017 464.822 363.778 463.368 364.54C434.015 379.909 388.669 385.517 363.262 387.524C356.962 387.663 350.662 388.009 344.431 388.563C333.493 389.601 322.693 391.332 311.962 393.824C275.27 402.27 240.794 418.886 203.963 426.778C171.009 433.839 133.833 432.732 106.279 414.386C100.464 410.509 95.8947 405.178 92.7101 398.947C89.1794 391.886 86.2025 385.586 83.0872 379.632C82.6025 378.732 82.1179 377.763 81.6333 376.863C81.5641 376.724 81.4949 376.586 81.4256 376.447C77.618 369.386 73.5334 362.601 67.8565 355.54C67.0258 354.501 66.1258 353.394 65.2258 352.286C64.7412 351.732 64.3258 351.178 63.7719 350.625C63.6335 350.486 63.495 350.278 63.3566 350.071C61.972 348.478 60.4489 346.817 58.8566 345.155C53.3182 339.409 47.4336 334.079 41.6875 328.471C41.2029 327.986 40.6491 327.502 40.1645 327.017C39.7491 326.602 39.4029 326.256 38.9875 325.84C37.4645 324.317 35.9414 322.725 34.4184 321.133C7.28012 291.225 -5.11208 248.372 2.01863 208.564C9.14934 168.757 35.6645 132.896 71.5949 114.411C78.1718 111.019 85.0256 108.181 92.0178 105.827C92.9178 105.481 93.8871 105.204 94.787 104.927C117.91 97.4498 142.694 94.3345 166.717 89.9038C215.594 80.9038 263.432 66.0193 308.778 45.7349C316.324 42.3426 323.8 38.8119 331.347 35.2811C332.247 34.8658 333.216 34.4504 334.116 33.9658C358.277 22.6813 382.646 11.7429 408.884 7.31216C420.169 5.37372 431.8 4.68141 442.876 7.24293C472.507 14.0275 493.345 44.558 493.345 74.8808C493.345 109.565 470.638 141.411 471.33 176.095C471.538 188.418 474.791 200.326 479.568 211.68C484.068 222.41 490.022 232.656 496.322 242.418C496.737 243.041 497.153 243.664 497.568 244.287C501.791 250.864 506.222 257.302 510.514 263.879L496.114 296.21C496.391 298.979 496.668 301.817 496.876 304.656Z" fill="#F7F9FB"/>
    <path d="M490.578 338.579C490.439 338.786 490.37 338.994 490.232 339.202L172.811 371.671H172.534L63.9122 350.555C63.7737 350.417 63.6353 350.209 63.4968 350.002C62.1122 348.409 60.5891 346.748 58.9968 345.086C53.4584 339.34 47.5739 334.009 41.8278 328.402C41.3431 327.917 40.7893 327.432 40.3047 326.948L326.156 313.24L458.87 306.871L492.101 304.933L496.808 304.656C497.501 315.871 496.047 327.709 490.578 338.579Z" fill="#B29EEF"/>
    <path d="M334.117 33.9658V223.656C334.117 224.418 333.494 225.041 332.732 225.041C331.971 225.041 331.348 224.418 331.348 223.656V35.2119C332.248 34.7965 333.148 34.3811 334.117 33.9658Z" fill="#E1CCFF"/>
    <path d="M490.091 339.548C489.744 340.24 489.398 340.863 488.983 341.555C487.044 344.809 484.76 347.994 482.06 350.971C478.668 354.709 474.445 358.032 469.598 361.078C468.975 361.494 468.352 361.84 467.729 362.186L216.216 391.124L176.616 395.693L175.924 383.093L175.439 373.747H175.509L196.347 371.463L490.091 339.548Z" fill="white"/>
    <path d="M94.7184 104.927V305.556C94.7184 306.317 94.0954 306.94 93.3338 306.94C92.5723 306.94 91.9492 306.317 91.9492 305.556V105.827C92.9184 105.48 93.8184 105.204 94.7184 104.927Z" fill="#E1CCFF"/>
    <path d="M201.124 202.264C197.316 194.788 189.839 189.941 178.831 187.795C172.116 186.48 164.085 186.134 154.739 186.826C111.609 190.011 79.9016 198.526 60.4479 212.095C47.1557 221.372 41.548 238.61 46.8095 254.049L70.8324 324.733L71.6632 327.156L134.247 322.725L148.786 321.686H149.062L149.27 321.479C149.27 321.479 149.339 321.409 149.409 321.271C151.209 319.125 167.685 299.048 181.947 275.371C202.3 241.726 208.739 217.08 201.124 202.264ZM148.37 320.371L98.8014 323.833L76.0247 325.425L72.6324 325.702L72.2862 324.733L48.0557 253.564C43.0019 238.679 48.4018 222.064 61.1402 213.203C75.4708 203.234 96.6553 195.964 124.347 191.672C124.417 191.672 124.417 191.672 124.486 191.672C133.832 190.218 143.939 189.111 154.739 188.28C157.924 188.072 160.97 187.934 163.809 187.934C182.57 187.934 194.685 192.988 199.808 203.026C217.047 236.464 152.386 315.525 148.37 320.371Z" fill="#54238E"/>
    <path d="M76.3028 326.463L51.5876 253.772C46.4646 238.61 51.7953 221.787 64.9491 212.649C80.2489 201.987 108.079 191.326 158.894 187.518C271.947 179.141 152.871 321.063 152.871 321.063L76.3028 326.463Z" fill="#54238E"/>
    <path d="M283.092 68.65C283.646 66.5039 283.784 64.5655 283.715 62.6963C283.646 60.827 283.438 58.8886 283.3 56.8117C283.092 55.4963 282.815 54.2502 282.4 52.9348C280.877 47.881 277.761 43.1733 273.677 39.7118C265.577 32.8581 254.638 30.2965 244.046 29.9504C228.193 29.3965 210.954 34.1734 201.539 46.9118C193.439 57.7809 192.47 72.1116 188.801 85.1961C182.778 106.657 169.07 125.211 153.355 140.926C144.147 150.134 133.624 159.549 131.201 172.357C128.847 184.957 135.424 198.11 145.532 205.933C149.201 208.772 153.424 211.056 157.924 212.164C162.493 213.272 167.339 213.203 172.047 212.441C186.378 210.018 198.701 201.226 210.816 193.195C212.062 192.364 213.239 191.603 214.485 190.703C223.277 184.057 223.97 172.288 230.893 163.98C232.139 162.318 233.316 161.142 234.631 160.38C250.969 159.826 277.969 150.826 282.192 173.88C282.607 175.126 283.092 176.441 283.577 177.618C285.584 182.464 288.284 186.411 294.446 186.757C295.484 186.826 296.592 186.895 297.7 186.895C303.1 186.826 308.638 185.441 312.376 181.634C316.392 177.618 317.707 171.595 317.707 165.918C317.776 158.026 315.699 150.134 311.753 143.28C310.23 140.649 308.5 138.157 306.561 135.803C305.592 134.626 304.623 133.519 303.584 132.411C289.046 122.442 279.354 105.827 281.361 87.9653C281.361 86.2345 281.431 84.5038 281.569 82.773C281.915 77.5807 282.677 72.3192 283.507 67.1962L283.092 68.65Z" fill="#400F58"/>
    <path d="M276.449 71.4885C273.195 81.1808 277.418 91.2191 283.649 98.7652C291.402 108.181 301.372 115.104 308.018 125.488C314.664 135.873 319.994 149.096 317.294 161.557C316.187 166.68 313.348 168.826 308.502 170.142C304.418 171.249 300.541 172.426 297.01 174.918C296.179 175.472 296.941 176.857 297.772 176.234C301.856 173.395 306.287 172.565 310.925 171.042C313.833 170.072 316.187 168.48 317.571 165.711C322.21 156.226 318.541 143.142 314.456 134.142C309.333 122.857 301.441 114.342 292.579 105.896C283.51 97.2422 273.403 85.4038 277.972 71.9039C278.249 70.9347 276.795 70.5193 276.449 71.4885Z" fill="#400F58"/>
    <path d="M224.248 151.795L232.279 145.911L242.525 141.065L274.094 151.795L287.594 294.479L252.771 303.271L228.748 230.926L224.248 151.795Z" fill="white"/>
    <path d="M288.354 131.442C301.439 134.073 313.831 141.48 320.754 153.111C327.954 165.226 328.092 181.08 320.131 192.849C319.577 193.68 320.893 194.441 321.446 193.61C329.546 181.703 329.546 165.641 322.623 153.18C315.631 140.719 302.616 132.619 288.77 129.85C287.801 129.78 287.385 131.234 288.354 131.442Z" fill="#400F58"/>
    <path d="M182.294 113.027C172.048 121.057 162.286 129.711 152.04 137.811C143.94 144.18 134.94 149.857 129.264 158.719C118.048 176.165 126.217 197.695 141.656 209.464C150.31 216.041 162.079 221.303 173.017 217.91C173.986 217.633 173.571 216.11 172.602 216.387C162.563 219.503 151.833 214.864 143.663 208.98C135.564 203.164 129.056 194.857 126.564 185.095C124.141 175.611 126.148 165.503 131.894 157.611C137.502 149.926 145.74 144.803 153.079 138.988C163.325 130.888 173.086 122.303 183.332 114.204C184.163 113.511 183.055 112.404 182.294 113.027Z" fill="#400F58"/>
    <path d="M317.431 333.871L212.686 331.379C212.686 328.54 214.832 326.186 217.601 325.909L325.738 314.209L317.431 333.871Z" fill="#400F58"/>
    <path d="M197.94 74.8116C196.694 86.8576 194.201 98.9037 189.009 109.911C183.886 120.85 175.786 129.365 167.479 137.949C160.071 145.634 152.663 153.734 148.994 163.98C145.948 172.495 146.64 181.772 150.656 189.872C154.671 197.972 162.079 203.857 171.355 203.649C172.325 203.649 172.394 202.057 171.355 202.126C161.94 202.334 154.879 195.826 151.279 187.587C146.986 177.688 148.371 167.095 153.563 157.819C158.825 148.334 166.994 140.926 174.332 133.103C181.394 125.626 187.417 117.596 191.501 108.111C196.001 97.5883 198.286 86.3038 199.463 74.95C199.601 73.8423 198.009 73.8423 197.94 74.8116Z" fill="white"/>
    <path d="M275.547 103.681C275.478 117.18 286.624 125.973 294.862 135.111C299.778 140.511 304.139 146.742 304.555 154.288C305.039 161.695 301.924 168.895 296.524 173.811C295.762 174.503 296.87 175.611 297.632 174.918C307.393 166.057 308.57 151.934 301.509 141.065C293.547 128.742 277.001 119.95 277.07 103.681C277.07 102.642 275.547 102.642 275.547 103.681Z" fill="white"/>
    <path d="M269.592 150.411C272.638 156.849 269.938 164.395 270.976 171.388C276.93 212.303 275.407 254.256 276.03 295.517C276.099 301.817 276.376 308.533 280.322 313.448C281.084 314.348 281.984 315.248 283.092 315.594C283.992 315.871 284.961 315.802 285.93 315.733C299.292 314.902 312.722 314.14 326.084 313.309C321.722 287.625 317.361 261.941 313.068 236.187C323.522 249.133 333.976 262.079 344.36 275.025C348.791 263.464 353.222 251.902 357.583 240.341C358.137 238.956 358.622 237.502 358.414 236.049C358.206 234.733 357.514 233.626 356.753 232.518C346.576 217.149 335.845 202.195 324.561 187.587C317.707 178.726 310.576 169.934 301.507 163.426C292.23 156.642 280.669 153.111 269.592 150.411Z" fill="#FDCB22"/>
    <path d="M320.754 307.91C320.754 308.81 320.062 309.571 319.37 310.056C317.985 310.956 316.393 311.302 314.731 311.51C307.393 312.479 299.847 311.371 293.201 308.187C295.901 311.856 298.6 315.456 301.37 319.125C301.716 319.609 302.131 320.163 301.924 320.786C301.785 321.271 301.37 321.548 300.954 321.825C300.4 322.171 299.847 322.448 299.224 322.725C296.108 324.179 292.577 324.732 289.116 324.248C281.847 323.279 275.685 317.948 268.347 316.979C264.678 316.494 260.939 317.117 257.201 317.325C253.462 317.533 249.516 317.256 246.47 315.11C245.709 314.625 245.086 313.933 244.739 313.102C243.909 311.025 245.501 308.81 246.816 306.94C247.232 306.387 247.578 305.763 247.993 305.14C249.862 302.025 251.178 298.564 251.801 294.964C255.816 294.687 260.939 293.371 264.816 292.333C270.493 290.81 276.585 288.456 281.916 290.81C283.162 291.364 284.339 292.125 285.447 292.887C294.862 299.187 305.108 305.556 316.462 305.556C318.193 305.694 320.754 306.11 320.754 307.91Z" fill="#FFB9A3"/>
    <path d="M299.224 322.794C296.108 324.248 292.577 324.802 289.116 324.317C281.847 323.348 275.685 318.017 268.347 317.048C264.678 316.563 260.939 317.186 257.201 317.394C253.462 317.602 249.516 317.325 246.47 315.179C245.709 314.694 245.086 314.002 244.739 313.171C243.909 311.094 245.501 308.879 246.816 307.01C247.232 306.456 247.578 305.833 247.993 305.21C250.624 307.148 256.232 309.433 266.824 308.117C283.578 306.04 280.116 315.733 292.093 319.194C295.901 320.44 298.047 321.686 299.224 322.794Z" fill="#FF9B8D"/>
    <path d="M280.047 49.8194C272.917 26.7658 246.055 21.5043 225.148 26.835C215.04 29.3965 205.486 34.7965 198.84 42.8964C190.948 52.5194 187.902 64.9116 186.033 76.9577C184.856 84.7807 184.233 92.7422 182.433 100.496C181.394 104.996 178.971 109.011 177.379 113.304C177.033 114.273 178.556 114.619 178.902 113.719C180.148 110.465 181.879 107.419 183.056 104.165C184.787 99.2498 185.41 93.7806 186.102 88.6576C187.763 76.4731 189.01 63.8732 194.479 52.7271C204.171 32.9965 226.602 24.412 247.717 26.9735C261.84 28.7042 274.232 36.1119 278.593 50.2348C278.87 51.204 280.324 50.7887 280.047 49.8194Z" fill="#400F58"/>
    <path d="M228.885 85.75C221.685 83.6038 218.085 86.5115 217.185 91.5653C216.285 96.6191 220.923 101.95 226.115 101.742C226.6 108.042 227.5 114.342 230.062 120.088C232.623 125.834 236.915 131.026 242.731 133.45C249.238 136.15 257.131 134.903 262.461 130.334C264.607 128.534 266.338 126.25 267.93 123.965C272.915 116.973 277.207 109.288 279.077 100.911C280.946 92.5345 280.253 83.3269 275.684 75.9885C275.2 75.227 274.646 74.3962 273.815 73.9808C272.638 73.3578 271.184 73.6347 269.938 73.9808C256.092 77.7193 243.146 85.8192 228.885 85.75Z" fill="#FFB9A3"/>
    <path d="M282.469 55.2194C283.508 58.8886 284.546 62.6271 284.408 66.4347C284.269 70.2424 282.746 74.1885 279.562 76.3346C277.07 77.9961 273.885 78.3423 270.977 79.3115C265.162 81.25 260.662 85.8192 256.093 89.973C251.801 93.9191 246.401 97.796 240.724 96.6883C235.462 95.6498 232.001 90.6653 229.855 85.7499C228.678 83.1192 227.778 80.2115 228.401 77.4423C228.816 75.85 229.716 74.3962 230.685 73.0808C236.431 65.5347 245.708 61.3809 255.124 59.9963C264.47 58.5425 274.023 59.5117 283.439 60.4809L282.469 55.2194Z" fill="#400F58"/>
    <path d="M230.062 86.0268C232.07 97.9344 245.639 103.819 255.608 96.8268C260.316 93.5037 263.431 88.4499 267.516 84.5038C271.877 80.2807 279.562 78.4808 280.808 71.7654C281.016 70.7962 279.493 70.3808 279.285 71.35C278.177 77.3731 271.185 79.1038 267.101 82.7038C263.847 85.6115 261.285 89.2807 258.239 92.4652C254.154 96.6883 248.824 99.319 242.87 98.0037C236.778 96.6883 232.555 91.6345 231.585 85.6115C231.378 84.6422 229.855 85.0576 230.062 86.0268Z" fill="#400F58"/>
    <path d="M490.578 338.579C490.439 338.786 490.37 338.994 490.232 339.202C490.162 339.34 490.093 339.409 490.024 339.548C489.678 340.24 489.332 340.863 488.916 341.556L196.211 371.463L175.373 373.609V373.748L175.857 383.094L176.48 395.832L216.149 391.124L469.532 361.078C468.909 361.494 468.286 361.84 467.663 362.186C466.278 363.017 464.824 363.778 463.37 364.54L175.303 398.67C175.234 398.67 175.165 398.67 175.165 398.67C174.819 398.67 174.542 398.532 174.265 398.324C173.988 398.117 173.78 397.701 173.78 397.355L172.604 372.363C172.604 372.086 172.673 371.878 172.742 371.671C172.95 371.255 173.365 370.978 173.78 370.978L490.578 338.579Z" fill="#6737C3"/>
    <path d="M175.37 372.57C175.232 373.194 174.678 373.678 173.985 373.678C173.916 373.678 173.778 373.678 173.709 373.678L172.809 373.47L66.6787 352.494L65.3634 352.217C64.7403 351.525 64.1172 350.763 63.4941 350.001C63.7711 349.448 64.3249 349.171 64.948 349.309L174.262 370.909C175.024 371.117 175.509 371.809 175.37 372.57Z" fill="#6737C3"/>
    <path d="M176.547 397.632C176.409 398.255 175.855 398.74 175.163 398.74C175.093 398.74 174.955 398.74 174.886 398.74L83.1557 379.632C82.6711 378.732 82.1864 377.763 81.7018 376.863C81.6326 376.724 81.5634 376.586 81.4941 376.447L173.64 395.624L175.439 395.97C176.27 396.109 176.755 396.87 176.547 397.632Z" fill="#6737C3"/>
    <path d="M135.425 324.109C135.425 324.871 134.871 325.494 134.11 325.563L41.8953 328.471C40.9953 327.571 40.0953 326.671 39.1953 325.771L70.9027 324.732L72.3566 324.663L75.8181 324.525L98.8717 323.763L124.487 322.932L134.041 322.656C134.11 322.656 134.179 322.656 134.248 322.656C134.871 322.863 135.356 323.417 135.425 324.109Z" fill="#6737C3"/>
    <path d="M417.164 152.887C418.108 148.907 415.647 144.914 411.666 143.97C407.685 143.026 403.693 145.487 402.749 149.468C401.805 153.449 404.266 157.441 408.247 158.385C412.227 159.33 416.22 156.868 417.164 152.887Z" fill="#216EF4"/>
    <path d="M409.924 167.026C401.201 167.026 394.07 159.895 394.07 151.172C394.07 142.449 401.201 135.319 409.924 135.319C418.647 135.319 425.778 142.449 425.778 151.172C425.778 159.895 418.716 167.026 409.924 167.026ZM409.924 136.011C401.547 136.011 394.763 142.796 394.763 151.172C394.763 159.549 401.547 166.334 409.924 166.334C418.301 166.334 425.085 159.549 425.085 151.172C425.085 142.796 418.301 136.011 409.924 136.011Z" fill="#216EF4"/>
    <path d="M310.785 70.3809C312.314 70.3809 313.554 69.1411 313.554 67.6117C313.554 66.0823 312.314 64.8425 310.785 64.8425C309.255 64.8425 308.016 66.0823 308.016 67.6117C308.016 69.1411 309.255 70.3809 310.785 70.3809Z" fill="#216EF4"/>
    <path d="M46.4648 184.611C40.7879 184.611 36.2188 180.041 36.2188 174.365C36.2188 168.688 40.7879 164.118 46.4648 164.118C52.1417 164.118 56.7109 168.688 56.7109 174.365C56.7109 179.972 52.0725 184.611 46.4648 184.611ZM46.4648 165.503C41.5495 165.503 37.6034 169.449 37.6034 174.365C37.6034 179.28 41.5495 183.226 46.4648 183.226C51.3802 183.226 55.3263 179.28 55.3263 174.365C55.3263 169.449 51.3109 165.503 46.4648 165.503Z" fill="#216EF4"/>
    <path d="M132.862 64.8425C132.862 67.1271 130.993 68.9963 128.708 68.9963C126.424 68.9963 124.555 67.1271 124.555 64.8425C124.555 62.5579 126.424 60.6887 128.708 60.6887C130.993 60.6887 132.862 62.5579 132.862 64.8425Z" fill="#216EF4"/>
    <path d="M523.946 233.418L510.377 263.879L495.977 296.21L492.1 304.933L481.162 329.509L317.363 333.871L326.086 313.24L364.094 223.656C366.171 218.81 370.809 215.487 376.07 215.141C394.97 213.826 441.493 210.987 479.362 211.68C491.893 211.887 503.454 212.58 512.8 213.757C516.123 214.172 518.892 215.695 521.038 217.841C524.985 221.856 526.369 227.88 523.946 233.418Z" fill="#54238E"/>
    <path d="M312.308 334.148L310.992 333.663L319.715 311.44L357.723 220.956C359.938 215.764 364.715 212.303 370.253 211.887C388.668 210.572 435.676 207.664 473.614 208.426C487.114 208.703 498.398 209.395 507.121 210.503C510.444 210.918 513.421 212.441 515.706 214.864C519.929 219.226 521.106 225.733 518.613 231.341L486.837 303.548L485.591 302.994L517.367 230.787C519.583 225.733 518.544 219.849 514.737 215.833C512.66 213.618 509.96 212.303 506.914 211.887C498.26 210.78 487.044 210.018 473.545 209.81C435.676 209.049 388.738 212.026 370.322 213.272C365.269 213.618 360.907 216.803 358.969 221.441L320.961 311.925L312.308 334.148Z" fill="#54238E"/>
    <path d="M437.854 278.378C444.661 272.111 446.779 263.337 442.583 258.78C438.388 254.223 429.469 255.609 422.662 261.876C415.854 268.143 413.737 276.918 417.932 281.475C422.127 286.032 431.047 284.645 437.854 278.378Z" fill="#B29EEF"/>
    <path d="M315.148 238.61C311.894 232.172 307.602 226.287 304.971 219.503C304.487 218.256 302.479 218.81 302.964 220.056C305.594 226.979 309.956 233.072 313.348 239.649C313.971 240.895 315.771 239.787 315.148 238.61Z" fill="white"/>
    <path d="M286.692 302.302C291.054 311.994 305.731 313.586 314.8 312.548C316.115 312.41 316.115 310.333 314.8 310.471C306.492 311.44 292.577 310.263 288.492 301.263C287.939 300.017 286.139 301.056 286.692 302.302Z" fill="white"/>
    <path d="M252.769 294.064C251.662 275.164 249.862 256.333 247.438 237.572C245.5 222.341 243.631 207.11 239.892 192.226C238.023 184.818 235.739 177.48 232.762 170.418C229.992 163.703 225.423 156.365 228.262 148.888C220.854 154.219 215.939 156.434 207.423 159.757C200.57 162.457 193.439 164.395 186.654 167.234C182.708 168.895 178.831 170.834 175.647 173.672C171.978 176.857 169.347 180.941 166.855 185.095C164.016 189.803 161.316 194.511 159.032 199.495C155.362 207.457 152.662 215.833 149.616 224.003C144.147 238.679 137.432 252.872 130.093 266.648C125.455 275.371 120.47 284.233 119.155 293.994C117.84 303.756 121.163 314.971 129.747 319.817C133.693 322.033 138.262 322.794 142.762 323.071C175.647 325.494 206.8 320.994 243.908 316.217C244.946 316.079 242.938 316.633 243.908 316.217C245.015 315.802 245.638 314.625 246.123 313.586C249.1 307.494 252.285 300.917 252.769 294.064Z" fill="#FDCB22"/>
    <path d="M199.114 238.402C194.06 251.141 189.837 264.156 186.583 277.448C186.445 278.002 186.791 278.556 187.276 278.694C204.791 284.164 223.137 284.925 240.998 288.594C243.421 289.079 250.968 289.771 251.521 292.471C251.937 294.34 251.106 296.971 250.691 298.84C249.306 305.348 247.021 312.063 242.452 316.979C241.552 317.948 243.006 319.402 243.906 318.433C248.614 313.31 251.106 306.456 252.56 299.74C253.321 296.14 255.191 290.879 250.968 289.01C246.468 287.002 240.722 286.448 235.875 285.617C230.614 284.717 225.352 284.025 220.091 283.264C209.153 281.741 198.283 280.079 187.691 276.825C187.899 277.241 188.176 277.656 188.383 278.071C191.707 264.779 195.86 251.764 200.914 239.026C201.606 237.71 199.599 237.156 199.114 238.402Z" fill="white"/>
    <path d="M187.417 276.687C181.671 277.587 176.201 279.179 170.871 281.533C169.625 282.087 170.732 283.887 171.909 283.333C177.032 281.048 182.363 279.525 187.97 278.694C189.286 278.487 188.732 276.479 187.417 276.687Z" fill="white"/>
    <path d="M259.14 169.934C254.294 171.734 248.894 171.18 243.771 170.141C238.717 169.103 233.248 167.303 230.687 162.872C227.433 157.265 230.063 150.272 231.587 143.972C233.594 135.942 233.663 127.426 231.794 119.327L250.902 122.996L257.409 124.242C257.271 132.619 259.348 140.996 263.502 148.196C263.917 148.888 264.332 149.58 264.679 150.272C266.202 152.834 267.655 155.395 267.794 158.303C268.209 163.565 264.055 168.203 259.14 169.934Z" fill="#FFB9A3"/>
    <path d="M264.814 150.342C246.884 149.026 240.099 136.565 237.814 130.611C239.268 131.788 240.93 132.757 242.73 133.519C247.645 135.526 253.391 135.319 258.168 133.173C259.068 138.503 260.937 143.696 263.637 148.334C263.983 148.957 264.399 149.649 264.814 150.342Z" fill="#FF9B8D"/>
    <path d="M409.922 100.842C387.976 100.842 370.184 82.9807 370.184 61.104C370.184 39.2272 388.045 21.3658 409.922 21.3658C431.868 21.3658 449.66 39.2272 449.66 61.104C449.66 82.9807 431.868 100.842 409.922 100.842ZM409.922 22.0581C388.391 22.0581 370.876 39.5734 370.876 61.104C370.876 82.6345 388.391 100.15 409.922 100.15C431.452 100.15 448.968 82.6345 448.968 61.104C448.968 39.5734 431.452 22.0581 409.922 22.0581Z" fill="#54238E"/>
    <path d="M409.506 61.5194L414.698 30.8505L415.39 30.9889L410.337 60.7579C416.983 59.9271 426.675 58.6118 427.298 58.2656L427.436 58.5425H427.506L427.783 58.2656L427.852 58.6118C427.783 58.8887 427.644 59.2348 409.99 61.4502L409.506 61.5194Z" fill="#54238E"/>
    <path d="M544.436 115.865C542.844 111.088 540.836 106.311 537.167 102.919C530.175 96.4806 518.544 97.1729 510.721 102.642C502.967 108.111 498.467 117.25 496.183 126.526C494.036 141.203 494.59 151.657 499.021 167.095C501.167 174.641 504.49 182.118 510.305 187.38C516.121 192.641 524.775 195.272 532.044 192.295C538.967 189.457 543.121 182.326 545.613 175.265C552.397 156.295 550.874 135.042 544.436 115.865Z" fill="#F7F9FB"/>
    <path d="M192.61 233.695C193.787 234.664 194.687 235.91 195.795 236.949C196.902 237.918 198.149 238.61 199.395 239.372C200.572 239.995 201.61 238.264 200.433 237.572C199.187 236.879 197.941 236.187 196.902 235.218C195.933 234.249 195.102 233.141 193.995 232.31C193.026 231.41 191.572 232.864 192.61 233.695Z" fill="white"/>
    <path d="M304.9 220.472C306.354 218.464 307.738 216.387 309.054 214.241C309.746 213.134 307.946 212.095 307.254 213.203C305.938 215.28 304.554 217.357 303.1 219.433C302.338 220.541 304.138 221.58 304.9 220.472Z" fill="white"/>
    <path d="M225.908 102.434C226.739 112.611 229.162 126.873 238.785 132.619C243.147 135.18 248.962 137.05 254.085 136.219C259.277 135.388 263.016 131.511 266.2 127.634C266.823 126.873 265.716 125.765 265.093 126.527C262.116 130.196 258.654 133.865 253.808 134.626C248.824 135.457 242.801 133.45 238.647 130.611C230.478 125.073 228.262 111.504 227.501 102.434C227.432 101.465 225.839 101.465 225.908 102.434Z" fill="white"/>
    <path d="M190.118 347.094H159.656L153.287 305.763H197.11L190.118 347.094Z" fill="white"/>
    <path d="M174.817 352.217C183.267 352.217 190.117 349.923 190.117 347.094C190.117 344.264 183.267 341.971 174.817 341.971C166.368 341.971 159.518 344.264 159.518 347.094C159.518 349.923 166.368 352.217 174.817 352.217Z" fill="white"/>
    <path d="M175.165 310.886C187.285 310.886 197.111 308.593 197.111 305.763C197.111 302.934 187.285 300.64 175.165 300.64C163.044 300.64 153.219 302.934 153.219 305.763C153.219 308.593 163.044 310.886 175.165 310.886Z" fill="white"/>
    <path d="M175.163 309.986C185.218 309.986 193.37 308.096 193.37 305.763C193.37 303.431 185.218 301.54 175.163 301.54C165.107 301.54 156.955 303.431 156.955 305.763C156.955 308.096 165.107 309.986 175.163 309.986Z" fill="#400F58"/>
    <path d="M156.125 310.194C148.925 311.233 141.725 312.202 134.526 313.24C132.864 313.448 132.656 315.733 133.626 316.702C138.541 321.894 143.525 327.086 148.441 332.279C152.733 336.709 157.095 341.002 162.494 344.117C164.779 345.432 166.925 341.902 164.571 340.517C159.171 337.402 154.81 332.971 150.518 328.471C145.81 323.556 141.172 318.709 136.533 313.794C136.256 314.971 135.91 316.079 135.633 317.256C142.833 316.217 150.033 315.248 157.233 314.209C159.864 313.794 158.756 309.779 156.125 310.194Z" fill="white"/>
    <path d="M169.554 305.694C168.931 304.863 168.308 304.033 167.754 303.133C166.993 301.817 166.785 301.61 167.339 300.086C167.893 298.563 169.07 298.079 169.97 296.833C170.939 295.448 171.285 293.856 170.247 292.471C169.07 290.879 166.578 290.463 164.778 290.671C164.362 290.74 163.947 290.879 163.462 290.948C162.078 291.294 159.655 291.017 158.755 289.702C157.37 287.694 160.901 284.787 162.216 283.61C162.978 282.917 161.87 281.81 161.108 282.502C159.031 284.371 156.678 286.24 157.093 289.356C157.439 291.848 159.031 293.44 161.524 293.094C163.393 292.887 171.354 290.463 168.793 295.656C167.962 297.248 166.024 297.802 165.401 299.533C164.501 302.094 167.062 305.002 168.516 306.802C169.07 307.563 170.178 306.456 169.554 305.694Z" fill="white"/>
    <path d="M176.478 302.994C175.647 302.025 174.332 300.71 174.124 299.394C173.778 296.625 175.717 296.556 176.963 295.379C177.586 294.756 178.071 294.202 178.14 293.302C178.417 290.325 175.024 290.048 173.155 288.94C167.548 285.756 170.317 279.802 172.948 275.787C174.748 273.018 176.34 270.387 176.132 266.925C176.063 265.956 174.54 265.956 174.609 266.925C175.094 274.471 164.086 280.356 169.901 288.11C170.871 289.425 172.048 290.117 173.501 290.74C175.44 291.571 176.547 292.887 174.817 294.894C174.401 295.31 173.778 295.517 173.363 296.002C171.078 298.702 173.432 301.887 175.301 304.033C175.994 304.863 177.101 303.756 176.478 302.994Z" fill="white"/>
    <path d="M182.848 304.171C182.294 302.925 181.463 301.54 182.778 300.363C183.124 300.017 183.678 299.948 184.094 299.74C184.924 299.325 185.547 298.84 185.824 297.94C186.447 296.071 185.201 294.41 183.471 293.925C182.501 293.648 182.086 295.171 183.055 295.448C184.301 295.794 184.924 297.317 183.747 298.287C183.471 298.494 182.778 298.702 182.432 298.91C181.878 299.256 181.324 299.602 180.978 300.156C180.009 301.748 180.84 303.548 181.532 305.071C181.948 305.902 183.263 305.071 182.848 304.171Z" fill="white"/>
</svg>
