<svg width="815" height="525" viewBox="0 0 815 525" fill="none" xmlns="http://www.w3.org/2000/svg" style="background-color: #333;">
<style>
    .dark-theme {
      fill: #78909c;
    }
  </style>
    <g clip-path="url(#clip0)">
        <path opacity="0.12" d="M974.997 903.997C936.093 885.553 901.781 859.684 875.575 828.544C829.105 773.451 808.302 702.07 818.569 634.043C826.133 583.501 849.908 536.313 861.526 486.49C873.143 436.667 870.712 379.658 832.618 341.812C808.032 317.14 771.829 303.965 736.167 294.863C626.477 266.359 506.522 266.598 403.857 221.805C305.515 178.689 232.298 94.3735 208.523 -0.00268555L974.997 -0.00271527L974.997 903.997Z" fill="url(#paint0_linear)"/>
    </g>
    <g opacity="0.1" clip-path="url(#clip1)">
        <path d="M42.5373 40.0598C103.358 84.0925 190.299 107.93 293.657 109.254C355.224 109.916 417.537 103.295 477.985 96.6733C504.851 93.6936 532.836 90.714 560.075 88.3965C635.821 82.1061 734.328 78.4643 823.881 108.592C874.627 125.477 924.254 153.618 974.627 194.009L974.627 192.684C924.254 152.294 875 124.483 824.254 107.599C734.328 77.471 635.821 81.1128 559.702 87.4032C532.463 89.7207 504.478 92.7004 477.612 95.6801C417.537 102.302 355.224 108.923 293.284 108.261C190.299 106.937 103.731 83.0993 42.9104 39.3977C27.2388 28.1412 13.0597 14.8983 1.11939 0.331055L-9.54251e-06 0.331055C12.3134 14.8983 26.8657 28.4723 42.5373 40.0598Z" fill="url(#paint1_linear)"/>
        <path d="M424.254 29.4655C454.478 68.8631 495.149 100.646 541.045 121.504C575.746 137.064 613.806 146.996 650.746 156.597C667.537 160.901 684.701 165.536 701.493 170.503C769.403 190.698 813.806 216.191 841.418 250.953C885.821 306.905 879.851 379.079 874.254 448.935C872.761 465.489 871.642 483.035 870.896 499.589C866.418 615.796 903.731 732.664 974.627 830.331L974.627 828.345C904.478 731.34 867.537 615.134 872.015 499.92C872.761 483.367 873.881 466.151 875.373 449.266C880.97 379.41 886.94 306.905 842.537 250.622C814.925 215.86 770.149 190.036 702.239 169.84C685.448 164.874 668.284 160.239 651.493 155.935C614.552 146.334 576.493 136.402 541.791 120.842C495.895 99.984 455.597 68.5321 425.373 29.1344C418.284 19.8644 411.567 10.2632 405.597 0.330994L404.104 0.330994C410.448 10.2632 417.164 19.8643 424.254 29.4655Z" fill="#5B24B2"/>
    </g>
    <g clip-path="url(#clip2)">
        <path d="M833.309 104.77C828.619 104.77 824.867 101.441 824.867 97.281C824.867 93.1205 828.619 89.792 833.309 89.792C838 89.792 841.752 93.1205 841.752 97.281C841.752 101.441 837.765 104.77 833.309 104.77ZM833.309 92.7044C830.495 92.7044 828.15 94.7847 828.15 97.281C828.15 99.7773 830.495 101.858 833.309 101.858C836.123 101.858 838.469 99.7773 838.469 97.281C838.469 94.7847 836.123 92.7044 833.309 92.7044Z" fill="white"/>
        <path d="M932.74 350.24C928.05 350.24 924.298 346.912 924.298 342.751C924.298 338.591 928.05 335.263 932.74 335.263C937.43 335.263 941.182 338.591 941.182 342.751C941.182 346.912 937.43 350.24 932.74 350.24ZM932.74 338.175C929.926 338.175 927.581 340.255 927.581 342.751C927.581 345.248 929.926 347.328 932.74 347.328C935.554 347.328 937.899 345.248 937.899 342.751C938.134 340.255 935.789 338.175 932.74 338.175Z" fill="white"/>
        <path d="M624.598 541C619.908 541 616.156 537.672 616.156 533.511C616.156 529.351 619.908 526.022 624.598 526.022C629.289 526.022 633.041 529.351 633.041 533.511C632.806 537.672 629.054 541 624.598 541ZM624.598 528.935C621.784 528.935 619.439 531.015 619.439 533.511C619.439 536.007 621.784 538.088 624.598 538.088C627.413 538.088 629.758 536.007 629.758 533.511C629.758 531.015 627.413 528.935 624.598 528.935Z" fill="white"/>
        <path d="M262.053 516.037C257.362 516.037 253.61 512.709 253.61 508.548C253.61 504.388 257.362 501.059 262.053 501.059C266.743 501.059 270.495 504.388 270.495 508.548C270.495 512.709 266.508 516.037 262.053 516.037ZM262.053 503.971C259.239 503.971 256.893 506.052 256.893 508.548C256.893 511.044 259.239 513.125 262.053 513.125C264.867 513.125 267.212 511.044 267.212 508.548C267.212 506.052 264.867 503.971 262.053 503.971Z" fill="white"/>
    </g>
    <defs>
        <linearGradient id="paint0_linear" x1="591.723" y1="903.997" x2="591.723" y2="-0.109993" gradientUnits="userSpaceOnUse">
            <stop offset="0.00130208" stop-color="#FFA35A"/>
            <stop offset="1" stop-color="#FF2574"/>
        </linearGradient>
        <linearGradient id="paint1_linear" x1="487.489" y1="194.067" x2="487.489" y2="0.0777651" gradientUnits="userSpaceOnUse">
            <stop offset="0.00130208" stop-color="#FF2574"/>
            <stop offset="0.9987" stop-color="#FFA35A"/>
        </linearGradient>
        <clipPath id="clip0">
            <rect width="904" height="766.474" fill="white" transform="translate(208.523 903.997) rotate(-90)"/>
        </clipPath>
        <clipPath id="clip1">
            <rect width="830" height="975" fill="white" transform="translate(0 830) rotate(-90)"/>
        </clipPath>
        <clipPath id="clip2">
            <rect width="687.572" height="451" fill="white" transform="translate(253.61 90.0001)"/>
        </clipPath>
    </defs>
</svg>
